G75*
G70*
%OFA0B0*%
%FSLAX24Y24*%
%IPPOS*%
%LPD*%
%AMOC8*
5,1,8,0,0,1.08239X$1,22.5*
%
%ADD10C,0.0000*%
%ADD11C,0.0000*%
%ADD12C,0.0060*%
%ADD13C,0.0050*%
%ADD14C,0.0020*%
%ADD15C,0.0160*%
%ADD16C,0.0030*%
%ADD17C,0.0240*%
D10*
X002102Y011237D02*
X002102Y011315D01*
D11*
X000101Y000121D02*
X004824Y000121D01*
X004824Y001888D01*
X005616Y002484D01*
X005616Y002485D01*
X006789Y002485D01*
X007579Y001895D01*
X007582Y001892D01*
X007582Y000120D01*
X033763Y000120D01*
X033763Y012326D01*
X000103Y012326D01*
X000103Y000183D01*
D12*
X000461Y000283D02*
X000461Y004283D01*
X001411Y004283D01*
X001411Y003633D01*
X001411Y002933D02*
X001411Y001633D01*
X001411Y000933D02*
X001411Y000283D01*
X004011Y000283D01*
X004111Y000283D01*
X004111Y004283D01*
X004011Y004283D01*
X001411Y004283D01*
X000588Y004421D02*
X004488Y004421D01*
X004505Y004423D01*
X004522Y004427D01*
X004538Y004434D01*
X004552Y004444D01*
X004565Y004457D01*
X004575Y004471D01*
X004582Y004487D01*
X004586Y004504D01*
X004588Y004521D01*
X004588Y006721D01*
X004586Y006738D01*
X004582Y006755D01*
X004575Y006771D01*
X004565Y006785D01*
X004552Y006798D01*
X004538Y006808D01*
X004522Y006815D01*
X004505Y006819D01*
X004488Y006821D01*
X000588Y006821D01*
X000571Y006819D01*
X000554Y006815D01*
X000538Y006808D01*
X000524Y006798D01*
X000511Y006785D01*
X000501Y006771D01*
X000494Y006755D01*
X000490Y006738D01*
X000488Y006721D01*
X000488Y004521D01*
X000490Y004504D01*
X000494Y004487D01*
X000501Y004471D01*
X000511Y004457D01*
X000524Y004444D01*
X000538Y004434D01*
X000554Y004427D01*
X000571Y004423D01*
X000588Y004421D01*
X001488Y005621D02*
X003038Y005621D01*
X003388Y005621D02*
X003588Y005621D01*
X004663Y005496D02*
X004665Y005550D01*
X004671Y005604D01*
X004681Y005657D01*
X004694Y005710D01*
X004711Y005761D01*
X004732Y005811D01*
X004757Y005859D01*
X004785Y005906D01*
X004816Y005950D01*
X004850Y005992D01*
X004887Y006031D01*
X004927Y006068D01*
X004970Y006101D01*
X005015Y006132D01*
X005062Y006159D01*
X005110Y006182D01*
X005161Y006202D01*
X005212Y006219D01*
X005265Y006231D01*
X005318Y006240D01*
X005372Y006245D01*
X005427Y006246D01*
X005481Y006243D01*
X005534Y006236D01*
X005587Y006225D01*
X005640Y006211D01*
X005691Y006193D01*
X005740Y006171D01*
X005788Y006146D01*
X005834Y006117D01*
X005878Y006085D01*
X005919Y006050D01*
X005957Y006012D01*
X005993Y005971D01*
X006026Y005928D01*
X006056Y005883D01*
X006082Y005835D01*
X006105Y005786D01*
X006124Y005735D01*
X006139Y005684D01*
X006151Y005631D01*
X006159Y005577D01*
X006163Y005523D01*
X006163Y005469D01*
X006159Y005415D01*
X006151Y005361D01*
X006139Y005308D01*
X006124Y005257D01*
X006105Y005206D01*
X006082Y005157D01*
X006056Y005109D01*
X006026Y005064D01*
X005993Y005021D01*
X005957Y004980D01*
X005919Y004942D01*
X005878Y004907D01*
X005834Y004875D01*
X005788Y004846D01*
X005740Y004821D01*
X005691Y004799D01*
X005640Y004781D01*
X005587Y004767D01*
X005534Y004756D01*
X005481Y004749D01*
X005427Y004746D01*
X005372Y004747D01*
X005318Y004752D01*
X005265Y004761D01*
X005212Y004773D01*
X005161Y004790D01*
X005110Y004810D01*
X005062Y004833D01*
X005015Y004860D01*
X004970Y004891D01*
X004927Y004924D01*
X004887Y004961D01*
X004850Y005000D01*
X004816Y005042D01*
X004785Y005086D01*
X004757Y005133D01*
X004732Y005181D01*
X004711Y005231D01*
X004694Y005282D01*
X004681Y005335D01*
X004671Y005388D01*
X004665Y005442D01*
X004663Y005496D01*
X006251Y004871D02*
X006253Y004929D01*
X006259Y004987D01*
X006269Y005044D01*
X006283Y005100D01*
X006300Y005156D01*
X006321Y005210D01*
X006346Y005262D01*
X006375Y005313D01*
X006407Y005361D01*
X006442Y005407D01*
X006480Y005451D01*
X006521Y005492D01*
X006565Y005530D01*
X006611Y005565D01*
X006659Y005597D01*
X006710Y005626D01*
X006762Y005651D01*
X006816Y005672D01*
X006872Y005689D01*
X006928Y005703D01*
X006985Y005713D01*
X007043Y005719D01*
X007101Y005721D01*
X007159Y005719D01*
X007217Y005713D01*
X007274Y005703D01*
X007330Y005689D01*
X007386Y005672D01*
X007440Y005651D01*
X007492Y005626D01*
X007543Y005597D01*
X007591Y005565D01*
X007637Y005530D01*
X007681Y005492D01*
X007722Y005451D01*
X007760Y005407D01*
X007795Y005361D01*
X007827Y005313D01*
X007856Y005262D01*
X007881Y005210D01*
X007902Y005156D01*
X007919Y005100D01*
X007933Y005044D01*
X007943Y004987D01*
X007949Y004929D01*
X007951Y004871D01*
X007949Y004813D01*
X007943Y004755D01*
X007933Y004698D01*
X007919Y004642D01*
X007902Y004586D01*
X007881Y004532D01*
X007856Y004480D01*
X007827Y004429D01*
X007795Y004381D01*
X007760Y004335D01*
X007722Y004291D01*
X007681Y004250D01*
X007637Y004212D01*
X007591Y004177D01*
X007543Y004145D01*
X007492Y004116D01*
X007440Y004091D01*
X007386Y004070D01*
X007330Y004053D01*
X007274Y004039D01*
X007217Y004029D01*
X007159Y004023D01*
X007101Y004021D01*
X007043Y004023D01*
X006985Y004029D01*
X006928Y004039D01*
X006872Y004053D01*
X006816Y004070D01*
X006762Y004091D01*
X006710Y004116D01*
X006659Y004145D01*
X006611Y004177D01*
X006565Y004212D01*
X006521Y004250D01*
X006480Y004291D01*
X006442Y004335D01*
X006407Y004381D01*
X006375Y004429D01*
X006346Y004480D01*
X006321Y004532D01*
X006300Y004586D01*
X006283Y004642D01*
X006269Y004698D01*
X006259Y004755D01*
X006253Y004813D01*
X006251Y004871D01*
X007601Y005071D02*
X007801Y005071D01*
X007701Y005171D02*
X007701Y004971D01*
X007701Y004721D02*
X007701Y004521D01*
X007476Y003683D02*
X007478Y003727D01*
X007484Y003771D01*
X007494Y003814D01*
X007507Y003856D01*
X007524Y003897D01*
X007545Y003936D01*
X007569Y003973D01*
X007596Y004008D01*
X007626Y004040D01*
X007659Y004070D01*
X007695Y004096D01*
X007732Y004120D01*
X007772Y004139D01*
X007813Y004156D01*
X007856Y004168D01*
X007899Y004177D01*
X007943Y004182D01*
X007987Y004183D01*
X008031Y004180D01*
X008075Y004173D01*
X008118Y004162D01*
X008160Y004148D01*
X008200Y004130D01*
X008239Y004108D01*
X008275Y004084D01*
X008309Y004056D01*
X008341Y004025D01*
X008370Y003991D01*
X008396Y003955D01*
X008418Y003917D01*
X008437Y003877D01*
X008452Y003835D01*
X008464Y003793D01*
X008472Y003749D01*
X008476Y003705D01*
X008476Y003661D01*
X008472Y003617D01*
X008464Y003573D01*
X008452Y003531D01*
X008437Y003489D01*
X008418Y003449D01*
X008396Y003411D01*
X008370Y003375D01*
X008341Y003341D01*
X008309Y003310D01*
X008275Y003282D01*
X008239Y003258D01*
X008200Y003236D01*
X008160Y003218D01*
X008118Y003204D01*
X008075Y003193D01*
X008031Y003186D01*
X007987Y003183D01*
X007943Y003184D01*
X007899Y003189D01*
X007856Y003198D01*
X007813Y003210D01*
X007772Y003227D01*
X007732Y003246D01*
X007695Y003270D01*
X007659Y003296D01*
X007626Y003326D01*
X007596Y003358D01*
X007569Y003393D01*
X007545Y003430D01*
X007524Y003469D01*
X007507Y003510D01*
X007494Y003552D01*
X007484Y003595D01*
X007478Y003639D01*
X007476Y003683D01*
X005288Y003433D02*
X005290Y003487D01*
X005296Y003541D01*
X005306Y003594D01*
X005319Y003647D01*
X005336Y003698D01*
X005357Y003748D01*
X005382Y003796D01*
X005410Y003843D01*
X005441Y003887D01*
X005475Y003929D01*
X005512Y003968D01*
X005552Y004005D01*
X005595Y004038D01*
X005640Y004069D01*
X005687Y004096D01*
X005735Y004119D01*
X005786Y004139D01*
X005837Y004156D01*
X005890Y004168D01*
X005943Y004177D01*
X005997Y004182D01*
X006052Y004183D01*
X006106Y004180D01*
X006159Y004173D01*
X006212Y004162D01*
X006265Y004148D01*
X006316Y004130D01*
X006365Y004108D01*
X006413Y004083D01*
X006459Y004054D01*
X006503Y004022D01*
X006544Y003987D01*
X006582Y003949D01*
X006618Y003908D01*
X006651Y003865D01*
X006681Y003820D01*
X006707Y003772D01*
X006730Y003723D01*
X006749Y003672D01*
X006764Y003621D01*
X006776Y003568D01*
X006784Y003514D01*
X006788Y003460D01*
X006788Y003406D01*
X006784Y003352D01*
X006776Y003298D01*
X006764Y003245D01*
X006749Y003194D01*
X006730Y003143D01*
X006707Y003094D01*
X006681Y003046D01*
X006651Y003001D01*
X006618Y002958D01*
X006582Y002917D01*
X006544Y002879D01*
X006503Y002844D01*
X006459Y002812D01*
X006413Y002783D01*
X006365Y002758D01*
X006316Y002736D01*
X006265Y002718D01*
X006212Y002704D01*
X006159Y002693D01*
X006106Y002686D01*
X006052Y002683D01*
X005997Y002684D01*
X005943Y002689D01*
X005890Y002698D01*
X005837Y002710D01*
X005786Y002727D01*
X005735Y002747D01*
X005687Y002770D01*
X005640Y002797D01*
X005595Y002828D01*
X005552Y002861D01*
X005512Y002898D01*
X005475Y002937D01*
X005441Y002979D01*
X005410Y003023D01*
X005382Y003070D01*
X005357Y003118D01*
X005336Y003168D01*
X005319Y003219D01*
X005306Y003272D01*
X005296Y003325D01*
X005290Y003379D01*
X005288Y003433D01*
X004288Y002871D02*
X004290Y002915D01*
X004296Y002959D01*
X004306Y003002D01*
X004319Y003044D01*
X004336Y003085D01*
X004357Y003124D01*
X004381Y003161D01*
X004408Y003196D01*
X004438Y003228D01*
X004471Y003258D01*
X004507Y003284D01*
X004544Y003308D01*
X004584Y003327D01*
X004625Y003344D01*
X004668Y003356D01*
X004711Y003365D01*
X004755Y003370D01*
X004799Y003371D01*
X004843Y003368D01*
X004887Y003361D01*
X004930Y003350D01*
X004972Y003336D01*
X005012Y003318D01*
X005051Y003296D01*
X005087Y003272D01*
X005121Y003244D01*
X005153Y003213D01*
X005182Y003179D01*
X005208Y003143D01*
X005230Y003105D01*
X005249Y003065D01*
X005264Y003023D01*
X005276Y002981D01*
X005284Y002937D01*
X005288Y002893D01*
X005288Y002849D01*
X005284Y002805D01*
X005276Y002761D01*
X005264Y002719D01*
X005249Y002677D01*
X005230Y002637D01*
X005208Y002599D01*
X005182Y002563D01*
X005153Y002529D01*
X005121Y002498D01*
X005087Y002470D01*
X005051Y002446D01*
X005012Y002424D01*
X004972Y002406D01*
X004930Y002392D01*
X004887Y002381D01*
X004843Y002374D01*
X004799Y002371D01*
X004755Y002372D01*
X004711Y002377D01*
X004668Y002386D01*
X004625Y002398D01*
X004584Y002415D01*
X004544Y002434D01*
X004507Y002458D01*
X004471Y002484D01*
X004438Y002514D01*
X004408Y002546D01*
X004381Y002581D01*
X004357Y002618D01*
X004336Y002657D01*
X004319Y002698D01*
X004306Y002740D01*
X004296Y002783D01*
X004290Y002827D01*
X004288Y002871D01*
X003281Y003283D02*
X003283Y003311D01*
X003289Y003338D01*
X003298Y003364D01*
X003311Y003389D01*
X003328Y003412D01*
X003347Y003432D01*
X003369Y003449D01*
X003393Y003463D01*
X003419Y003473D01*
X003446Y003480D01*
X003474Y003483D01*
X003502Y003482D01*
X003529Y003477D01*
X003556Y003468D01*
X003581Y003456D01*
X003604Y003441D01*
X003625Y003422D01*
X003643Y003401D01*
X003658Y003377D01*
X003669Y003351D01*
X003677Y003325D01*
X003681Y003297D01*
X003681Y003269D01*
X003677Y003241D01*
X003669Y003215D01*
X003658Y003189D01*
X003643Y003165D01*
X003625Y003144D01*
X003604Y003125D01*
X003581Y003110D01*
X003556Y003098D01*
X003529Y003089D01*
X003502Y003084D01*
X003474Y003083D01*
X003446Y003086D01*
X003419Y003093D01*
X003393Y003103D01*
X003369Y003117D01*
X003347Y003134D01*
X003328Y003154D01*
X003311Y003177D01*
X003298Y003202D01*
X003289Y003228D01*
X003283Y003255D01*
X003281Y003283D01*
X004011Y004283D02*
X004011Y000283D01*
X001411Y000283D02*
X000461Y000283D01*
X003281Y001283D02*
X003283Y001311D01*
X003289Y001338D01*
X003298Y001364D01*
X003311Y001389D01*
X003328Y001412D01*
X003347Y001432D01*
X003369Y001449D01*
X003393Y001463D01*
X003419Y001473D01*
X003446Y001480D01*
X003474Y001483D01*
X003502Y001482D01*
X003529Y001477D01*
X003556Y001468D01*
X003581Y001456D01*
X003604Y001441D01*
X003625Y001422D01*
X003643Y001401D01*
X003658Y001377D01*
X003669Y001351D01*
X003677Y001325D01*
X003681Y001297D01*
X003681Y001269D01*
X003677Y001241D01*
X003669Y001215D01*
X003658Y001189D01*
X003643Y001165D01*
X003625Y001144D01*
X003604Y001125D01*
X003581Y001110D01*
X003556Y001098D01*
X003529Y001089D01*
X003502Y001084D01*
X003474Y001083D01*
X003446Y001086D01*
X003419Y001093D01*
X003393Y001103D01*
X003369Y001117D01*
X003347Y001134D01*
X003328Y001154D01*
X003311Y001177D01*
X003298Y001202D01*
X003289Y001228D01*
X003283Y001255D01*
X003281Y001283D01*
X011601Y001683D02*
X011851Y001433D01*
X012351Y001433D01*
X012601Y001683D01*
X012851Y001433D01*
X013351Y001433D01*
X013601Y001683D01*
X013601Y002183D01*
X013351Y002433D01*
X012851Y002433D01*
X012601Y002183D01*
X012601Y001683D01*
X013601Y001683D02*
X013851Y001433D01*
X014351Y001433D01*
X014601Y001683D01*
X014851Y001433D01*
X015351Y001433D01*
X015601Y001683D01*
X015851Y001433D01*
X016351Y001433D01*
X016601Y001683D01*
X016601Y002183D01*
X016351Y002433D01*
X015851Y002433D01*
X015601Y002183D01*
X015601Y001683D01*
X016601Y001683D02*
X016851Y001433D01*
X017351Y001433D01*
X017601Y001683D01*
X017851Y001433D01*
X018351Y001433D01*
X018601Y001683D01*
X018851Y001433D01*
X019351Y001433D01*
X019601Y001683D01*
X019601Y002183D01*
X019351Y002433D01*
X018851Y002433D01*
X018601Y002183D01*
X018601Y001683D01*
X017601Y001683D02*
X017601Y002183D01*
X017851Y002433D01*
X018351Y002433D01*
X018601Y002183D01*
X017601Y002183D02*
X017351Y002433D01*
X016851Y002433D01*
X016601Y002183D01*
X015601Y002183D02*
X015351Y002433D01*
X014851Y002433D01*
X014601Y002183D01*
X014601Y001683D01*
X014601Y002183D02*
X014351Y002433D01*
X013851Y002433D01*
X013601Y002183D01*
X012601Y002183D02*
X012351Y002433D01*
X011851Y002433D01*
X011601Y002183D01*
X011601Y001683D01*
X011351Y004534D02*
X011351Y005284D01*
X011390Y005286D01*
X011429Y005292D01*
X011467Y005301D01*
X011504Y005314D01*
X011540Y005331D01*
X011573Y005351D01*
X011605Y005375D01*
X011634Y005401D01*
X011660Y005430D01*
X011684Y005462D01*
X011704Y005495D01*
X011721Y005531D01*
X011734Y005568D01*
X011743Y005606D01*
X011749Y005645D01*
X011751Y005684D01*
X011749Y005723D01*
X011743Y005762D01*
X011734Y005800D01*
X011721Y005837D01*
X011704Y005873D01*
X011684Y005906D01*
X011660Y005938D01*
X011634Y005967D01*
X011605Y005993D01*
X011573Y006017D01*
X011540Y006037D01*
X011504Y006054D01*
X011467Y006067D01*
X011429Y006076D01*
X011390Y006082D01*
X011351Y006084D01*
X011351Y006834D01*
X018351Y006834D01*
X018351Y004534D01*
X011351Y004534D01*
X009038Y006658D02*
X006038Y006658D01*
X006038Y007408D01*
X006077Y007410D01*
X006116Y007416D01*
X006154Y007425D01*
X006191Y007438D01*
X006227Y007455D01*
X006260Y007475D01*
X006292Y007499D01*
X006321Y007525D01*
X006347Y007554D01*
X006371Y007586D01*
X006391Y007619D01*
X006408Y007655D01*
X006421Y007692D01*
X006430Y007730D01*
X006436Y007769D01*
X006438Y007808D01*
X006436Y007847D01*
X006430Y007886D01*
X006421Y007924D01*
X006408Y007961D01*
X006391Y007997D01*
X006371Y008030D01*
X006347Y008062D01*
X006321Y008091D01*
X006292Y008117D01*
X006260Y008141D01*
X006227Y008161D01*
X006191Y008178D01*
X006154Y008191D01*
X006116Y008200D01*
X006077Y008206D01*
X006038Y008208D01*
X006038Y008958D01*
X009038Y008958D01*
X009038Y006658D01*
X013351Y007996D02*
X014351Y007996D01*
X018351Y007996D01*
X018351Y008996D01*
X014351Y008996D01*
X013351Y008996D01*
X013601Y008746D01*
X014101Y008746D02*
X014351Y008996D01*
X014351Y007996D01*
X014101Y008246D01*
X013601Y008246D02*
X013351Y007996D01*
X013351Y008996D01*
X011538Y008995D02*
X011431Y008888D01*
X011111Y008888D01*
X011111Y009529D01*
X011431Y009529D01*
X011538Y009422D01*
X011538Y009315D01*
X011431Y009209D01*
X011111Y009209D01*
X011431Y009209D02*
X011538Y009102D01*
X011538Y008995D01*
X010895Y008888D02*
X010682Y008888D01*
X010788Y008888D02*
X010788Y009529D01*
X010682Y009529D02*
X010895Y009529D01*
X010464Y009529D02*
X010037Y009529D01*
X010037Y008888D01*
X010464Y008888D01*
X010251Y009209D02*
X010037Y009209D01*
X009819Y009209D02*
X009392Y009209D01*
X009606Y009422D02*
X009606Y008995D01*
X005818Y009241D02*
X005648Y009241D01*
X005818Y009241D02*
X005818Y010901D01*
X005638Y010901D01*
X004518Y010901D02*
X004358Y010901D01*
X004358Y009241D01*
X004528Y009241D01*
X003271Y009246D02*
X003273Y009274D01*
X003279Y009301D01*
X003288Y009327D01*
X003301Y009352D01*
X003318Y009375D01*
X003337Y009395D01*
X003359Y009412D01*
X003383Y009426D01*
X003409Y009436D01*
X003436Y009443D01*
X003464Y009446D01*
X003492Y009445D01*
X003519Y009440D01*
X003546Y009431D01*
X003571Y009419D01*
X003594Y009404D01*
X003615Y009385D01*
X003633Y009364D01*
X003648Y009340D01*
X003659Y009314D01*
X003667Y009288D01*
X003671Y009260D01*
X003671Y009232D01*
X003667Y009204D01*
X003659Y009178D01*
X003648Y009152D01*
X003633Y009128D01*
X003615Y009107D01*
X003594Y009088D01*
X003571Y009073D01*
X003546Y009061D01*
X003519Y009052D01*
X003492Y009047D01*
X003464Y009046D01*
X003436Y009049D01*
X003409Y009056D01*
X003383Y009066D01*
X003359Y009080D01*
X003337Y009097D01*
X003318Y009117D01*
X003301Y009140D01*
X003288Y009165D01*
X003279Y009191D01*
X003273Y009218D01*
X003271Y009246D01*
X001401Y008896D02*
X001401Y008246D01*
X004001Y008246D01*
X004101Y008246D01*
X004101Y012246D01*
X004001Y012246D01*
X001401Y012246D01*
X000451Y012246D01*
X000451Y008246D01*
X001401Y008246D01*
X004001Y008246D02*
X004001Y012246D01*
X001401Y012246D02*
X001401Y011596D01*
X001401Y010896D02*
X001401Y009596D01*
X003271Y011246D02*
X003273Y011274D01*
X003279Y011301D01*
X003288Y011327D01*
X003301Y011352D01*
X003318Y011375D01*
X003337Y011395D01*
X003359Y011412D01*
X003383Y011426D01*
X003409Y011436D01*
X003436Y011443D01*
X003464Y011446D01*
X003492Y011445D01*
X003519Y011440D01*
X003546Y011431D01*
X003571Y011419D01*
X003594Y011404D01*
X003615Y011385D01*
X003633Y011364D01*
X003648Y011340D01*
X003659Y011314D01*
X003667Y011288D01*
X003671Y011260D01*
X003671Y011232D01*
X003667Y011204D01*
X003659Y011178D01*
X003648Y011152D01*
X003633Y011128D01*
X003615Y011107D01*
X003594Y011088D01*
X003571Y011073D01*
X003546Y011061D01*
X003519Y011052D01*
X003492Y011047D01*
X003464Y011046D01*
X003436Y011049D01*
X003409Y011056D01*
X003383Y011066D01*
X003359Y011080D01*
X003337Y011097D01*
X003318Y011117D01*
X003301Y011140D01*
X003288Y011165D01*
X003279Y011191D01*
X003273Y011218D01*
X003271Y011246D01*
X009506Y011471D02*
X009933Y011471D01*
X010150Y011471D02*
X010364Y011471D01*
X010150Y011791D02*
X010150Y011151D01*
X010577Y011151D01*
X010795Y011151D02*
X011008Y011151D01*
X010902Y011151D02*
X010902Y011791D01*
X011008Y011791D02*
X010795Y011791D01*
X010577Y011791D02*
X010150Y011791D01*
X011225Y011791D02*
X011545Y011791D01*
X011652Y011685D01*
X011652Y011578D01*
X011545Y011471D01*
X011225Y011471D01*
X011545Y011471D02*
X011652Y011364D01*
X011652Y011258D01*
X011545Y011151D01*
X011225Y011151D01*
X011225Y011791D01*
X019888Y012246D02*
X019888Y009246D01*
X020638Y009246D01*
X020640Y009285D01*
X020646Y009324D01*
X020655Y009362D01*
X020668Y009399D01*
X020685Y009435D01*
X020705Y009468D01*
X020729Y009500D01*
X020755Y009529D01*
X020784Y009555D01*
X020816Y009579D01*
X020849Y009599D01*
X020885Y009616D01*
X020922Y009629D01*
X020960Y009638D01*
X020999Y009644D01*
X021038Y009646D01*
X021077Y009644D01*
X021116Y009638D01*
X021154Y009629D01*
X021191Y009616D01*
X021227Y009599D01*
X021260Y009579D01*
X021292Y009555D01*
X021321Y009529D01*
X021347Y009500D01*
X021371Y009468D01*
X021391Y009435D01*
X021408Y009399D01*
X021421Y009362D01*
X021430Y009324D01*
X021436Y009285D01*
X021438Y009246D01*
X022188Y009246D01*
X022188Y012246D01*
X019888Y012246D01*
X023038Y011496D02*
X023040Y011540D01*
X023046Y011584D01*
X023056Y011627D01*
X023069Y011669D01*
X023086Y011710D01*
X023107Y011749D01*
X023131Y011786D01*
X023158Y011821D01*
X023188Y011853D01*
X023221Y011883D01*
X023257Y011909D01*
X023294Y011933D01*
X023334Y011952D01*
X023375Y011969D01*
X023418Y011981D01*
X023461Y011990D01*
X023505Y011995D01*
X023549Y011996D01*
X023593Y011993D01*
X023637Y011986D01*
X023680Y011975D01*
X023722Y011961D01*
X023762Y011943D01*
X023801Y011921D01*
X023837Y011897D01*
X023871Y011869D01*
X023903Y011838D01*
X023932Y011804D01*
X023958Y011768D01*
X023980Y011730D01*
X023999Y011690D01*
X024014Y011648D01*
X024026Y011606D01*
X024034Y011562D01*
X024038Y011518D01*
X024038Y011474D01*
X024034Y011430D01*
X024026Y011386D01*
X024014Y011344D01*
X023999Y011302D01*
X023980Y011262D01*
X023958Y011224D01*
X023932Y011188D01*
X023903Y011154D01*
X023871Y011123D01*
X023837Y011095D01*
X023801Y011071D01*
X023762Y011049D01*
X023722Y011031D01*
X023680Y011017D01*
X023637Y011006D01*
X023593Y010999D01*
X023549Y010996D01*
X023505Y010997D01*
X023461Y011002D01*
X023418Y011011D01*
X023375Y011023D01*
X023334Y011040D01*
X023294Y011059D01*
X023257Y011083D01*
X023221Y011109D01*
X023188Y011139D01*
X023158Y011171D01*
X023131Y011206D01*
X023107Y011243D01*
X023086Y011282D01*
X023069Y011323D01*
X023056Y011365D01*
X023046Y011408D01*
X023040Y011452D01*
X023038Y011496D01*
X024063Y010846D02*
X024063Y010646D01*
X024063Y010396D02*
X024063Y010196D01*
X024163Y010296D02*
X023963Y010296D01*
X023813Y010496D02*
X023815Y010554D01*
X023821Y010612D01*
X023831Y010669D01*
X023845Y010725D01*
X023862Y010781D01*
X023883Y010835D01*
X023908Y010887D01*
X023937Y010938D01*
X023969Y010986D01*
X024004Y011032D01*
X024042Y011076D01*
X024083Y011117D01*
X024127Y011155D01*
X024173Y011190D01*
X024221Y011222D01*
X024272Y011251D01*
X024324Y011276D01*
X024378Y011297D01*
X024434Y011314D01*
X024490Y011328D01*
X024547Y011338D01*
X024605Y011344D01*
X024663Y011346D01*
X024721Y011344D01*
X024779Y011338D01*
X024836Y011328D01*
X024892Y011314D01*
X024948Y011297D01*
X025002Y011276D01*
X025054Y011251D01*
X025105Y011222D01*
X025153Y011190D01*
X025199Y011155D01*
X025243Y011117D01*
X025284Y011076D01*
X025322Y011032D01*
X025357Y010986D01*
X025389Y010938D01*
X025418Y010887D01*
X025443Y010835D01*
X025464Y010781D01*
X025481Y010725D01*
X025495Y010669D01*
X025505Y010612D01*
X025511Y010554D01*
X025513Y010496D01*
X025511Y010438D01*
X025505Y010380D01*
X025495Y010323D01*
X025481Y010267D01*
X025464Y010211D01*
X025443Y010157D01*
X025418Y010105D01*
X025389Y010054D01*
X025357Y010006D01*
X025322Y009960D01*
X025284Y009916D01*
X025243Y009875D01*
X025199Y009837D01*
X025153Y009802D01*
X025105Y009770D01*
X025054Y009741D01*
X025002Y009716D01*
X024948Y009695D01*
X024892Y009678D01*
X024836Y009664D01*
X024779Y009654D01*
X024721Y009648D01*
X024663Y009646D01*
X024605Y009648D01*
X024547Y009654D01*
X024490Y009664D01*
X024434Y009678D01*
X024378Y009695D01*
X024324Y009716D01*
X024272Y009741D01*
X024221Y009770D01*
X024173Y009802D01*
X024127Y009837D01*
X024083Y009875D01*
X024042Y009916D01*
X024004Y009960D01*
X023969Y010006D01*
X023937Y010054D01*
X023908Y010105D01*
X023883Y010157D01*
X023862Y010211D01*
X023845Y010267D01*
X023831Y010323D01*
X023821Y010380D01*
X023815Y010438D01*
X023813Y010496D01*
X025613Y010596D02*
X025613Y008396D01*
X025615Y008379D01*
X025619Y008362D01*
X025626Y008346D01*
X025636Y008332D01*
X025649Y008319D01*
X025663Y008309D01*
X025679Y008302D01*
X025696Y008298D01*
X025713Y008296D01*
X029613Y008296D01*
X029630Y008298D01*
X029647Y008302D01*
X029663Y008309D01*
X029677Y008319D01*
X029690Y008332D01*
X029700Y008346D01*
X029707Y008362D01*
X029711Y008379D01*
X029713Y008396D01*
X029713Y010596D01*
X029711Y010613D01*
X029707Y010630D01*
X029700Y010646D01*
X029690Y010660D01*
X029677Y010673D01*
X029663Y010683D01*
X029647Y010690D01*
X029630Y010694D01*
X029613Y010696D01*
X025713Y010696D01*
X025696Y010694D01*
X025679Y010690D01*
X025663Y010683D01*
X025649Y010673D01*
X025636Y010660D01*
X025626Y010646D01*
X025619Y010630D01*
X025615Y010613D01*
X025613Y010596D01*
X026288Y011496D02*
X026290Y011550D01*
X026296Y011604D01*
X026306Y011657D01*
X026319Y011710D01*
X026336Y011761D01*
X026357Y011811D01*
X026382Y011859D01*
X026410Y011906D01*
X026441Y011950D01*
X026475Y011992D01*
X026512Y012031D01*
X026552Y012068D01*
X026595Y012101D01*
X026640Y012132D01*
X026687Y012159D01*
X026735Y012182D01*
X026786Y012202D01*
X026837Y012219D01*
X026890Y012231D01*
X026943Y012240D01*
X026997Y012245D01*
X027052Y012246D01*
X027106Y012243D01*
X027159Y012236D01*
X027212Y012225D01*
X027265Y012211D01*
X027316Y012193D01*
X027365Y012171D01*
X027413Y012146D01*
X027459Y012117D01*
X027503Y012085D01*
X027544Y012050D01*
X027582Y012012D01*
X027618Y011971D01*
X027651Y011928D01*
X027681Y011883D01*
X027707Y011835D01*
X027730Y011786D01*
X027749Y011735D01*
X027764Y011684D01*
X027776Y011631D01*
X027784Y011577D01*
X027788Y011523D01*
X027788Y011469D01*
X027784Y011415D01*
X027776Y011361D01*
X027764Y011308D01*
X027749Y011257D01*
X027730Y011206D01*
X027707Y011157D01*
X027681Y011109D01*
X027651Y011064D01*
X027618Y011021D01*
X027582Y010980D01*
X027544Y010942D01*
X027503Y010907D01*
X027459Y010875D01*
X027413Y010846D01*
X027365Y010821D01*
X027316Y010799D01*
X027265Y010781D01*
X027212Y010767D01*
X027159Y010756D01*
X027106Y010749D01*
X027052Y010746D01*
X026997Y010747D01*
X026943Y010752D01*
X026890Y010761D01*
X026837Y010773D01*
X026786Y010790D01*
X026735Y010810D01*
X026687Y010833D01*
X026640Y010860D01*
X026595Y010891D01*
X026552Y010924D01*
X026512Y010961D01*
X026475Y011000D01*
X026441Y011042D01*
X026410Y011086D01*
X026382Y011133D01*
X026357Y011181D01*
X026336Y011231D01*
X026319Y011282D01*
X026306Y011335D01*
X026296Y011388D01*
X026290Y011442D01*
X026288Y011496D01*
X028788Y011496D02*
X028790Y011540D01*
X028796Y011584D01*
X028806Y011627D01*
X028819Y011669D01*
X028836Y011710D01*
X028857Y011749D01*
X028881Y011786D01*
X028908Y011821D01*
X028938Y011853D01*
X028971Y011883D01*
X029007Y011909D01*
X029044Y011933D01*
X029084Y011952D01*
X029125Y011969D01*
X029168Y011981D01*
X029211Y011990D01*
X029255Y011995D01*
X029299Y011996D01*
X029343Y011993D01*
X029387Y011986D01*
X029430Y011975D01*
X029472Y011961D01*
X029512Y011943D01*
X029551Y011921D01*
X029587Y011897D01*
X029621Y011869D01*
X029653Y011838D01*
X029682Y011804D01*
X029708Y011768D01*
X029730Y011730D01*
X029749Y011690D01*
X029764Y011648D01*
X029776Y011606D01*
X029784Y011562D01*
X029788Y011518D01*
X029788Y011474D01*
X029784Y011430D01*
X029776Y011386D01*
X029764Y011344D01*
X029749Y011302D01*
X029730Y011262D01*
X029708Y011224D01*
X029682Y011188D01*
X029653Y011154D01*
X029621Y011123D01*
X029587Y011095D01*
X029551Y011071D01*
X029512Y011049D01*
X029472Y011031D01*
X029430Y011017D01*
X029387Y011006D01*
X029343Y010999D01*
X029299Y010996D01*
X029255Y010997D01*
X029211Y011002D01*
X029168Y011011D01*
X029125Y011023D01*
X029084Y011040D01*
X029044Y011059D01*
X029007Y011083D01*
X028971Y011109D01*
X028938Y011139D01*
X028908Y011171D01*
X028881Y011206D01*
X028857Y011243D01*
X028836Y011282D01*
X028819Y011323D01*
X028806Y011365D01*
X028796Y011408D01*
X028790Y011452D01*
X028788Y011496D01*
X030296Y011301D02*
X030298Y011329D01*
X030304Y011356D01*
X030313Y011382D01*
X030326Y011407D01*
X030343Y011430D01*
X030362Y011450D01*
X030384Y011467D01*
X030408Y011481D01*
X030434Y011491D01*
X030461Y011498D01*
X030489Y011501D01*
X030517Y011500D01*
X030544Y011495D01*
X030571Y011486D01*
X030596Y011474D01*
X030619Y011459D01*
X030640Y011440D01*
X030658Y011419D01*
X030673Y011395D01*
X030684Y011369D01*
X030692Y011343D01*
X030696Y011315D01*
X030696Y011287D01*
X030692Y011259D01*
X030684Y011233D01*
X030673Y011207D01*
X030658Y011183D01*
X030640Y011162D01*
X030619Y011143D01*
X030596Y011128D01*
X030571Y011116D01*
X030544Y011107D01*
X030517Y011102D01*
X030489Y011101D01*
X030461Y011104D01*
X030434Y011111D01*
X030408Y011121D01*
X030384Y011135D01*
X030362Y011152D01*
X030343Y011172D01*
X030326Y011195D01*
X030313Y011220D01*
X030304Y011246D01*
X030298Y011273D01*
X030296Y011301D01*
X029966Y012301D02*
X032566Y012301D01*
X033516Y012301D01*
X033516Y006301D01*
X032566Y006301D01*
X032566Y006901D01*
X032566Y006301D02*
X029966Y006301D01*
X029866Y006301D01*
X029866Y012301D01*
X029966Y012301D01*
X029966Y006301D01*
X029985Y006136D02*
X032585Y006136D01*
X033535Y006136D01*
X033535Y000136D01*
X032585Y000136D01*
X032585Y000736D01*
X032585Y000136D02*
X029985Y000136D01*
X029885Y000136D01*
X029885Y006136D01*
X029985Y006136D01*
X029985Y000136D01*
X029651Y000333D02*
X029651Y002533D01*
X029649Y002550D01*
X029645Y002567D01*
X029638Y002583D01*
X029628Y002597D01*
X029615Y002610D01*
X029601Y002620D01*
X029585Y002627D01*
X029568Y002631D01*
X029551Y002633D01*
X025651Y002633D01*
X025634Y002631D01*
X025617Y002627D01*
X025601Y002620D01*
X025587Y002610D01*
X025574Y002597D01*
X025564Y002583D01*
X025557Y002567D01*
X025553Y002550D01*
X025551Y002533D01*
X025551Y000333D01*
X025553Y000316D01*
X025557Y000299D01*
X025564Y000283D01*
X025574Y000269D01*
X025587Y000256D01*
X025601Y000246D01*
X025617Y000239D01*
X025634Y000235D01*
X025651Y000233D01*
X029551Y000233D01*
X029568Y000235D01*
X029585Y000239D01*
X029601Y000246D01*
X029615Y000256D01*
X029628Y000269D01*
X029638Y000283D01*
X029645Y000299D01*
X029649Y000316D01*
X029651Y000333D01*
X030315Y001136D02*
X030317Y001164D01*
X030323Y001191D01*
X030332Y001217D01*
X030345Y001242D01*
X030362Y001265D01*
X030381Y001285D01*
X030403Y001302D01*
X030427Y001316D01*
X030453Y001326D01*
X030480Y001333D01*
X030508Y001336D01*
X030536Y001335D01*
X030563Y001330D01*
X030590Y001321D01*
X030615Y001309D01*
X030638Y001294D01*
X030659Y001275D01*
X030677Y001254D01*
X030692Y001230D01*
X030703Y001204D01*
X030711Y001178D01*
X030715Y001150D01*
X030715Y001122D01*
X030711Y001094D01*
X030703Y001068D01*
X030692Y001042D01*
X030677Y001018D01*
X030659Y000997D01*
X030638Y000978D01*
X030615Y000963D01*
X030590Y000951D01*
X030563Y000942D01*
X030536Y000937D01*
X030508Y000936D01*
X030480Y000939D01*
X030453Y000946D01*
X030427Y000956D01*
X030403Y000970D01*
X030381Y000987D01*
X030362Y001007D01*
X030345Y001030D01*
X030332Y001055D01*
X030323Y001081D01*
X030317Y001108D01*
X030315Y001136D01*
X028651Y001433D02*
X027101Y001433D01*
X026751Y001433D02*
X026551Y001433D01*
X023438Y001996D02*
X023440Y002054D01*
X023446Y002112D01*
X023456Y002169D01*
X023470Y002225D01*
X023487Y002281D01*
X023508Y002335D01*
X023533Y002387D01*
X023562Y002438D01*
X023594Y002486D01*
X023629Y002532D01*
X023667Y002576D01*
X023708Y002617D01*
X023752Y002655D01*
X023798Y002690D01*
X023846Y002722D01*
X023897Y002751D01*
X023949Y002776D01*
X024003Y002797D01*
X024059Y002814D01*
X024115Y002828D01*
X024172Y002838D01*
X024230Y002844D01*
X024288Y002846D01*
X024346Y002844D01*
X024404Y002838D01*
X024461Y002828D01*
X024517Y002814D01*
X024573Y002797D01*
X024627Y002776D01*
X024679Y002751D01*
X024730Y002722D01*
X024778Y002690D01*
X024824Y002655D01*
X024868Y002617D01*
X024909Y002576D01*
X024947Y002532D01*
X024982Y002486D01*
X025014Y002438D01*
X025043Y002387D01*
X025068Y002335D01*
X025089Y002281D01*
X025106Y002225D01*
X025120Y002169D01*
X025130Y002112D01*
X025136Y002054D01*
X025138Y001996D01*
X025136Y001938D01*
X025130Y001880D01*
X025120Y001823D01*
X025106Y001767D01*
X025089Y001711D01*
X025068Y001657D01*
X025043Y001605D01*
X025014Y001554D01*
X024982Y001506D01*
X024947Y001460D01*
X024909Y001416D01*
X024868Y001375D01*
X024824Y001337D01*
X024778Y001302D01*
X024730Y001270D01*
X024679Y001241D01*
X024627Y001216D01*
X024573Y001195D01*
X024517Y001178D01*
X024461Y001164D01*
X024404Y001154D01*
X024346Y001148D01*
X024288Y001146D01*
X024230Y001148D01*
X024172Y001154D01*
X024115Y001164D01*
X024059Y001178D01*
X024003Y001195D01*
X023949Y001216D01*
X023897Y001241D01*
X023846Y001270D01*
X023798Y001302D01*
X023752Y001337D01*
X023708Y001375D01*
X023667Y001416D01*
X023629Y001460D01*
X023594Y001506D01*
X023562Y001554D01*
X023533Y001605D01*
X023508Y001657D01*
X023487Y001711D01*
X023470Y001767D01*
X023456Y001823D01*
X023446Y001880D01*
X023440Y001938D01*
X023438Y001996D01*
X023588Y001796D02*
X023788Y001796D01*
X023688Y001696D02*
X023688Y001896D01*
X023688Y002146D02*
X023688Y002346D01*
X022188Y002808D02*
X021438Y002808D01*
X021436Y002847D01*
X021430Y002886D01*
X021421Y002924D01*
X021408Y002961D01*
X021391Y002997D01*
X021371Y003030D01*
X021347Y003062D01*
X021321Y003091D01*
X021292Y003117D01*
X021260Y003141D01*
X021227Y003161D01*
X021191Y003178D01*
X021154Y003191D01*
X021116Y003200D01*
X021077Y003206D01*
X021038Y003208D01*
X020999Y003206D01*
X020960Y003200D01*
X020922Y003191D01*
X020885Y003178D01*
X020849Y003161D01*
X020816Y003141D01*
X020784Y003117D01*
X020755Y003091D01*
X020729Y003062D01*
X020705Y003030D01*
X020685Y002997D01*
X020668Y002961D01*
X020655Y002924D01*
X020646Y002886D01*
X020640Y002847D01*
X020638Y002808D01*
X019888Y002808D01*
X019888Y005808D01*
X022188Y005808D01*
X022188Y002808D01*
X023351Y003433D02*
X023353Y003477D01*
X023359Y003521D01*
X023369Y003564D01*
X023382Y003606D01*
X023399Y003647D01*
X023420Y003686D01*
X023444Y003723D01*
X023471Y003758D01*
X023501Y003790D01*
X023534Y003820D01*
X023570Y003846D01*
X023607Y003870D01*
X023647Y003889D01*
X023688Y003906D01*
X023731Y003918D01*
X023774Y003927D01*
X023818Y003932D01*
X023862Y003933D01*
X023906Y003930D01*
X023950Y003923D01*
X023993Y003912D01*
X024035Y003898D01*
X024075Y003880D01*
X024114Y003858D01*
X024150Y003834D01*
X024184Y003806D01*
X024216Y003775D01*
X024245Y003741D01*
X024271Y003705D01*
X024293Y003667D01*
X024312Y003627D01*
X024327Y003585D01*
X024339Y003543D01*
X024347Y003499D01*
X024351Y003455D01*
X024351Y003411D01*
X024347Y003367D01*
X024339Y003323D01*
X024327Y003281D01*
X024312Y003239D01*
X024293Y003199D01*
X024271Y003161D01*
X024245Y003125D01*
X024216Y003091D01*
X024184Y003060D01*
X024150Y003032D01*
X024114Y003008D01*
X024075Y002986D01*
X024035Y002968D01*
X023993Y002954D01*
X023950Y002943D01*
X023906Y002936D01*
X023862Y002933D01*
X023818Y002934D01*
X023774Y002939D01*
X023731Y002948D01*
X023688Y002960D01*
X023647Y002977D01*
X023607Y002996D01*
X023570Y003020D01*
X023534Y003046D01*
X023501Y003076D01*
X023471Y003108D01*
X023444Y003143D01*
X023420Y003180D01*
X023399Y003219D01*
X023382Y003260D01*
X023369Y003302D01*
X023359Y003345D01*
X023353Y003389D01*
X023351Y003433D01*
X025651Y004358D02*
X029551Y004358D01*
X029568Y004360D01*
X029585Y004364D01*
X029601Y004371D01*
X029615Y004381D01*
X029628Y004394D01*
X029638Y004408D01*
X029645Y004424D01*
X029649Y004441D01*
X029651Y004458D01*
X029651Y006658D01*
X029649Y006675D01*
X029645Y006692D01*
X029638Y006708D01*
X029628Y006722D01*
X029615Y006735D01*
X029601Y006745D01*
X029585Y006752D01*
X029568Y006756D01*
X029551Y006758D01*
X025651Y006758D01*
X025634Y006756D01*
X025617Y006752D01*
X025601Y006745D01*
X025587Y006735D01*
X025574Y006722D01*
X025564Y006708D01*
X025557Y006692D01*
X025553Y006675D01*
X025551Y006658D01*
X025551Y004458D01*
X025553Y004441D01*
X025557Y004424D01*
X025564Y004408D01*
X025574Y004394D01*
X025587Y004381D01*
X025601Y004371D01*
X025617Y004364D01*
X025634Y004360D01*
X025651Y004358D01*
X023351Y004933D02*
X023353Y004987D01*
X023359Y005041D01*
X023369Y005094D01*
X023382Y005147D01*
X023399Y005198D01*
X023420Y005248D01*
X023445Y005296D01*
X023473Y005343D01*
X023504Y005387D01*
X023538Y005429D01*
X023575Y005468D01*
X023615Y005505D01*
X023658Y005538D01*
X023703Y005569D01*
X023750Y005596D01*
X023798Y005619D01*
X023849Y005639D01*
X023900Y005656D01*
X023953Y005668D01*
X024006Y005677D01*
X024060Y005682D01*
X024115Y005683D01*
X024169Y005680D01*
X024222Y005673D01*
X024275Y005662D01*
X024328Y005648D01*
X024379Y005630D01*
X024428Y005608D01*
X024476Y005583D01*
X024522Y005554D01*
X024566Y005522D01*
X024607Y005487D01*
X024645Y005449D01*
X024681Y005408D01*
X024714Y005365D01*
X024744Y005320D01*
X024770Y005272D01*
X024793Y005223D01*
X024812Y005172D01*
X024827Y005121D01*
X024839Y005068D01*
X024847Y005014D01*
X024851Y004960D01*
X024851Y004906D01*
X024847Y004852D01*
X024839Y004798D01*
X024827Y004745D01*
X024812Y004694D01*
X024793Y004643D01*
X024770Y004594D01*
X024744Y004546D01*
X024714Y004501D01*
X024681Y004458D01*
X024645Y004417D01*
X024607Y004379D01*
X024566Y004344D01*
X024522Y004312D01*
X024476Y004283D01*
X024428Y004258D01*
X024379Y004236D01*
X024328Y004218D01*
X024275Y004204D01*
X024222Y004193D01*
X024169Y004186D01*
X024115Y004183D01*
X024060Y004184D01*
X024006Y004189D01*
X023953Y004198D01*
X023900Y004210D01*
X023849Y004227D01*
X023798Y004247D01*
X023750Y004270D01*
X023703Y004297D01*
X023658Y004328D01*
X023615Y004361D01*
X023575Y004398D01*
X023538Y004437D01*
X023504Y004479D01*
X023473Y004523D01*
X023445Y004570D01*
X023420Y004618D01*
X023399Y004668D01*
X023382Y004719D01*
X023369Y004772D01*
X023359Y004825D01*
X023353Y004879D01*
X023351Y004933D01*
X022188Y006058D02*
X021438Y006058D01*
X021436Y006097D01*
X021430Y006136D01*
X021421Y006174D01*
X021408Y006211D01*
X021391Y006247D01*
X021371Y006280D01*
X021347Y006312D01*
X021321Y006341D01*
X021292Y006367D01*
X021260Y006391D01*
X021227Y006411D01*
X021191Y006428D01*
X021154Y006441D01*
X021116Y006450D01*
X021077Y006456D01*
X021038Y006458D01*
X020999Y006456D01*
X020960Y006450D01*
X020922Y006441D01*
X020885Y006428D01*
X020849Y006411D01*
X020816Y006391D01*
X020784Y006367D01*
X020755Y006341D01*
X020729Y006312D01*
X020705Y006280D01*
X020685Y006247D01*
X020668Y006211D01*
X020655Y006174D01*
X020646Y006136D01*
X020640Y006097D01*
X020638Y006058D01*
X019888Y006058D01*
X019888Y009058D01*
X022188Y009058D01*
X022188Y006058D01*
X023901Y006358D02*
X024101Y006358D01*
X024001Y006258D02*
X024001Y006458D01*
X024001Y006708D02*
X024001Y006908D01*
X023751Y006558D02*
X023753Y006616D01*
X023759Y006674D01*
X023769Y006731D01*
X023783Y006787D01*
X023800Y006843D01*
X023821Y006897D01*
X023846Y006949D01*
X023875Y007000D01*
X023907Y007048D01*
X023942Y007094D01*
X023980Y007138D01*
X024021Y007179D01*
X024065Y007217D01*
X024111Y007252D01*
X024159Y007284D01*
X024210Y007313D01*
X024262Y007338D01*
X024316Y007359D01*
X024372Y007376D01*
X024428Y007390D01*
X024485Y007400D01*
X024543Y007406D01*
X024601Y007408D01*
X024659Y007406D01*
X024717Y007400D01*
X024774Y007390D01*
X024830Y007376D01*
X024886Y007359D01*
X024940Y007338D01*
X024992Y007313D01*
X025043Y007284D01*
X025091Y007252D01*
X025137Y007217D01*
X025181Y007179D01*
X025222Y007138D01*
X025260Y007094D01*
X025295Y007048D01*
X025327Y007000D01*
X025356Y006949D01*
X025381Y006897D01*
X025402Y006843D01*
X025419Y006787D01*
X025433Y006731D01*
X025443Y006674D01*
X025449Y006616D01*
X025451Y006558D01*
X025449Y006500D01*
X025443Y006442D01*
X025433Y006385D01*
X025419Y006329D01*
X025402Y006273D01*
X025381Y006219D01*
X025356Y006167D01*
X025327Y006116D01*
X025295Y006068D01*
X025260Y006022D01*
X025222Y005978D01*
X025181Y005937D01*
X025137Y005899D01*
X025091Y005864D01*
X025043Y005832D01*
X024992Y005803D01*
X024940Y005778D01*
X024886Y005757D01*
X024830Y005740D01*
X024774Y005726D01*
X024717Y005716D01*
X024659Y005710D01*
X024601Y005708D01*
X024543Y005710D01*
X024485Y005716D01*
X024428Y005726D01*
X024372Y005740D01*
X024316Y005757D01*
X024262Y005778D01*
X024210Y005803D01*
X024159Y005832D01*
X024111Y005864D01*
X024065Y005899D01*
X024021Y005937D01*
X023980Y005978D01*
X023942Y006022D01*
X023907Y006068D01*
X023875Y006116D01*
X023846Y006167D01*
X023821Y006219D01*
X023800Y006273D01*
X023783Y006329D01*
X023769Y006385D01*
X023759Y006442D01*
X023753Y006500D01*
X023751Y006558D01*
X022976Y007558D02*
X022978Y007602D01*
X022984Y007646D01*
X022994Y007689D01*
X023007Y007731D01*
X023024Y007772D01*
X023045Y007811D01*
X023069Y007848D01*
X023096Y007883D01*
X023126Y007915D01*
X023159Y007945D01*
X023195Y007971D01*
X023232Y007995D01*
X023272Y008014D01*
X023313Y008031D01*
X023356Y008043D01*
X023399Y008052D01*
X023443Y008057D01*
X023487Y008058D01*
X023531Y008055D01*
X023575Y008048D01*
X023618Y008037D01*
X023660Y008023D01*
X023700Y008005D01*
X023739Y007983D01*
X023775Y007959D01*
X023809Y007931D01*
X023841Y007900D01*
X023870Y007866D01*
X023896Y007830D01*
X023918Y007792D01*
X023937Y007752D01*
X023952Y007710D01*
X023964Y007668D01*
X023972Y007624D01*
X023976Y007580D01*
X023976Y007536D01*
X023972Y007492D01*
X023964Y007448D01*
X023952Y007406D01*
X023937Y007364D01*
X023918Y007324D01*
X023896Y007286D01*
X023870Y007250D01*
X023841Y007216D01*
X023809Y007185D01*
X023775Y007157D01*
X023739Y007133D01*
X023700Y007111D01*
X023660Y007093D01*
X023618Y007079D01*
X023575Y007068D01*
X023531Y007061D01*
X023487Y007058D01*
X023443Y007059D01*
X023399Y007064D01*
X023356Y007073D01*
X023313Y007085D01*
X023272Y007102D01*
X023232Y007121D01*
X023195Y007145D01*
X023159Y007171D01*
X023126Y007201D01*
X023096Y007233D01*
X023069Y007268D01*
X023045Y007305D01*
X023024Y007344D01*
X023007Y007385D01*
X022994Y007427D01*
X022984Y007470D01*
X022978Y007514D01*
X022976Y007558D01*
X026226Y007558D02*
X026228Y007612D01*
X026234Y007666D01*
X026244Y007719D01*
X026257Y007772D01*
X026274Y007823D01*
X026295Y007873D01*
X026320Y007921D01*
X026348Y007968D01*
X026379Y008012D01*
X026413Y008054D01*
X026450Y008093D01*
X026490Y008130D01*
X026533Y008163D01*
X026578Y008194D01*
X026625Y008221D01*
X026673Y008244D01*
X026724Y008264D01*
X026775Y008281D01*
X026828Y008293D01*
X026881Y008302D01*
X026935Y008307D01*
X026990Y008308D01*
X027044Y008305D01*
X027097Y008298D01*
X027150Y008287D01*
X027203Y008273D01*
X027254Y008255D01*
X027303Y008233D01*
X027351Y008208D01*
X027397Y008179D01*
X027441Y008147D01*
X027482Y008112D01*
X027520Y008074D01*
X027556Y008033D01*
X027589Y007990D01*
X027619Y007945D01*
X027645Y007897D01*
X027668Y007848D01*
X027687Y007797D01*
X027702Y007746D01*
X027714Y007693D01*
X027722Y007639D01*
X027726Y007585D01*
X027726Y007531D01*
X027722Y007477D01*
X027714Y007423D01*
X027702Y007370D01*
X027687Y007319D01*
X027668Y007268D01*
X027645Y007219D01*
X027619Y007171D01*
X027589Y007126D01*
X027556Y007083D01*
X027520Y007042D01*
X027482Y007004D01*
X027441Y006969D01*
X027397Y006937D01*
X027351Y006908D01*
X027303Y006883D01*
X027254Y006861D01*
X027203Y006843D01*
X027150Y006829D01*
X027097Y006818D01*
X027044Y006811D01*
X026990Y006808D01*
X026935Y006809D01*
X026881Y006814D01*
X026828Y006823D01*
X026775Y006835D01*
X026724Y006852D01*
X026673Y006872D01*
X026625Y006895D01*
X026578Y006922D01*
X026533Y006953D01*
X026490Y006986D01*
X026450Y007023D01*
X026413Y007062D01*
X026379Y007104D01*
X026348Y007148D01*
X026320Y007195D01*
X026295Y007243D01*
X026274Y007293D01*
X026257Y007344D01*
X026244Y007397D01*
X026234Y007450D01*
X026228Y007504D01*
X026226Y007558D01*
X028726Y007558D02*
X028728Y007602D01*
X028734Y007646D01*
X028744Y007689D01*
X028757Y007731D01*
X028774Y007772D01*
X028795Y007811D01*
X028819Y007848D01*
X028846Y007883D01*
X028876Y007915D01*
X028909Y007945D01*
X028945Y007971D01*
X028982Y007995D01*
X029022Y008014D01*
X029063Y008031D01*
X029106Y008043D01*
X029149Y008052D01*
X029193Y008057D01*
X029237Y008058D01*
X029281Y008055D01*
X029325Y008048D01*
X029368Y008037D01*
X029410Y008023D01*
X029450Y008005D01*
X029489Y007983D01*
X029525Y007959D01*
X029559Y007931D01*
X029591Y007900D01*
X029620Y007866D01*
X029646Y007830D01*
X029668Y007792D01*
X029687Y007752D01*
X029702Y007710D01*
X029714Y007668D01*
X029722Y007624D01*
X029726Y007580D01*
X029726Y007536D01*
X029722Y007492D01*
X029714Y007448D01*
X029702Y007406D01*
X029687Y007364D01*
X029668Y007324D01*
X029646Y007286D01*
X029620Y007250D01*
X029591Y007216D01*
X029559Y007185D01*
X029525Y007157D01*
X029489Y007133D01*
X029450Y007111D01*
X029410Y007093D01*
X029368Y007079D01*
X029325Y007068D01*
X029281Y007061D01*
X029237Y007058D01*
X029193Y007059D01*
X029149Y007064D01*
X029106Y007073D01*
X029063Y007085D01*
X029022Y007102D01*
X028982Y007121D01*
X028945Y007145D01*
X028909Y007171D01*
X028876Y007201D01*
X028846Y007233D01*
X028819Y007268D01*
X028795Y007305D01*
X028774Y007344D01*
X028757Y007385D01*
X028744Y007427D01*
X028734Y007470D01*
X028728Y007514D01*
X028726Y007558D01*
X030296Y007301D02*
X030298Y007329D01*
X030304Y007356D01*
X030313Y007382D01*
X030326Y007407D01*
X030343Y007430D01*
X030362Y007450D01*
X030384Y007467D01*
X030408Y007481D01*
X030434Y007491D01*
X030461Y007498D01*
X030489Y007501D01*
X030517Y007500D01*
X030544Y007495D01*
X030571Y007486D01*
X030596Y007474D01*
X030619Y007459D01*
X030640Y007440D01*
X030658Y007419D01*
X030673Y007395D01*
X030684Y007369D01*
X030692Y007343D01*
X030696Y007315D01*
X030696Y007287D01*
X030692Y007259D01*
X030684Y007233D01*
X030673Y007207D01*
X030658Y007183D01*
X030640Y007162D01*
X030619Y007143D01*
X030596Y007128D01*
X030571Y007116D01*
X030544Y007107D01*
X030517Y007102D01*
X030489Y007101D01*
X030461Y007104D01*
X030434Y007111D01*
X030408Y007121D01*
X030384Y007135D01*
X030362Y007152D01*
X030343Y007172D01*
X030326Y007195D01*
X030313Y007220D01*
X030304Y007246D01*
X030298Y007273D01*
X030296Y007301D01*
X032566Y007701D02*
X032566Y008901D01*
X030296Y009301D02*
X030298Y009329D01*
X030304Y009356D01*
X030313Y009382D01*
X030326Y009407D01*
X030343Y009430D01*
X030362Y009450D01*
X030384Y009467D01*
X030408Y009481D01*
X030434Y009491D01*
X030461Y009498D01*
X030489Y009501D01*
X030517Y009500D01*
X030544Y009495D01*
X030571Y009486D01*
X030596Y009474D01*
X030619Y009459D01*
X030640Y009440D01*
X030658Y009419D01*
X030673Y009395D01*
X030684Y009369D01*
X030692Y009343D01*
X030696Y009315D01*
X030696Y009287D01*
X030692Y009259D01*
X030684Y009233D01*
X030673Y009207D01*
X030658Y009183D01*
X030640Y009162D01*
X030619Y009143D01*
X030596Y009128D01*
X030571Y009116D01*
X030544Y009107D01*
X030517Y009102D01*
X030489Y009101D01*
X030461Y009104D01*
X030434Y009111D01*
X030408Y009121D01*
X030384Y009135D01*
X030362Y009152D01*
X030343Y009172D01*
X030326Y009195D01*
X030313Y009220D01*
X030304Y009246D01*
X030298Y009273D01*
X030296Y009301D01*
X028713Y009496D02*
X027163Y009496D01*
X026813Y009496D02*
X026613Y009496D01*
X022788Y009246D02*
X022790Y009300D01*
X022796Y009354D01*
X022806Y009407D01*
X022819Y009460D01*
X022836Y009511D01*
X022857Y009561D01*
X022882Y009609D01*
X022910Y009656D01*
X022941Y009700D01*
X022975Y009742D01*
X023012Y009781D01*
X023052Y009818D01*
X023095Y009851D01*
X023140Y009882D01*
X023187Y009909D01*
X023235Y009932D01*
X023286Y009952D01*
X023337Y009969D01*
X023390Y009981D01*
X023443Y009990D01*
X023497Y009995D01*
X023552Y009996D01*
X023606Y009993D01*
X023659Y009986D01*
X023712Y009975D01*
X023765Y009961D01*
X023816Y009943D01*
X023865Y009921D01*
X023913Y009896D01*
X023959Y009867D01*
X024003Y009835D01*
X024044Y009800D01*
X024082Y009762D01*
X024118Y009721D01*
X024151Y009678D01*
X024181Y009633D01*
X024207Y009585D01*
X024230Y009536D01*
X024249Y009485D01*
X024264Y009434D01*
X024276Y009381D01*
X024284Y009327D01*
X024288Y009273D01*
X024288Y009219D01*
X024284Y009165D01*
X024276Y009111D01*
X024264Y009058D01*
X024249Y009007D01*
X024230Y008956D01*
X024207Y008907D01*
X024181Y008859D01*
X024151Y008814D01*
X024118Y008771D01*
X024082Y008730D01*
X024044Y008692D01*
X024003Y008657D01*
X023959Y008625D01*
X023913Y008596D01*
X023865Y008571D01*
X023816Y008549D01*
X023765Y008531D01*
X023712Y008517D01*
X023659Y008506D01*
X023606Y008499D01*
X023552Y008496D01*
X023497Y008497D01*
X023443Y008502D01*
X023390Y008511D01*
X023337Y008523D01*
X023286Y008540D01*
X023235Y008560D01*
X023187Y008583D01*
X023140Y008610D01*
X023095Y008641D01*
X023052Y008674D01*
X023012Y008711D01*
X022975Y008750D01*
X022941Y008792D01*
X022910Y008836D01*
X022882Y008883D01*
X022857Y008931D01*
X022836Y008981D01*
X022819Y009032D01*
X022806Y009085D01*
X022796Y009138D01*
X022790Y009192D01*
X022788Y009246D01*
X026551Y005558D02*
X026751Y005558D01*
X027101Y005558D02*
X028651Y005558D01*
X030315Y005136D02*
X030317Y005164D01*
X030323Y005191D01*
X030332Y005217D01*
X030345Y005242D01*
X030362Y005265D01*
X030381Y005285D01*
X030403Y005302D01*
X030427Y005316D01*
X030453Y005326D01*
X030480Y005333D01*
X030508Y005336D01*
X030536Y005335D01*
X030563Y005330D01*
X030590Y005321D01*
X030615Y005309D01*
X030638Y005294D01*
X030659Y005275D01*
X030677Y005254D01*
X030692Y005230D01*
X030703Y005204D01*
X030711Y005178D01*
X030715Y005150D01*
X030715Y005122D01*
X030711Y005094D01*
X030703Y005068D01*
X030692Y005042D01*
X030677Y005018D01*
X030659Y004997D01*
X030638Y004978D01*
X030615Y004963D01*
X030590Y004951D01*
X030563Y004942D01*
X030536Y004937D01*
X030508Y004936D01*
X030480Y004939D01*
X030453Y004946D01*
X030427Y004956D01*
X030403Y004970D01*
X030381Y004987D01*
X030362Y005007D01*
X030345Y005030D01*
X030332Y005055D01*
X030323Y005081D01*
X030317Y005108D01*
X030315Y005136D01*
X032585Y004736D02*
X032585Y003536D01*
X030315Y003136D02*
X030317Y003164D01*
X030323Y003191D01*
X030332Y003217D01*
X030345Y003242D01*
X030362Y003265D01*
X030381Y003285D01*
X030403Y003302D01*
X030427Y003316D01*
X030453Y003326D01*
X030480Y003333D01*
X030508Y003336D01*
X030536Y003335D01*
X030563Y003330D01*
X030590Y003321D01*
X030615Y003309D01*
X030638Y003294D01*
X030659Y003275D01*
X030677Y003254D01*
X030692Y003230D01*
X030703Y003204D01*
X030711Y003178D01*
X030715Y003150D01*
X030715Y003122D01*
X030711Y003094D01*
X030703Y003068D01*
X030692Y003042D01*
X030677Y003018D01*
X030659Y002997D01*
X030638Y002978D01*
X030615Y002963D01*
X030590Y002951D01*
X030563Y002942D01*
X030536Y002937D01*
X030508Y002936D01*
X030480Y002939D01*
X030453Y002946D01*
X030427Y002956D01*
X030403Y002970D01*
X030381Y002987D01*
X030362Y003007D01*
X030345Y003030D01*
X030332Y003055D01*
X030323Y003081D01*
X030317Y003108D01*
X030315Y003136D01*
X028538Y003433D02*
X028540Y003477D01*
X028546Y003521D01*
X028556Y003564D01*
X028569Y003606D01*
X028586Y003647D01*
X028607Y003686D01*
X028631Y003723D01*
X028658Y003758D01*
X028688Y003790D01*
X028721Y003820D01*
X028757Y003846D01*
X028794Y003870D01*
X028834Y003889D01*
X028875Y003906D01*
X028918Y003918D01*
X028961Y003927D01*
X029005Y003932D01*
X029049Y003933D01*
X029093Y003930D01*
X029137Y003923D01*
X029180Y003912D01*
X029222Y003898D01*
X029262Y003880D01*
X029301Y003858D01*
X029337Y003834D01*
X029371Y003806D01*
X029403Y003775D01*
X029432Y003741D01*
X029458Y003705D01*
X029480Y003667D01*
X029499Y003627D01*
X029514Y003585D01*
X029526Y003543D01*
X029534Y003499D01*
X029538Y003455D01*
X029538Y003411D01*
X029534Y003367D01*
X029526Y003323D01*
X029514Y003281D01*
X029499Y003239D01*
X029480Y003199D01*
X029458Y003161D01*
X029432Y003125D01*
X029403Y003091D01*
X029371Y003060D01*
X029337Y003032D01*
X029301Y003008D01*
X029262Y002986D01*
X029222Y002968D01*
X029180Y002954D01*
X029137Y002943D01*
X029093Y002936D01*
X029049Y002933D01*
X029005Y002934D01*
X028961Y002939D01*
X028918Y002948D01*
X028875Y002960D01*
X028834Y002977D01*
X028794Y002996D01*
X028757Y003020D01*
X028721Y003046D01*
X028688Y003076D01*
X028658Y003108D01*
X028631Y003143D01*
X028607Y003180D01*
X028586Y003219D01*
X028569Y003260D01*
X028556Y003302D01*
X028546Y003345D01*
X028540Y003389D01*
X028538Y003433D01*
X026226Y003433D02*
X026228Y003487D01*
X026234Y003541D01*
X026244Y003594D01*
X026257Y003647D01*
X026274Y003698D01*
X026295Y003748D01*
X026320Y003796D01*
X026348Y003843D01*
X026379Y003887D01*
X026413Y003929D01*
X026450Y003968D01*
X026490Y004005D01*
X026533Y004038D01*
X026578Y004069D01*
X026625Y004096D01*
X026673Y004119D01*
X026724Y004139D01*
X026775Y004156D01*
X026828Y004168D01*
X026881Y004177D01*
X026935Y004182D01*
X026990Y004183D01*
X027044Y004180D01*
X027097Y004173D01*
X027150Y004162D01*
X027203Y004148D01*
X027254Y004130D01*
X027303Y004108D01*
X027351Y004083D01*
X027397Y004054D01*
X027441Y004022D01*
X027482Y003987D01*
X027520Y003949D01*
X027556Y003908D01*
X027589Y003865D01*
X027619Y003820D01*
X027645Y003772D01*
X027668Y003723D01*
X027687Y003672D01*
X027702Y003621D01*
X027714Y003568D01*
X027722Y003514D01*
X027726Y003460D01*
X027726Y003406D01*
X027722Y003352D01*
X027714Y003298D01*
X027702Y003245D01*
X027687Y003194D01*
X027668Y003143D01*
X027645Y003094D01*
X027619Y003046D01*
X027589Y003001D01*
X027556Y002958D01*
X027520Y002917D01*
X027482Y002879D01*
X027441Y002844D01*
X027397Y002812D01*
X027351Y002783D01*
X027303Y002758D01*
X027254Y002736D01*
X027203Y002718D01*
X027150Y002704D01*
X027097Y002693D01*
X027044Y002686D01*
X026990Y002683D01*
X026935Y002684D01*
X026881Y002689D01*
X026828Y002698D01*
X026775Y002710D01*
X026724Y002727D01*
X026673Y002747D01*
X026625Y002770D01*
X026578Y002797D01*
X026533Y002828D01*
X026490Y002861D01*
X026450Y002898D01*
X026413Y002937D01*
X026379Y002979D01*
X026348Y003023D01*
X026320Y003070D01*
X026295Y003118D01*
X026274Y003168D01*
X026257Y003219D01*
X026244Y003272D01*
X026234Y003325D01*
X026228Y003379D01*
X026226Y003433D01*
X021788Y001746D02*
X021790Y001800D01*
X021796Y001854D01*
X021806Y001907D01*
X021819Y001960D01*
X021836Y002011D01*
X021857Y002061D01*
X021882Y002109D01*
X021910Y002156D01*
X021941Y002200D01*
X021975Y002242D01*
X022012Y002281D01*
X022052Y002318D01*
X022095Y002351D01*
X022140Y002382D01*
X022187Y002409D01*
X022235Y002432D01*
X022286Y002452D01*
X022337Y002469D01*
X022390Y002481D01*
X022443Y002490D01*
X022497Y002495D01*
X022552Y002496D01*
X022606Y002493D01*
X022659Y002486D01*
X022712Y002475D01*
X022765Y002461D01*
X022816Y002443D01*
X022865Y002421D01*
X022913Y002396D01*
X022959Y002367D01*
X023003Y002335D01*
X023044Y002300D01*
X023082Y002262D01*
X023118Y002221D01*
X023151Y002178D01*
X023181Y002133D01*
X023207Y002085D01*
X023230Y002036D01*
X023249Y001985D01*
X023264Y001934D01*
X023276Y001881D01*
X023284Y001827D01*
X023288Y001773D01*
X023288Y001719D01*
X023284Y001665D01*
X023276Y001611D01*
X023264Y001558D01*
X023249Y001507D01*
X023230Y001456D01*
X023207Y001407D01*
X023181Y001359D01*
X023151Y001314D01*
X023118Y001271D01*
X023082Y001230D01*
X023044Y001192D01*
X023003Y001157D01*
X022959Y001125D01*
X022913Y001096D01*
X022865Y001071D01*
X022816Y001049D01*
X022765Y001031D01*
X022712Y001017D01*
X022659Y001006D01*
X022606Y000999D01*
X022552Y000996D01*
X022497Y000997D01*
X022443Y001002D01*
X022390Y001011D01*
X022337Y001023D01*
X022286Y001040D01*
X022235Y001060D01*
X022187Y001083D01*
X022140Y001110D01*
X022095Y001141D01*
X022052Y001174D01*
X022012Y001211D01*
X021975Y001250D01*
X021941Y001292D01*
X021910Y001336D01*
X021882Y001383D01*
X021857Y001431D01*
X021836Y001481D01*
X021819Y001532D01*
X021806Y001585D01*
X021796Y001638D01*
X021790Y001692D01*
X021788Y001746D01*
X032585Y001536D02*
X032585Y002736D01*
X032585Y005536D02*
X032585Y006136D01*
X032566Y009701D02*
X032566Y010901D01*
X032566Y011701D02*
X032566Y012301D01*
D13*
X028995Y010409D02*
X028694Y010409D01*
X028694Y009958D01*
X028534Y009958D02*
X028534Y010184D01*
X028459Y010259D01*
X028234Y010259D01*
X028234Y009958D01*
X028074Y010334D02*
X027774Y010033D01*
X027774Y009958D01*
X027538Y009958D02*
X027538Y010409D01*
X027313Y010184D01*
X027614Y010184D01*
X027774Y010409D02*
X028074Y010409D01*
X028074Y010334D01*
X028694Y010184D02*
X028844Y010184D01*
X029270Y009009D02*
X029044Y008784D01*
X029345Y008784D01*
X029270Y009009D02*
X029270Y008558D01*
X028884Y008483D02*
X028584Y008483D01*
X028424Y008558D02*
X028124Y008558D01*
X028274Y008558D02*
X028274Y009009D01*
X028124Y008859D01*
X027964Y008934D02*
X027888Y009009D01*
X027738Y009009D01*
X027663Y008934D01*
X027663Y008634D01*
X027738Y008558D01*
X027888Y008558D01*
X027964Y008634D01*
X028011Y006471D02*
X028011Y006396D01*
X027711Y006096D01*
X027711Y006021D01*
X027476Y006021D02*
X027476Y006471D01*
X027251Y006246D01*
X027551Y006246D01*
X027711Y006471D02*
X028011Y006471D01*
X028171Y006321D02*
X028397Y006321D01*
X028472Y006246D01*
X028472Y006021D01*
X028632Y006021D02*
X028632Y006471D01*
X028932Y006471D01*
X028782Y006246D02*
X028632Y006246D01*
X028171Y006321D02*
X028171Y006021D01*
X028086Y004946D02*
X028086Y004496D01*
X027936Y004496D02*
X028236Y004496D01*
X028396Y004421D02*
X028697Y004421D01*
X028857Y004571D02*
X028932Y004496D01*
X029082Y004496D01*
X029157Y004571D01*
X029157Y004646D01*
X029082Y004721D01*
X029007Y004721D01*
X029082Y004721D02*
X029157Y004796D01*
X029157Y004871D01*
X029082Y004946D01*
X028932Y004946D01*
X028857Y004871D01*
X028086Y004946D02*
X027936Y004796D01*
X027776Y004871D02*
X027701Y004946D01*
X027551Y004946D01*
X027476Y004871D01*
X027476Y004571D01*
X027551Y004496D01*
X027701Y004496D01*
X027776Y004571D01*
X027711Y002346D02*
X028011Y002346D01*
X028011Y002271D01*
X027711Y001971D01*
X027711Y001896D01*
X027476Y001896D02*
X027476Y002346D01*
X027251Y002121D01*
X027551Y002121D01*
X028171Y002196D02*
X028171Y001896D01*
X028472Y001896D02*
X028472Y002121D01*
X028397Y002196D01*
X028171Y002196D01*
X028632Y002121D02*
X028782Y002121D01*
X028632Y001896D02*
X028632Y002346D01*
X028932Y002346D01*
X028932Y000821D02*
X028857Y000746D01*
X028932Y000821D02*
X029082Y000821D01*
X029157Y000746D01*
X029157Y000671D01*
X028857Y000371D01*
X029157Y000371D01*
X028697Y000296D02*
X028396Y000296D01*
X028236Y000371D02*
X027936Y000371D01*
X028086Y000371D02*
X028086Y000821D01*
X027936Y000671D01*
X027776Y000746D02*
X027701Y000821D01*
X027551Y000821D01*
X027476Y000746D01*
X027476Y000446D01*
X027551Y000371D01*
X027701Y000371D01*
X027776Y000446D01*
X033860Y000661D02*
X034310Y000962D01*
X034235Y001122D02*
X034310Y001197D01*
X034310Y001347D01*
X034235Y001422D01*
X034160Y001422D01*
X034085Y001347D01*
X034085Y001272D01*
X034085Y001347D02*
X034010Y001422D01*
X033935Y001422D01*
X033860Y001347D01*
X033860Y001197D01*
X033935Y001122D01*
X033860Y000962D02*
X034310Y000661D01*
X021263Y003459D02*
X021188Y003383D01*
X020888Y003383D01*
X020813Y003459D01*
X020813Y003609D01*
X020888Y003684D01*
X020813Y003844D02*
X021263Y004144D01*
X020813Y004144D01*
X020813Y004304D02*
X020888Y004304D01*
X021038Y004454D01*
X021263Y004454D01*
X021038Y004454D02*
X020888Y004604D01*
X020813Y004604D01*
X020963Y004765D02*
X020813Y004915D01*
X021263Y004915D01*
X021263Y004765D02*
X021263Y005065D01*
X021263Y005225D02*
X021188Y005225D01*
X020888Y005525D01*
X020813Y005525D01*
X020813Y005225D01*
X019238Y004948D02*
X019238Y004648D01*
X018938Y004948D01*
X018863Y004948D01*
X018788Y004873D01*
X018788Y004723D01*
X018863Y004648D01*
X018788Y004488D02*
X019088Y004188D01*
X019013Y004263D02*
X019238Y004488D01*
X019238Y004188D02*
X018788Y004188D01*
X018863Y004028D02*
X018788Y003952D01*
X018788Y003802D01*
X018863Y003727D01*
X019163Y003727D01*
X019238Y003802D01*
X019238Y003952D01*
X019163Y004028D01*
X018863Y004028D01*
X020813Y003844D02*
X021263Y003844D01*
X021188Y003684D02*
X021263Y003609D01*
X021263Y003459D01*
X017317Y002678D02*
X017016Y002678D01*
X017167Y002678D02*
X017167Y003129D01*
X017016Y002979D01*
X016856Y003054D02*
X016856Y002904D01*
X016781Y002829D01*
X016556Y002829D01*
X016556Y002678D02*
X016556Y003129D01*
X016781Y003129D01*
X016856Y003054D01*
X016396Y003129D02*
X016246Y003129D01*
X016321Y003129D02*
X016321Y002753D01*
X016246Y002678D01*
X016171Y002678D01*
X016096Y002753D01*
X015288Y005459D02*
X015288Y005909D01*
X014988Y005909D02*
X015288Y005459D01*
X014988Y005459D02*
X014988Y005909D01*
X014753Y005909D02*
X014528Y005684D01*
X014828Y005684D01*
X014753Y005459D02*
X014753Y005909D01*
X014217Y005909D02*
X014217Y005459D01*
X014067Y005459D02*
X014367Y005459D01*
X013907Y005534D02*
X013832Y005459D01*
X013682Y005459D01*
X013607Y005534D01*
X013607Y005834D01*
X013682Y005909D01*
X013832Y005909D01*
X013907Y005834D01*
X014067Y005759D02*
X014217Y005909D01*
X013447Y005909D02*
X013447Y005459D01*
X013146Y005459D02*
X013146Y005909D01*
X012911Y005909D02*
X012686Y005684D01*
X012986Y005684D01*
X013146Y005684D02*
X013447Y005684D01*
X012911Y005459D02*
X012911Y005909D01*
X012526Y005909D02*
X012526Y005834D01*
X012226Y005534D01*
X012226Y005459D01*
X012226Y005909D02*
X012526Y005909D01*
X011038Y006118D02*
X011038Y006268D01*
X011038Y006193D02*
X010588Y006193D01*
X010588Y006118D02*
X010588Y006268D01*
X010663Y006425D02*
X010963Y006425D01*
X011038Y006500D01*
X011038Y006650D01*
X010963Y006725D01*
X011038Y006885D02*
X011038Y007186D01*
X011038Y007036D02*
X010588Y007036D01*
X010738Y006885D01*
X010663Y006725D02*
X010588Y006650D01*
X010588Y006500D01*
X010663Y006425D01*
X008755Y007959D02*
X008455Y007659D01*
X008455Y007583D01*
X008295Y007583D02*
X007994Y007583D01*
X008144Y007583D02*
X008144Y008034D01*
X007994Y007884D01*
X007834Y007959D02*
X007834Y008034D01*
X007834Y007959D02*
X007684Y007809D01*
X007684Y007583D01*
X007374Y007583D02*
X007374Y008034D01*
X007534Y008034D02*
X007534Y007959D01*
X007684Y007809D01*
X007374Y007583D02*
X007074Y008034D01*
X007074Y007583D01*
X006914Y007659D02*
X006838Y007583D01*
X006688Y007583D01*
X006613Y007659D01*
X006613Y007959D01*
X006688Y008034D01*
X006838Y008034D01*
X006914Y007959D01*
X008455Y008034D02*
X008755Y008034D01*
X008755Y007959D01*
X004213Y009246D02*
X004213Y009471D01*
X004138Y009546D01*
X003838Y009546D01*
X003763Y009471D01*
X003763Y009246D01*
X004213Y009246D01*
X004138Y009706D02*
X004213Y009781D01*
X004213Y009931D01*
X004138Y010007D01*
X004063Y010007D01*
X003988Y009931D01*
X003988Y009856D01*
X003988Y009931D02*
X003913Y010007D01*
X003838Y010007D01*
X003763Y009931D01*
X003763Y009781D01*
X003838Y009706D01*
X006707Y009996D02*
X006782Y009921D01*
X006932Y009921D01*
X007007Y009996D01*
X007007Y010296D01*
X006932Y010371D01*
X006782Y010371D01*
X006707Y010296D01*
X006707Y009996D01*
X007167Y010071D02*
X007468Y010371D01*
X007628Y010221D02*
X007778Y010371D01*
X007778Y009921D01*
X007628Y009921D02*
X007928Y009921D01*
X007468Y009921D02*
X007242Y010146D01*
X007167Y010371D02*
X007167Y009921D01*
X001126Y010850D02*
X000675Y011150D01*
X000750Y011311D02*
X000675Y011386D01*
X000675Y011536D01*
X000750Y011611D01*
X000826Y011611D01*
X001126Y011311D01*
X001126Y011611D01*
X001126Y011150D02*
X000675Y010850D01*
X000947Y006684D02*
X000872Y006609D01*
X000872Y006309D01*
X000947Y006233D01*
X001097Y006233D01*
X001172Y006309D01*
X001332Y006233D02*
X001632Y006233D01*
X001482Y006233D02*
X001482Y006684D01*
X001332Y006534D01*
X001172Y006609D02*
X001097Y006684D01*
X000947Y006684D01*
X001792Y006158D02*
X002093Y006158D01*
X002253Y006233D02*
X002553Y006233D01*
X002403Y006233D02*
X002403Y006684D01*
X002253Y006534D01*
X002478Y005159D02*
X002778Y005159D01*
X002478Y005159D02*
X002478Y004709D01*
X002318Y004709D02*
X002318Y004934D01*
X002243Y005009D01*
X002017Y005009D01*
X002017Y004709D01*
X001857Y005084D02*
X001557Y004784D01*
X001557Y004709D01*
X001322Y004709D02*
X001322Y005159D01*
X001097Y004934D01*
X001397Y004934D01*
X001857Y005084D02*
X001857Y005159D01*
X001557Y005159D01*
X002478Y004934D02*
X002628Y004934D01*
X001136Y003648D02*
X001136Y003347D01*
X001136Y003497D02*
X000686Y003497D01*
X000836Y003347D01*
X000686Y003187D02*
X001136Y002887D01*
X001136Y003187D02*
X000686Y002887D01*
X017313Y009121D02*
X017614Y009121D01*
X017463Y009121D02*
X017463Y009571D01*
X017313Y009421D01*
X016697Y009621D02*
X016697Y009171D01*
X016847Y009171D02*
X016546Y009171D01*
X016386Y009171D02*
X016386Y009621D01*
X016546Y009471D02*
X016697Y009621D01*
X016386Y009171D02*
X016086Y009621D01*
X016086Y009171D01*
X015926Y009171D02*
X015776Y009321D01*
X015851Y009321D02*
X015626Y009321D01*
X015626Y009171D02*
X015626Y009621D01*
X015851Y009621D01*
X015926Y009546D01*
X015926Y009396D01*
X015851Y009321D01*
X017774Y009196D02*
X017849Y009121D01*
X017999Y009121D01*
X018074Y009196D01*
X018074Y009496D01*
X017774Y009196D01*
X017774Y009496D01*
X017849Y009571D01*
X017999Y009571D01*
X018074Y009496D01*
X018234Y009571D02*
X018234Y009121D01*
X018234Y009271D02*
X018459Y009421D01*
X018234Y009271D02*
X018459Y009121D01*
X018925Y008323D02*
X019001Y008323D01*
X019076Y008248D01*
X019151Y008323D01*
X019226Y008323D01*
X019301Y008248D01*
X019301Y008098D01*
X019226Y008023D01*
X019301Y007863D02*
X019076Y007638D01*
X019151Y007563D02*
X018850Y007863D01*
X018925Y008023D02*
X018850Y008098D01*
X018850Y008248D01*
X018925Y008323D01*
X019076Y008248D02*
X019076Y008173D01*
X018850Y007563D02*
X019301Y007563D01*
X019226Y007403D02*
X018925Y007403D01*
X018850Y007327D01*
X018850Y007177D01*
X018925Y007102D01*
X019226Y007102D01*
X019301Y007177D01*
X019301Y007327D01*
X019226Y007403D01*
X020813Y007394D02*
X021263Y007394D01*
X020813Y007094D01*
X021263Y007094D01*
X021188Y006934D02*
X021263Y006859D01*
X021263Y006709D01*
X021188Y006633D01*
X020888Y006633D01*
X020813Y006709D01*
X020813Y006859D01*
X020888Y006934D01*
X020888Y007554D02*
X021038Y007704D01*
X021263Y007704D01*
X021038Y007704D02*
X020888Y007854D01*
X020813Y007854D01*
X020963Y008015D02*
X020813Y008165D01*
X021263Y008165D01*
X021263Y008015D02*
X021263Y008315D01*
X021263Y008475D02*
X021188Y008475D01*
X020888Y008775D01*
X020813Y008775D01*
X020813Y008475D01*
X020813Y007554D02*
X020888Y007554D01*
X020888Y009821D02*
X021188Y009821D01*
X021263Y009896D01*
X021263Y010046D01*
X021188Y010121D01*
X021263Y010281D02*
X020813Y010281D01*
X021263Y010582D01*
X020813Y010582D01*
X020813Y010742D02*
X020888Y010742D01*
X021038Y010892D01*
X021263Y010892D01*
X021038Y010892D02*
X020888Y011042D01*
X020813Y011042D01*
X020963Y011202D02*
X020813Y011352D01*
X021263Y011352D01*
X021263Y011202D02*
X021263Y011502D01*
X021263Y011662D02*
X021188Y011662D01*
X020888Y011963D01*
X020813Y011963D01*
X020813Y011662D01*
X019238Y011186D02*
X018788Y011186D01*
X019013Y010961D01*
X019013Y011261D01*
X018788Y010800D02*
X019088Y010500D01*
X019013Y010575D02*
X019238Y010800D01*
X019238Y010500D02*
X018788Y010500D01*
X018863Y010340D02*
X018788Y010265D01*
X018788Y010115D01*
X018863Y010040D01*
X019163Y010040D01*
X019238Y010115D01*
X019238Y010265D01*
X019163Y010340D01*
X018863Y010340D01*
X020813Y010046D02*
X020813Y009896D01*
X020888Y009821D01*
X020813Y010046D02*
X020888Y010121D01*
X033841Y007511D02*
X034066Y007286D01*
X034066Y007586D01*
X034291Y007511D02*
X033841Y007511D01*
X033841Y007126D02*
X034291Y006826D01*
X034291Y007126D02*
X033841Y006826D01*
D14*
X025389Y006610D02*
X025352Y006647D01*
X025279Y006647D01*
X025316Y006684D01*
X025316Y006721D01*
X025279Y006757D01*
X025206Y006757D01*
X025206Y006831D02*
X025206Y006905D01*
X025316Y006831D02*
X025096Y006831D01*
X025096Y006978D01*
X025169Y007273D02*
X025096Y007347D01*
X025316Y007347D01*
X025316Y007420D02*
X025316Y007273D01*
X025279Y007494D02*
X025316Y007531D01*
X025316Y007604D01*
X025279Y007641D01*
X025242Y007641D01*
X025206Y007604D01*
X025206Y007494D01*
X025279Y007494D01*
X025206Y007494D02*
X025132Y007568D01*
X025096Y007641D01*
X025096Y007715D02*
X025242Y007715D01*
X025316Y007789D01*
X025242Y007862D01*
X025096Y007862D01*
X025206Y006647D02*
X025279Y006647D01*
X025279Y006536D02*
X025316Y006500D01*
X025316Y006426D01*
X025279Y006389D01*
X025132Y006536D01*
X025279Y006536D01*
X025132Y006536D02*
X025096Y006500D01*
X025096Y006426D01*
X025132Y006389D01*
X025279Y006389D01*
X025316Y006315D02*
X025316Y006168D01*
X025316Y006242D02*
X025096Y006242D01*
X025169Y006168D01*
X024867Y003300D02*
X024721Y003300D01*
X024867Y003300D02*
X024941Y003226D01*
X024867Y003153D01*
X024721Y003153D01*
X024721Y003079D02*
X024757Y003005D01*
X024831Y002932D01*
X024831Y003042D01*
X024867Y003079D01*
X024904Y003079D01*
X024941Y003042D01*
X024941Y002969D01*
X024904Y002932D01*
X024831Y002932D01*
X024941Y002858D02*
X024941Y002711D01*
X024941Y002784D02*
X024721Y002784D01*
X024794Y002711D01*
X024721Y002416D02*
X024721Y002269D01*
X024941Y002269D01*
X024904Y002195D02*
X024831Y002195D01*
X024904Y002195D02*
X024941Y002158D01*
X024941Y002121D01*
X024904Y002085D01*
X024977Y002085D01*
X025014Y002048D01*
X024904Y002085D02*
X024831Y002085D01*
X024904Y001974D02*
X024941Y001937D01*
X024941Y001864D01*
X024904Y001827D01*
X024757Y001974D01*
X024904Y001974D01*
X024757Y001974D02*
X024721Y001937D01*
X024721Y001864D01*
X024757Y001827D01*
X024904Y001827D01*
X024941Y001753D02*
X024941Y001606D01*
X024941Y001679D02*
X024721Y001679D01*
X024794Y001606D01*
X024831Y002269D02*
X024831Y002342D01*
X021151Y002256D02*
X021127Y002279D01*
X021034Y002279D01*
X021011Y002256D01*
X021011Y002186D01*
X021151Y002186D01*
X021151Y002256D01*
X021151Y002132D02*
X021011Y002132D01*
X021011Y002039D02*
X021151Y002132D01*
X021151Y002039D02*
X021011Y002039D01*
X021011Y001985D02*
X021011Y001891D01*
X021151Y001891D01*
X021151Y001985D01*
X021081Y001938D02*
X021081Y001891D01*
X021081Y001838D02*
X021081Y001744D01*
X021151Y001744D02*
X021011Y001744D01*
X021011Y001690D02*
X021011Y001597D01*
X021151Y001597D01*
X021151Y001690D01*
X021081Y001644D02*
X021081Y001597D01*
X021011Y001543D02*
X021011Y001449D01*
X021011Y001496D02*
X021151Y001496D01*
X021127Y001396D02*
X021151Y001372D01*
X021151Y001326D01*
X021127Y001302D01*
X021081Y001326D02*
X021081Y001372D01*
X021104Y001396D01*
X021127Y001396D01*
X021081Y001326D02*
X021057Y001302D01*
X021034Y001302D01*
X021011Y001326D01*
X021011Y001372D01*
X021034Y001396D01*
X021034Y001248D02*
X021127Y001155D01*
X021151Y001155D01*
X021127Y001101D02*
X021151Y001078D01*
X021151Y001031D01*
X021127Y001008D01*
X021034Y001101D01*
X021127Y001101D01*
X021034Y001101D02*
X021011Y001078D01*
X021011Y001031D01*
X021034Y001008D01*
X021127Y001008D01*
X021127Y000954D02*
X021151Y000930D01*
X021151Y000884D01*
X021127Y000860D01*
X021034Y000954D01*
X021127Y000954D01*
X021034Y000954D02*
X021011Y000930D01*
X021011Y000884D01*
X021034Y000860D01*
X021127Y000860D01*
X021081Y000806D02*
X021081Y000713D01*
X021011Y000783D01*
X021151Y000783D01*
X021151Y000659D02*
X021011Y000659D01*
X021011Y000566D02*
X021151Y000659D01*
X021151Y000566D02*
X021011Y000566D01*
X021011Y000465D02*
X021151Y000465D01*
X021151Y000418D02*
X021151Y000512D01*
X021057Y000418D02*
X021011Y000465D01*
X021011Y001155D02*
X021011Y001248D01*
X021034Y001248D01*
X021011Y001838D02*
X021151Y001838D01*
X005728Y009331D02*
X005638Y009331D01*
X005728Y009331D02*
X005728Y010811D01*
X005628Y010811D01*
X004528Y010811D02*
X004448Y010811D01*
X004448Y009331D01*
X004538Y009331D01*
X025158Y010179D02*
X025232Y010106D01*
X025158Y010179D02*
X025378Y010179D01*
X025378Y010106D02*
X025378Y010253D01*
X025342Y010327D02*
X025195Y010327D01*
X025158Y010364D01*
X025158Y010437D01*
X025195Y010474D01*
X025342Y010327D01*
X025378Y010364D01*
X025378Y010437D01*
X025342Y010474D01*
X025195Y010474D01*
X025268Y010585D02*
X025342Y010585D01*
X025415Y010585D01*
X025452Y010548D01*
X025378Y010621D02*
X025378Y010658D01*
X025342Y010695D01*
X025268Y010695D01*
X025268Y010769D02*
X025268Y010842D01*
X025158Y010769D02*
X025158Y010916D01*
X025158Y010769D02*
X025378Y010769D01*
X025378Y010621D02*
X025342Y010585D01*
X025378Y011211D02*
X025378Y011358D01*
X025378Y011284D02*
X025158Y011284D01*
X025232Y011211D01*
X025268Y011432D02*
X025268Y011542D01*
X025305Y011579D01*
X025342Y011579D01*
X025378Y011542D01*
X025378Y011469D01*
X025342Y011432D01*
X025268Y011432D01*
X025195Y011505D01*
X025158Y011579D01*
X025158Y011653D02*
X025305Y011653D01*
X025378Y011726D01*
X025305Y011800D01*
X025158Y011800D01*
D15*
X026813Y009996D02*
X026813Y009496D01*
X026813Y008996D01*
X027163Y008996D02*
X027163Y009496D01*
X027163Y009996D01*
X027101Y006058D02*
X027101Y005558D01*
X027101Y005058D01*
X026751Y005058D02*
X026751Y005558D01*
X026751Y006058D01*
X026751Y001933D02*
X026751Y001433D01*
X026751Y000933D01*
X027101Y000933D02*
X027101Y001433D01*
X027101Y001933D01*
X003388Y005121D02*
X003388Y005621D01*
X003388Y006121D01*
X003038Y006121D02*
X003038Y005621D01*
X003038Y005121D01*
D16*
X003873Y004193D02*
X003873Y004000D01*
X003873Y004097D02*
X003583Y004097D01*
X003680Y004000D01*
X003922Y003899D02*
X003922Y003705D01*
X003873Y003604D02*
X003873Y003411D01*
X003873Y003507D02*
X003583Y003507D01*
X003680Y003411D01*
X003728Y003309D02*
X003777Y003261D01*
X003777Y003116D01*
X003873Y003116D02*
X003583Y003116D01*
X003583Y003261D01*
X003631Y003309D01*
X003728Y003309D01*
X003777Y003213D02*
X003873Y003309D01*
X006878Y003014D02*
X006878Y002724D01*
X007023Y002724D01*
X007072Y002772D01*
X007072Y002965D01*
X007023Y003014D01*
X006878Y003014D01*
X007173Y002917D02*
X007270Y003014D01*
X007270Y002724D01*
X007366Y002724D02*
X007173Y002724D01*
X007468Y002675D02*
X007661Y002675D01*
X007762Y002724D02*
X007956Y002724D01*
X007859Y002724D02*
X007859Y003014D01*
X007762Y002917D01*
X008611Y002972D02*
X008611Y003069D01*
X008659Y003117D01*
X008707Y003117D01*
X008756Y003069D01*
X008756Y002972D01*
X008707Y002924D01*
X008659Y002924D01*
X008611Y002972D01*
X008756Y002972D02*
X008804Y002924D01*
X008852Y002924D01*
X008901Y002972D01*
X008901Y003069D01*
X008852Y003117D01*
X008804Y003117D01*
X008756Y003069D01*
X008707Y002823D02*
X008804Y002678D01*
X008901Y002823D01*
X008901Y002678D02*
X008611Y002678D01*
X008611Y002577D02*
X008659Y002480D01*
X008756Y002384D01*
X008756Y002529D01*
X008804Y002577D01*
X008852Y002577D01*
X008901Y002529D01*
X008901Y002432D01*
X008852Y002384D01*
X008756Y002384D01*
X008118Y002055D02*
X008118Y001861D01*
X008118Y001958D02*
X007828Y001958D01*
X007925Y001861D01*
X008167Y001760D02*
X008167Y001567D01*
X008118Y001466D02*
X008118Y001272D01*
X007925Y001466D01*
X007876Y001466D01*
X007828Y001417D01*
X007828Y001320D01*
X007876Y001272D01*
X007876Y001171D02*
X007973Y001171D01*
X008021Y001123D01*
X008021Y000977D01*
X008021Y001074D02*
X008118Y001171D01*
X007876Y001171D02*
X007828Y001123D01*
X007828Y000977D01*
X008118Y000977D01*
X004653Y001491D02*
X004460Y001684D01*
X004411Y001684D01*
X004363Y001636D01*
X004363Y001539D01*
X004411Y001491D01*
X004653Y001491D02*
X004653Y001684D01*
X004653Y001786D02*
X004363Y001786D01*
X004460Y001931D02*
X004557Y001786D01*
X004653Y001931D01*
X004653Y002031D02*
X004605Y002031D01*
X004411Y002225D01*
X004363Y002225D01*
X004363Y002031D01*
X008953Y003820D02*
X009243Y003820D01*
X009243Y003723D02*
X009243Y003917D01*
X009195Y004018D02*
X009001Y004018D01*
X008953Y004066D01*
X008953Y004163D01*
X009001Y004211D01*
X009195Y004018D01*
X009243Y004066D01*
X009243Y004163D01*
X009195Y004211D01*
X009001Y004211D01*
X009098Y004361D02*
X009195Y004361D01*
X009292Y004361D01*
X009340Y004313D01*
X009243Y004409D02*
X009195Y004361D01*
X009243Y004409D02*
X009243Y004458D01*
X009195Y004506D01*
X009098Y004506D01*
X009098Y004607D02*
X009098Y004704D01*
X008953Y004607D02*
X008953Y004801D01*
X009050Y004902D02*
X008953Y004999D01*
X009243Y004999D01*
X009243Y005095D02*
X009243Y004902D01*
X008742Y004884D02*
X008742Y005078D01*
X008693Y005179D02*
X008693Y005372D01*
X008693Y005276D02*
X008403Y005276D01*
X008500Y005179D01*
X008953Y005390D02*
X009001Y005293D01*
X009098Y005197D01*
X009098Y005342D01*
X009147Y005390D01*
X009195Y005390D01*
X009243Y005342D01*
X009243Y005245D01*
X009195Y005197D01*
X009098Y005197D01*
X009147Y005491D02*
X008953Y005491D01*
X009147Y005491D02*
X009243Y005588D01*
X009147Y005685D01*
X008953Y005685D01*
X008693Y004783D02*
X008693Y004590D01*
X008500Y004783D01*
X008451Y004783D01*
X008403Y004735D01*
X008403Y004638D01*
X008451Y004590D01*
X008451Y004488D02*
X008403Y004440D01*
X008403Y004343D01*
X008451Y004295D01*
X008645Y004295D01*
X008693Y004343D01*
X008693Y004440D01*
X008645Y004488D01*
X008953Y004607D02*
X009243Y004607D01*
X008953Y003820D02*
X009050Y003723D01*
X005296Y006420D02*
X005006Y006420D01*
X005006Y006565D01*
X005054Y006613D01*
X005247Y006613D01*
X005296Y006565D01*
X005296Y006420D01*
X005296Y006714D02*
X005102Y006908D01*
X005054Y006908D01*
X005006Y006860D01*
X005006Y006763D01*
X005054Y006714D01*
X005296Y006714D02*
X005296Y006908D01*
X005344Y007009D02*
X005344Y007203D01*
X005296Y007304D02*
X005296Y007497D01*
X005296Y007400D02*
X005006Y007400D01*
X005102Y007304D01*
X021381Y001449D02*
X021381Y001352D01*
X021429Y001304D01*
X021381Y001449D02*
X021429Y001497D01*
X021477Y001497D01*
X021671Y001304D01*
X021671Y001497D01*
X021719Y001203D02*
X021719Y001009D01*
X021671Y000908D02*
X021671Y000714D01*
X021477Y000908D01*
X021429Y000908D01*
X021381Y000860D01*
X021381Y000763D01*
X021429Y000714D01*
X021429Y000613D02*
X021381Y000565D01*
X021381Y000420D01*
X021671Y000420D01*
X021671Y000565D01*
X021622Y000613D01*
X021429Y000613D01*
X025008Y000704D02*
X025056Y000656D01*
X025008Y000704D02*
X025008Y000801D01*
X025056Y000849D01*
X025105Y000849D01*
X025298Y000656D01*
X025298Y000849D01*
X025347Y000950D02*
X025347Y001144D01*
X025298Y001245D02*
X025105Y001438D01*
X025056Y001438D01*
X025008Y001390D01*
X025008Y001293D01*
X025056Y001245D01*
X025298Y001245D02*
X025298Y001438D01*
X025250Y000554D02*
X025298Y000506D01*
X025298Y000409D01*
X025250Y000361D01*
X025056Y000361D01*
X025008Y000409D01*
X025008Y000506D01*
X025056Y000554D01*
X023066Y002613D02*
X022873Y002613D01*
X022771Y002661D02*
X022578Y002661D01*
X022771Y002854D01*
X022771Y002903D01*
X022723Y002951D01*
X022626Y002951D01*
X022578Y002903D01*
X022477Y002903D02*
X022477Y002806D01*
X022428Y002758D01*
X022283Y002758D01*
X022380Y002758D02*
X022477Y002661D01*
X022283Y002661D02*
X022283Y002951D01*
X022428Y002951D01*
X022477Y002903D01*
X023167Y002903D02*
X023216Y002951D01*
X023312Y002951D01*
X023361Y002903D01*
X023361Y002854D01*
X023167Y002661D01*
X023361Y002661D01*
X024457Y003818D02*
X024553Y003818D01*
X024602Y003867D01*
X024602Y003915D01*
X024553Y003964D01*
X024408Y003964D01*
X024408Y003867D01*
X024457Y003818D01*
X024408Y003964D02*
X024505Y004060D01*
X024602Y004109D01*
X024703Y004109D02*
X024703Y003818D01*
X024703Y003915D02*
X024848Y003818D01*
X024948Y003867D02*
X024948Y003915D01*
X024997Y003964D01*
X025094Y003964D01*
X025142Y003915D01*
X025142Y003867D01*
X025094Y003818D01*
X024997Y003818D01*
X024948Y003867D01*
X024997Y003964D02*
X024948Y004012D01*
X024948Y004060D01*
X024997Y004109D01*
X025094Y004109D01*
X025142Y004060D01*
X025142Y004012D01*
X025094Y003964D01*
X024848Y004012D02*
X024703Y003915D01*
X025425Y003916D02*
X025425Y004206D01*
X025570Y004206D01*
X025618Y004158D01*
X025618Y003964D01*
X025570Y003916D01*
X025425Y003916D01*
X025719Y003916D02*
X025913Y003916D01*
X025816Y003916D02*
X025816Y004206D01*
X025719Y004109D01*
X026309Y004158D02*
X026357Y004206D01*
X026454Y004206D01*
X026502Y004158D01*
X026502Y004109D01*
X026309Y003916D01*
X026502Y003916D01*
X026207Y003868D02*
X026014Y003868D01*
X027988Y003946D02*
X028182Y004139D01*
X028182Y004188D01*
X028134Y004236D01*
X028037Y004236D01*
X027988Y004188D01*
X028283Y004236D02*
X028283Y003946D01*
X028283Y004043D02*
X028428Y004139D01*
X028529Y004236D02*
X028722Y004236D01*
X028722Y004188D01*
X028529Y003994D01*
X028529Y003946D01*
X028428Y003946D02*
X028283Y004043D01*
X028182Y003946D02*
X027988Y003946D01*
X025361Y004597D02*
X025361Y004694D01*
X025312Y004742D01*
X025361Y004843D02*
X025167Y005037D01*
X025119Y005037D01*
X025071Y004988D01*
X025071Y004891D01*
X025119Y004843D01*
X025119Y004742D02*
X025071Y004694D01*
X025071Y004597D01*
X025119Y004548D01*
X025312Y004548D01*
X025361Y004597D01*
X025361Y004843D02*
X025361Y005037D01*
X025409Y005138D02*
X025409Y005331D01*
X025312Y005432D02*
X025361Y005481D01*
X025361Y005578D01*
X025312Y005626D01*
X025264Y005626D01*
X025216Y005578D01*
X025216Y005529D01*
X025216Y005578D02*
X025167Y005626D01*
X025119Y005626D01*
X025071Y005578D01*
X025071Y005481D01*
X025119Y005432D01*
X023356Y004893D02*
X023356Y004844D01*
X023307Y004796D01*
X023356Y004748D01*
X023356Y004699D01*
X023307Y004651D01*
X023211Y004651D01*
X023162Y004699D01*
X023259Y004796D02*
X023307Y004796D01*
X023356Y004893D02*
X023307Y004941D01*
X023211Y004941D01*
X023162Y004893D01*
X022766Y004893D02*
X022718Y004941D01*
X022621Y004941D01*
X022573Y004893D01*
X022472Y004893D02*
X022472Y004699D01*
X022423Y004651D01*
X022278Y004651D01*
X022278Y004941D01*
X022423Y004941D01*
X022472Y004893D01*
X022573Y004651D02*
X022766Y004844D01*
X022766Y004893D01*
X022766Y004651D02*
X022573Y004651D01*
X022868Y004603D02*
X023061Y004603D01*
X027645Y002956D02*
X027790Y002956D01*
X027838Y002908D01*
X027838Y002811D01*
X027790Y002763D01*
X027645Y002763D01*
X027741Y002763D02*
X027838Y002666D01*
X027939Y002666D02*
X028133Y002666D01*
X028036Y002666D02*
X028036Y002956D01*
X027939Y002859D01*
X027645Y002956D02*
X027645Y002666D01*
X028234Y002618D02*
X028427Y002618D01*
X028529Y002666D02*
X028722Y002859D01*
X028722Y002908D01*
X028674Y002956D01*
X028577Y002956D01*
X028529Y002908D01*
X028529Y002666D02*
X028722Y002666D01*
X028427Y006743D02*
X028234Y006743D01*
X028133Y006791D02*
X027939Y006791D01*
X028036Y006791D02*
X028036Y007081D01*
X027939Y006984D01*
X027838Y006936D02*
X027790Y006888D01*
X027645Y006888D01*
X027741Y006888D02*
X027838Y006791D01*
X027838Y006936D02*
X027838Y007033D01*
X027790Y007081D01*
X027645Y007081D01*
X027645Y006791D01*
X028529Y006839D02*
X028577Y006791D01*
X028674Y006791D01*
X028722Y006839D01*
X028722Y006888D01*
X028674Y006936D01*
X028625Y006936D01*
X028674Y006936D02*
X028722Y006984D01*
X028722Y007033D01*
X028674Y007081D01*
X028577Y007081D01*
X028529Y007033D01*
X028491Y007883D02*
X028346Y007980D01*
X028491Y008077D01*
X028591Y008174D02*
X028785Y008174D01*
X028785Y008125D01*
X028591Y007932D01*
X028591Y007883D01*
X028346Y007883D02*
X028346Y008174D01*
X028244Y008125D02*
X028196Y008174D01*
X028099Y008174D01*
X028051Y008125D01*
X028244Y008125D02*
X028244Y008077D01*
X028051Y007883D01*
X028244Y007883D01*
X026252Y007964D02*
X026204Y007916D01*
X026107Y007916D01*
X026059Y007964D01*
X026155Y008061D02*
X026204Y008061D01*
X026252Y008013D01*
X026252Y007964D01*
X026204Y008061D02*
X026252Y008109D01*
X026252Y008158D01*
X026204Y008206D01*
X026107Y008206D01*
X026059Y008158D01*
X025663Y007916D02*
X025469Y007916D01*
X025566Y007916D02*
X025566Y008206D01*
X025469Y008109D01*
X025368Y008158D02*
X025320Y008206D01*
X025175Y008206D01*
X025175Y007916D01*
X025320Y007916D01*
X025368Y007964D01*
X025368Y008158D01*
X025764Y007868D02*
X025957Y007868D01*
X024579Y008117D02*
X024531Y008068D01*
X024434Y008068D01*
X024386Y008117D01*
X024386Y008165D01*
X024434Y008214D01*
X024531Y008214D01*
X024579Y008165D01*
X024579Y008117D01*
X024531Y008214D02*
X024579Y008262D01*
X024579Y008310D01*
X024531Y008359D01*
X024434Y008359D01*
X024386Y008310D01*
X024386Y008262D01*
X024434Y008214D01*
X024286Y008262D02*
X024140Y008165D01*
X024286Y008068D01*
X024140Y008068D02*
X024140Y008359D01*
X024039Y008359D02*
X023942Y008310D01*
X023846Y008214D01*
X023991Y008214D01*
X024039Y008165D01*
X024039Y008117D01*
X023991Y008068D01*
X023894Y008068D01*
X023846Y008117D01*
X023846Y008214D01*
X025133Y008534D02*
X025181Y008486D01*
X025375Y008486D01*
X025423Y008534D01*
X025423Y008631D01*
X025375Y008679D01*
X025423Y008781D02*
X025230Y008974D01*
X025181Y008974D01*
X025133Y008926D01*
X025133Y008829D01*
X025181Y008781D01*
X025181Y008679D02*
X025133Y008631D01*
X025133Y008534D01*
X025423Y008781D02*
X025423Y008974D01*
X025472Y009075D02*
X025472Y009269D01*
X025278Y009370D02*
X025278Y009563D01*
X025133Y009515D02*
X025278Y009370D01*
X025423Y009515D02*
X025133Y009515D01*
X023370Y010151D02*
X023370Y010441D01*
X023225Y010296D01*
X023418Y010296D01*
X023124Y010103D02*
X022930Y010103D01*
X022829Y010151D02*
X022635Y010151D01*
X022829Y010344D01*
X022829Y010393D01*
X022781Y010441D01*
X022684Y010441D01*
X022635Y010393D01*
X022534Y010393D02*
X022486Y010441D01*
X022341Y010441D01*
X022341Y010151D01*
X022486Y010151D01*
X022534Y010199D01*
X022534Y010393D01*
X022515Y011098D02*
X022709Y011292D01*
X022709Y011340D01*
X022661Y011389D01*
X022564Y011389D01*
X022515Y011340D01*
X022414Y011340D02*
X022414Y011244D01*
X022366Y011195D01*
X022221Y011195D01*
X022317Y011195D02*
X022414Y011098D01*
X022515Y011098D02*
X022709Y011098D01*
X022810Y011050D02*
X023004Y011050D01*
X023105Y011244D02*
X023298Y011244D01*
X023250Y011389D02*
X023250Y011098D01*
X023105Y011244D02*
X023250Y011389D01*
X022414Y011340D02*
X022366Y011389D01*
X022221Y011389D01*
X022221Y011098D01*
X023908Y012054D02*
X023957Y012006D01*
X024053Y012006D01*
X024102Y012054D01*
X024102Y012103D01*
X024053Y012151D01*
X023908Y012151D01*
X023908Y012054D01*
X023908Y012151D02*
X024005Y012248D01*
X024102Y012296D01*
X024203Y012296D02*
X024203Y012006D01*
X024203Y012103D02*
X024348Y012199D01*
X024448Y012199D02*
X024448Y012248D01*
X024497Y012296D01*
X024594Y012296D01*
X024642Y012248D01*
X024642Y012199D01*
X024594Y012151D01*
X024497Y012151D01*
X024448Y012199D01*
X024497Y012151D02*
X024448Y012103D01*
X024448Y012054D01*
X024497Y012006D01*
X024594Y012006D01*
X024642Y012054D01*
X024642Y012103D01*
X024594Y012151D01*
X024348Y012006D02*
X024203Y012103D01*
X025237Y012206D02*
X025237Y011916D01*
X025382Y011916D01*
X025431Y011964D01*
X025431Y012158D01*
X025382Y012206D01*
X025237Y012206D01*
X025532Y012109D02*
X025629Y012206D01*
X025629Y011916D01*
X025725Y011916D02*
X025532Y011916D01*
X025827Y011868D02*
X026020Y011868D01*
X026266Y011916D02*
X026266Y012206D01*
X026121Y012061D01*
X026315Y012061D01*
X027988Y011946D02*
X028182Y012139D01*
X028182Y012188D01*
X028134Y012236D01*
X028037Y012236D01*
X027988Y012188D01*
X028283Y012236D02*
X028283Y011946D01*
X028283Y012043D02*
X028428Y012139D01*
X028529Y012236D02*
X028722Y012236D01*
X028722Y012188D01*
X028529Y011994D01*
X028529Y011946D01*
X028428Y011946D02*
X028283Y012043D01*
X028182Y011946D02*
X027988Y011946D01*
X028099Y011019D02*
X028099Y010728D01*
X028195Y010728D02*
X028002Y010728D01*
X027901Y010728D02*
X027804Y010825D01*
X027852Y010825D02*
X027707Y010825D01*
X027707Y010728D02*
X027707Y011019D01*
X027852Y011019D01*
X027901Y010970D01*
X027901Y010874D01*
X027852Y010825D01*
X028002Y010922D02*
X028099Y011019D01*
X028591Y010874D02*
X028785Y010874D01*
X028736Y011019D02*
X028736Y010728D01*
X028591Y010874D02*
X028736Y011019D01*
X028490Y010680D02*
X028296Y010680D01*
X023361Y007153D02*
X023312Y007201D01*
X023216Y007201D01*
X023167Y007153D01*
X023264Y007056D02*
X023312Y007056D01*
X023361Y007008D01*
X023361Y006959D01*
X023312Y006911D01*
X023216Y006911D01*
X023167Y006959D01*
X023066Y006863D02*
X022873Y006863D01*
X022771Y006911D02*
X022578Y006911D01*
X022771Y007104D01*
X022771Y007153D01*
X022723Y007201D01*
X022626Y007201D01*
X022578Y007153D01*
X022477Y007153D02*
X022428Y007201D01*
X022283Y007201D01*
X022283Y006911D01*
X022283Y007008D02*
X022428Y007008D01*
X022477Y007056D01*
X022477Y007153D01*
X022380Y007008D02*
X022477Y006911D01*
X023312Y007056D02*
X023361Y007104D01*
X023361Y007153D01*
D17*
X023876Y007558D02*
X024076Y007558D01*
X026356Y007558D02*
X026586Y007558D01*
X028626Y007558D02*
X028826Y007558D01*
X024158Y009246D02*
X023928Y009246D01*
X023938Y011496D02*
X024138Y011496D01*
X026418Y011496D02*
X026648Y011496D01*
X028688Y011496D02*
X028888Y011496D01*
X024721Y004933D02*
X024491Y004933D01*
X024451Y003433D02*
X024251Y003433D01*
X026356Y003433D02*
X026586Y003433D01*
X028438Y003433D02*
X028638Y003433D01*
X022538Y001356D02*
X022538Y001126D01*
X007976Y003083D02*
X007976Y003283D01*
X006658Y003433D02*
X006428Y003433D01*
X004788Y003471D02*
X004788Y003271D01*
X005413Y004876D02*
X005413Y005106D01*
M02*
