G75*
G70*
%OFA0B0*%
%FSLAX24Y24*%
%IPPOS*%
%LPD*%
%AMOC8*
5,1,8,0,0,1.08239X$1,22.5*
%
%ADD10C,0.0705*%
%ADD11C,0.0600*%
%ADD12OC8,0.0560*%
%ADD13OC8,0.0520*%
%ADD14C,0.0520*%
%ADD15C,0.0520*%
%ADD16C,0.0160*%
%ADD17C,0.0240*%
%ADD18C,0.0475*%
%ADD19C,0.0320*%
%ADD20C,0.0396*%
%ADD21C,0.0120*%
D10*
X002403Y001136D02*
X003108Y001136D01*
X003108Y003136D02*
X002403Y003136D01*
X002403Y005136D02*
X003108Y005136D01*
X003127Y007301D02*
X002422Y007301D01*
X002422Y009301D02*
X003127Y009301D01*
X003127Y011301D02*
X002422Y011301D01*
X032187Y011246D02*
X032892Y011246D01*
X032892Y009246D02*
X032187Y009246D01*
X032177Y003283D02*
X032882Y003283D01*
X032882Y001283D02*
X032177Y001283D01*
D11*
X022540Y001633D02*
X022540Y002233D01*
X021540Y002233D02*
X021540Y001633D01*
X020540Y001633D02*
X020540Y002233D01*
X019540Y002233D02*
X019540Y001633D01*
X018540Y001633D02*
X018540Y002233D01*
X017540Y002233D02*
X017540Y001633D01*
X016540Y001633D02*
X016540Y002233D01*
X015540Y002233D02*
X015540Y001633D01*
D12*
X008540Y001433D03*
X005540Y001433D03*
X005540Y005558D03*
X008540Y005558D03*
X008477Y009496D03*
X005477Y009496D03*
X030602Y005621D03*
X033602Y005621D03*
D13*
X029227Y004496D03*
X029852Y003871D03*
X027602Y003433D03*
X026665Y003683D03*
X027540Y004471D03*
X029852Y002871D03*
X026665Y002683D03*
X012102Y000746D03*
X010352Y002396D03*
X010790Y003433D03*
X009790Y003433D03*
X008665Y003433D03*
X006602Y003433D03*
X005602Y003433D03*
X009540Y004933D03*
X010040Y006958D03*
X010165Y007558D03*
X011165Y007558D03*
X008665Y007558D03*
X006415Y007558D03*
X005415Y007558D03*
X010102Y009246D03*
X009977Y010896D03*
X010102Y011496D03*
X011102Y011496D03*
X008602Y011496D03*
X006352Y011496D03*
X005352Y011496D03*
D14*
X007602Y011496D03*
X009977Y010096D03*
X011102Y009246D03*
X007665Y007558D03*
X010040Y006158D03*
X010540Y004933D03*
X007665Y003433D03*
X012102Y001746D03*
X010352Y001596D03*
X027540Y005271D03*
X029227Y005496D03*
X028602Y003433D03*
D15*
X022790Y003924D02*
X022790Y004444D01*
X021790Y004444D02*
X021790Y003924D01*
X020790Y003924D02*
X020790Y004444D01*
X019790Y004444D02*
X019790Y003924D01*
X018790Y003924D02*
X018790Y004444D01*
X017790Y004444D02*
X017790Y003924D01*
X016790Y003924D02*
X016790Y004444D01*
X015362Y004308D02*
X014842Y004308D01*
X012362Y004308D02*
X011842Y004308D01*
X011842Y003308D02*
X012362Y003308D01*
X014842Y003308D02*
X015362Y003308D01*
X015362Y005308D02*
X014842Y005308D01*
X012362Y005308D02*
X011842Y005308D01*
X011842Y006558D02*
X012362Y006558D01*
X014842Y006558D02*
X015362Y006558D01*
X016790Y006924D02*
X016790Y007444D01*
X017790Y007444D02*
X017790Y006924D01*
X018790Y006924D02*
X018790Y007444D01*
X019790Y007444D02*
X019790Y006924D01*
X020790Y006924D02*
X020790Y007444D01*
X021790Y007444D02*
X021790Y006924D01*
X022790Y006924D02*
X022790Y007444D01*
X020790Y008236D02*
X020790Y008756D01*
X019790Y008756D02*
X019790Y008236D01*
X018790Y008236D02*
X018790Y008756D01*
X017790Y008756D02*
X017790Y008236D01*
X016790Y008236D02*
X016790Y008756D01*
X015362Y008558D02*
X014842Y008558D01*
X012362Y008558D02*
X011842Y008558D01*
X011842Y007558D02*
X012362Y007558D01*
X014842Y007558D02*
X015362Y007558D01*
X015362Y009746D02*
X014842Y009746D01*
X012362Y009746D02*
X011842Y009746D01*
X011842Y010746D02*
X012362Y010746D01*
X014842Y010746D02*
X015362Y010746D01*
X015362Y011746D02*
X014842Y011746D01*
X012362Y011746D02*
X011842Y011746D01*
X026102Y009568D02*
X026102Y009048D01*
X027102Y009048D02*
X027102Y009568D01*
X028102Y009568D02*
X028102Y009048D01*
X028102Y006568D02*
X028102Y006048D01*
X027102Y006048D02*
X027102Y006568D01*
X026102Y006568D02*
X026102Y006048D01*
D16*
X022790Y007246D02*
X022790Y007246D01*
X022790Y007496D01*
X021790Y008496D01*
X020790Y008496D01*
X020852Y008496D01*
X021290Y008496D01*
X021290Y002996D01*
X020540Y002246D01*
X020540Y001933D01*
X019040Y002433D02*
X020290Y003683D01*
X020290Y004808D01*
X019915Y005183D01*
X019352Y005183D01*
X018790Y005746D01*
X018790Y007183D01*
X018790Y007184D01*
X019790Y007184D02*
X019790Y008496D01*
X019790Y008558D01*
X019790Y008558D01*
X019790Y008496D02*
X019790Y008496D01*
X019290Y007871D02*
X018790Y008371D01*
X018790Y008496D01*
X018790Y009683D01*
X017727Y010746D01*
X015102Y010746D01*
X015102Y011746D02*
X014977Y011746D01*
X016352Y009433D02*
X017227Y009433D01*
X017790Y008871D01*
X017790Y008496D01*
X017790Y008434D01*
X017790Y008433D01*
X018290Y007933D01*
X017790Y007371D02*
X016790Y008371D01*
X016790Y008496D01*
X016790Y008496D01*
X016790Y008496D01*
X016790Y008496D01*
X016790Y008496D01*
X016790Y008371D02*
X016790Y008308D01*
X016165Y007683D01*
X016165Y004933D01*
X015540Y004308D01*
X015102Y004308D01*
X016540Y002871D02*
X017290Y003621D01*
X017290Y006684D01*
X016790Y007184D01*
X017790Y007184D02*
X017790Y007183D01*
X017790Y007184D02*
X017790Y007371D01*
X019790Y007184D02*
X019790Y007184D01*
X019290Y006371D02*
X020790Y004871D01*
X020790Y004183D01*
X020790Y004184D01*
X019790Y004184D02*
X019727Y004121D01*
X019727Y003558D01*
X018540Y002371D01*
X018540Y001933D01*
X018540Y001933D01*
X017540Y001933D02*
X017540Y001933D01*
X017540Y002746D01*
X017790Y002996D01*
X017790Y004183D01*
X017790Y004184D01*
X018290Y004996D02*
X018790Y004496D01*
X018790Y004184D01*
X016540Y002871D02*
X016540Y001933D01*
X016540Y001933D01*
X016540Y001871D01*
X015540Y001933D02*
X015540Y001933D01*
X015540Y001433D01*
X015977Y000996D01*
X018727Y000996D01*
X019040Y001308D01*
X022540Y001933D02*
X022540Y001933D01*
X022602Y001933D01*
X023352Y002683D01*
X023352Y009683D01*
X024040Y010371D01*
X028290Y010371D01*
X018790Y008496D02*
X018790Y008496D01*
X016352Y009433D02*
X015915Y008996D01*
X015915Y008121D01*
X015352Y007558D01*
X015102Y007558D01*
X002774Y009301D02*
X002602Y009301D01*
X002602Y009246D01*
X002602Y011301D02*
X002774Y011301D01*
X002540Y005164D02*
X002554Y005148D01*
X002571Y005134D01*
X002590Y005122D01*
X002610Y005113D01*
X002631Y005107D01*
X002653Y005104D01*
X002675Y005105D01*
X002697Y005108D01*
X002718Y005114D01*
X002737Y005124D01*
X002756Y005136D01*
X002540Y005165D02*
X002540Y005183D01*
X002755Y003137D02*
X002738Y003149D01*
X002719Y003158D01*
X002698Y003163D01*
X002677Y003165D01*
X002656Y003163D01*
X002635Y003158D01*
X002616Y003149D01*
X002598Y003136D01*
X002583Y003121D01*
X002756Y001136D02*
X002740Y001120D01*
X002722Y001107D01*
X002702Y001097D01*
X002680Y001090D01*
X002658Y001086D01*
X002635Y001086D01*
X002613Y001090D01*
X002591Y001097D01*
X002571Y001107D01*
X002553Y001121D01*
D17*
X006602Y003433D02*
X007665Y003433D01*
X007665Y007558D02*
X006415Y007558D01*
X006352Y011496D02*
X007602Y011496D01*
X026665Y005496D02*
X027102Y005933D01*
X027102Y006308D01*
X027102Y006308D01*
X028102Y006308D02*
X028102Y006308D01*
X028102Y005871D01*
X027540Y005308D01*
X027540Y005271D01*
X026665Y005496D02*
X026665Y003683D01*
X027540Y003496D02*
X027540Y003121D01*
X027102Y002683D01*
X026665Y002683D01*
X027540Y003496D02*
X027540Y004471D01*
X027540Y004471D01*
X028602Y003871D02*
X028602Y003433D01*
X028602Y003433D01*
X028602Y003871D02*
X029227Y004496D01*
X029852Y003871D01*
X027602Y003433D02*
X027540Y003496D01*
X029852Y002871D02*
X029852Y002871D01*
X031441Y001283D01*
X032530Y001283D01*
X032530Y003283D02*
X033602Y004355D01*
X033602Y005621D01*
X030602Y005621D02*
X030477Y005496D01*
X029227Y005496D01*
X029227Y005746D01*
X028665Y006308D01*
X028102Y006308D01*
X030227Y008371D02*
X029602Y009161D01*
X029552Y009211D01*
X032505Y009211D01*
X032540Y009246D01*
X030227Y008371D02*
X029602Y009058D01*
X028290Y010371D01*
X029602Y011808D02*
X031915Y011808D01*
X032540Y011246D01*
D18*
X029602Y011808D03*
D19*
X002553Y001121D02*
X002540Y001121D01*
X002553Y001121D02*
X005227Y001121D01*
X005540Y001433D01*
X007665Y000871D02*
X007915Y000621D01*
X011852Y000621D01*
X012102Y000746D01*
X010415Y001684D02*
X010401Y001682D01*
X010388Y001678D01*
X010376Y001670D01*
X010366Y001660D01*
X010358Y001648D01*
X010354Y001635D01*
X010352Y001621D01*
X010352Y001596D01*
X008702Y001596D01*
X008540Y001434D01*
X008540Y001433D01*
X007665Y000871D02*
X007665Y003433D01*
X008665Y003433D02*
X009519Y002600D01*
X009519Y002600D01*
X009690Y002433D01*
X010352Y002396D01*
X010352Y002433D01*
X009790Y002871D02*
X009519Y002600D01*
X009790Y002871D02*
X009790Y003433D01*
X010790Y003433D02*
X010790Y003433D01*
X011665Y004308D01*
X012102Y004308D01*
X010540Y004933D02*
X010540Y006121D01*
X010290Y006121D01*
X010040Y006158D01*
X009140Y006158D01*
X008540Y005558D01*
X007915Y004746D02*
X007665Y004996D01*
X007665Y007558D01*
X008665Y007558D02*
X009440Y007558D01*
X010040Y006958D01*
X010040Y007433D01*
X010165Y007558D01*
X011165Y007558D02*
X011477Y007558D01*
X011665Y007559D01*
X012102Y007558D01*
X010040Y006958D02*
X010040Y006933D01*
X010540Y006558D02*
X010540Y004933D01*
X009602Y004746D02*
X009540Y004933D01*
X009602Y004746D02*
X007915Y004746D01*
X005540Y005558D02*
X005165Y005183D01*
X002540Y005183D01*
X005290Y003121D02*
X005602Y003433D01*
X005290Y003121D02*
X002584Y003121D01*
X002756Y003136D01*
X002756Y001136D02*
X002553Y001121D01*
X010415Y001683D02*
X012040Y001683D01*
X012102Y001746D01*
X012102Y002871D01*
X012102Y003308D01*
X012102Y006558D02*
X010540Y006558D01*
X005415Y007558D02*
X002602Y007558D01*
X002602Y007301D01*
X002774Y007301D01*
X007602Y008933D02*
X007852Y008683D01*
X009540Y008683D01*
X010102Y009246D01*
X010227Y010121D02*
X011102Y009246D01*
X011602Y009746D01*
X012102Y009746D01*
X010227Y010121D02*
X009977Y010121D01*
X009977Y010096D01*
X009077Y010096D01*
X008477Y009496D01*
X007602Y008933D02*
X007602Y011496D01*
X008602Y011496D02*
X009377Y011496D01*
X009977Y010896D01*
X009977Y011371D01*
X010102Y011496D01*
X011102Y011496D02*
X011102Y011308D01*
X011665Y010746D01*
X012102Y010746D01*
X009977Y010871D02*
X009977Y010896D01*
X005352Y011496D02*
X002602Y011496D01*
X002602Y011301D01*
X002602Y009496D02*
X005477Y009496D01*
X002602Y009496D02*
X002602Y009301D01*
D20*
X030227Y008371D03*
D21*
X019290Y007871D02*
X019290Y006371D01*
X018290Y004996D02*
X018290Y007933D01*
X019040Y002433D02*
X019040Y001308D01*
M02*
