%
M48
M72
T01C0.0236
T02C0.0315
T03C0.0320
T04C0.0360
T05C0.0400
T06C0.0470
%
T01
X4413Y8371
T02
X5038Y11808
T03
X6538Y9308
X7538Y9308
X8538Y9308
X13851Y8496
X14851Y8496
X15851Y8496
X16851Y8496
X17851Y8496
X19538Y8558
X19538Y7558
X17851Y7184
X16851Y7184
X15851Y7184
X14851Y7184
X13851Y7184
X12851Y7184
X11851Y7184
X8538Y6308
X7538Y6308
X6538Y6308
X5413Y5496
X7101Y5271
X7101Y4471
X5413Y4496
X4788Y3871
X6038Y3433
X7038Y3433
X7976Y3683
X7976Y2683
X4788Y2871
X11851Y4184
X12851Y4184
X13851Y4184
X14851Y4184
X15851Y4184
X16851Y4184
X17851Y4184
X19538Y4308
X19538Y3308
X22538Y3308
X23851Y3433
X24851Y3433
X25976Y3433
X26976Y3433
X28038Y3433
X29038Y3433
X25101Y4933
X24101Y4933
X22538Y5308
X24601Y6158
X24601Y6958
X24476Y7558
X23476Y7558
X22538Y7558
X22538Y6558
X19538Y6558
X19538Y5308
X22538Y4308
X24288Y2396
X22538Y1746
X24288Y1596
X22538Y746
X25976Y7558
X26976Y7558
X28226Y7558
X29226Y7558
X24538Y9246
X23538Y9246
X22538Y9746
X24663Y10096
X24663Y10896
X24538Y11496
X23538Y11496
X22538Y11746
X22538Y10746
X19538Y10746
X19538Y11746
X19538Y9746
X22538Y8558
X26038Y11496
X27038Y11496
X28288Y11496
X29288Y11496
T04
X29163Y9496
X26163Y9496
X26101Y5558
X29101Y5558
X29101Y1433
X26101Y1433
X4038Y5621
X1038Y5621
T05
X12101Y1933
X13101Y1933
X14101Y1933
X15101Y1933
X16101Y1933
X17101Y1933
X18101Y1933
X19101Y1933
T06
X2111Y1283
X2111Y3283
X2101Y9246
X2101Y11246
X31866Y11301
X31866Y9301
X31866Y7301
X31885Y5136
X31885Y3136
X31885Y1136
M30
