G75*
G70*
%OFA0B0*%
%FSLAX24Y24*%
%IPPOS*%
%LPD*%
%AMOC8*
5,1,8,0,0,1.08239X$1,22.5*
%
%ADD10R,0.1080X0.0850*%
%ADD11C,0.0705*%
%ADD12C,0.0600*%
%ADD13OC8,0.0560*%
%ADD14OC8,0.0520*%
%ADD15C,0.0520*%
%ADD16C,0.0520*%
%ADD17C,0.0240*%
%ADD18C,0.0475*%
%ADD19C,0.0396*%
%ADD20C,0.0160*%
D10*
X005088Y009211D03*
X005078Y010951D03*
D11*
X002464Y001283D02*
X001758Y001283D01*
X001758Y003283D02*
X002464Y003283D01*
X002453Y009246D02*
X001748Y009246D01*
X001748Y011246D02*
X002453Y011246D01*
X031514Y011301D02*
X032219Y011301D01*
X032219Y009301D02*
X031514Y009301D01*
X031514Y007301D02*
X032219Y007301D01*
X032237Y005136D02*
X031532Y005136D01*
X031532Y003136D02*
X032237Y003136D01*
X032237Y001136D02*
X031532Y001136D01*
D12*
X019101Y001633D02*
X019101Y002233D01*
X018101Y002233D02*
X018101Y001633D01*
X017101Y001633D02*
X017101Y002233D01*
X016101Y002233D02*
X016101Y001633D01*
X015101Y001633D02*
X015101Y002233D01*
X014101Y002233D02*
X014101Y001633D01*
X013101Y001633D02*
X013101Y002233D01*
X012101Y002233D02*
X012101Y001633D01*
D13*
X004038Y005621D03*
X001038Y005621D03*
X026101Y005558D03*
X029101Y005558D03*
X029163Y009496D03*
X026163Y009496D03*
X026101Y001433D03*
X029101Y001433D03*
D14*
X024288Y002396D03*
X023851Y003433D03*
X024851Y003433D03*
X025976Y003433D03*
X028038Y003433D03*
X029038Y003433D03*
X025101Y004933D03*
X024601Y006958D03*
X024476Y007558D03*
X023476Y007558D03*
X025976Y007558D03*
X028226Y007558D03*
X029226Y007558D03*
X024538Y009246D03*
X024663Y010896D03*
X024538Y011496D03*
X023538Y011496D03*
X026038Y011496D03*
X028288Y011496D03*
X029288Y011496D03*
X007976Y003683D03*
X007038Y003433D03*
X007976Y002683D03*
X004788Y002871D03*
X004788Y003871D03*
X005413Y004496D03*
X007101Y004471D03*
X022538Y000746D03*
D15*
X024288Y001596D03*
X022538Y001746D03*
X026976Y003433D03*
X024101Y004933D03*
X024601Y006158D03*
X026976Y007558D03*
X023538Y009246D03*
X024663Y010096D03*
X027038Y011496D03*
X007101Y005271D03*
X005413Y005496D03*
X006038Y003433D03*
D16*
X011851Y003924D02*
X011851Y004444D01*
X012851Y004444D02*
X012851Y003924D01*
X013851Y003924D02*
X013851Y004444D01*
X014851Y004444D02*
X014851Y003924D01*
X015851Y003924D02*
X015851Y004444D01*
X016851Y004444D02*
X016851Y003924D01*
X017851Y003924D02*
X017851Y004444D01*
X019278Y004308D02*
X019798Y004308D01*
X022278Y004308D02*
X022798Y004308D01*
X022798Y003308D02*
X022278Y003308D01*
X019798Y003308D02*
X019278Y003308D01*
X019278Y005308D02*
X019798Y005308D01*
X022278Y005308D02*
X022798Y005308D01*
X022798Y006558D02*
X022278Y006558D01*
X019798Y006558D02*
X019278Y006558D01*
X017851Y006924D02*
X017851Y007444D01*
X016851Y007444D02*
X016851Y006924D01*
X015851Y006924D02*
X015851Y007444D01*
X014851Y007444D02*
X014851Y006924D01*
X013851Y006924D02*
X013851Y007444D01*
X012851Y007444D02*
X012851Y006924D01*
X011851Y006924D02*
X011851Y007444D01*
X013851Y008236D02*
X013851Y008756D01*
X014851Y008756D02*
X014851Y008236D01*
X015851Y008236D02*
X015851Y008756D01*
X016851Y008756D02*
X016851Y008236D01*
X017851Y008236D02*
X017851Y008756D01*
X019278Y008558D02*
X019798Y008558D01*
X022278Y008558D02*
X022798Y008558D01*
X022798Y007558D02*
X022278Y007558D01*
X019798Y007558D02*
X019278Y007558D01*
X019278Y009746D02*
X019798Y009746D01*
X022278Y009746D02*
X022798Y009746D01*
X022798Y010746D02*
X022278Y010746D01*
X019798Y010746D02*
X019278Y010746D01*
X019278Y011746D02*
X019798Y011746D01*
X022278Y011746D02*
X022798Y011746D01*
X008538Y009568D02*
X008538Y009048D01*
X007538Y009048D02*
X007538Y009568D01*
X006538Y009568D02*
X006538Y009048D01*
X006538Y006568D02*
X006538Y006048D01*
X007538Y006048D02*
X007538Y006568D01*
X008538Y006568D02*
X008538Y006048D01*
D17*
X011288Y006085D02*
X018762Y006085D01*
X018685Y006162D02*
X018882Y005965D01*
X019139Y005858D01*
X019663Y005858D01*
X019663Y005788D01*
X019538Y005788D01*
X019183Y005788D01*
X019006Y005715D01*
X018871Y005580D01*
X018798Y005404D01*
X018798Y005309D01*
X019538Y005309D01*
X019538Y005788D01*
X019538Y005309D01*
X019538Y005309D01*
X019538Y005308D01*
X018798Y005308D01*
X018798Y005213D01*
X018871Y005037D01*
X018970Y004938D01*
X018882Y004902D01*
X018685Y004705D01*
X018578Y004448D01*
X018578Y004169D01*
X018685Y003912D01*
X018788Y003808D01*
X018685Y003705D01*
X018578Y003448D01*
X018578Y003169D01*
X018685Y002912D01*
X018720Y002877D01*
X018682Y002861D01*
X018601Y002780D01*
X018520Y002861D01*
X018248Y002973D01*
X017954Y002973D01*
X017682Y002861D01*
X017601Y002780D01*
X017520Y002861D01*
X017248Y002973D01*
X016954Y002973D01*
X016682Y002861D01*
X016601Y002780D01*
X016520Y002861D01*
X016248Y002973D01*
X015954Y002973D01*
X015682Y002861D01*
X015601Y002780D01*
X015520Y002861D01*
X015248Y002973D01*
X014954Y002973D01*
X014682Y002861D01*
X014601Y002780D01*
X014520Y002861D01*
X014248Y002973D01*
X013954Y002973D01*
X013682Y002861D01*
X013473Y002653D01*
X013457Y002613D01*
X013395Y002674D01*
X013204Y002753D01*
X013101Y002753D01*
X013101Y001934D01*
X013101Y001934D01*
X013101Y002753D01*
X012997Y002753D01*
X012806Y002674D01*
X012745Y002613D01*
X012728Y002653D01*
X012520Y002861D01*
X012248Y002973D01*
X011954Y002973D01*
X011682Y002861D01*
X011473Y002653D01*
X011361Y002381D01*
X011361Y001486D01*
X011473Y001214D01*
X011682Y001006D01*
X011954Y000893D01*
X012248Y000893D01*
X012520Y001006D01*
X012728Y001214D01*
X012745Y001254D01*
X012806Y001193D01*
X012997Y001113D01*
X013101Y001113D01*
X013204Y001113D01*
X013395Y001193D01*
X013457Y001254D01*
X013473Y001214D01*
X013682Y001006D01*
X013954Y000893D01*
X014248Y000893D01*
X014520Y001006D01*
X014601Y001087D01*
X014682Y001006D01*
X014954Y000893D01*
X015248Y000893D01*
X015520Y001006D01*
X015601Y001087D01*
X015682Y001006D01*
X015954Y000893D01*
X016248Y000893D01*
X016520Y001006D01*
X016601Y001087D01*
X016682Y001006D01*
X016954Y000893D01*
X017248Y000893D01*
X017520Y001006D01*
X017601Y001087D01*
X017682Y001006D01*
X017954Y000893D01*
X018248Y000893D01*
X018520Y001006D01*
X018601Y001087D01*
X018682Y001006D01*
X018954Y000893D01*
X019248Y000893D01*
X019520Y001006D01*
X019663Y001149D01*
X019663Y000640D01*
X011288Y000640D01*
X011288Y006496D01*
X011454Y006330D01*
X011711Y006224D01*
X011990Y006224D01*
X012247Y006330D01*
X012444Y006527D01*
X012481Y006615D01*
X012579Y006517D01*
X012755Y006444D01*
X012851Y006444D01*
X012946Y006444D01*
X013123Y006517D01*
X013221Y006615D01*
X013257Y006527D01*
X013454Y006330D01*
X013711Y006224D01*
X013990Y006224D01*
X014247Y006330D01*
X014351Y006434D01*
X014454Y006330D01*
X014711Y006224D01*
X014990Y006224D01*
X015247Y006330D01*
X015351Y006434D01*
X015454Y006330D01*
X015711Y006224D01*
X015990Y006224D01*
X016247Y006330D01*
X016351Y006434D01*
X016454Y006330D01*
X016711Y006224D01*
X016990Y006224D01*
X017247Y006330D01*
X017351Y006434D01*
X017454Y006330D01*
X017711Y006224D01*
X017990Y006224D01*
X018247Y006330D01*
X018444Y006527D01*
X018551Y006784D01*
X018551Y007583D01*
X018444Y007840D01*
X018551Y008097D01*
X018551Y008895D01*
X018444Y009153D01*
X018247Y009349D01*
X017990Y009456D01*
X017711Y009456D01*
X017454Y009349D01*
X017351Y009246D01*
X017247Y009349D01*
X016990Y009456D01*
X016711Y009456D01*
X016454Y009349D01*
X016351Y009246D01*
X016247Y009349D01*
X015990Y009456D01*
X015711Y009456D01*
X015454Y009349D01*
X015371Y009266D01*
X015371Y009724D01*
X015292Y009916D01*
X015145Y010062D01*
X014583Y010624D01*
X014392Y010703D01*
X014185Y010703D01*
X007622Y010703D01*
X007431Y010624D01*
X007285Y010478D01*
X007097Y010290D01*
X007018Y010099D01*
X007018Y010078D01*
X006935Y010162D01*
X006677Y010268D01*
X006399Y010268D01*
X006288Y010223D01*
X006288Y010558D01*
X005838Y010558D01*
X005838Y010858D01*
X005171Y010858D01*
X005171Y011043D01*
X005838Y011043D01*
X005838Y011467D01*
X005709Y011596D01*
X005171Y011596D01*
X005171Y011044D01*
X004986Y011044D01*
X004986Y011596D01*
X004601Y011596D01*
X004601Y011806D01*
X018798Y011806D01*
X018798Y011746D01*
X019538Y011746D01*
X019538Y011746D01*
X018798Y011746D01*
X018798Y011650D01*
X018871Y011474D01*
X018970Y011376D01*
X018882Y011339D01*
X018685Y011142D01*
X018578Y010885D01*
X018578Y010607D01*
X018685Y010349D01*
X018788Y010246D01*
X018685Y010142D01*
X018578Y009885D01*
X018578Y009607D01*
X018685Y009349D01*
X018882Y009153D01*
X019139Y009046D01*
X019663Y009046D01*
X019663Y009038D01*
X019538Y009038D01*
X019183Y009038D01*
X019006Y008965D01*
X018871Y008830D01*
X018798Y008654D01*
X018798Y008559D01*
X019538Y008559D01*
X019538Y009038D01*
X019538Y008559D01*
X019538Y008559D01*
X019538Y008558D01*
X018798Y008558D01*
X018798Y008463D01*
X018871Y008287D01*
X018970Y008188D01*
X018882Y008152D01*
X018685Y007955D01*
X018578Y007698D01*
X018578Y007419D01*
X018685Y007162D01*
X018788Y007058D01*
X018685Y006955D01*
X018578Y006698D01*
X018578Y006419D01*
X018685Y006162D01*
X018618Y006323D02*
X018230Y006323D01*
X018458Y006562D02*
X018578Y006562D01*
X018551Y006800D02*
X018621Y006800D01*
X018551Y007039D02*
X018769Y007039D01*
X018637Y007277D02*
X018551Y007277D01*
X018551Y007516D02*
X018578Y007516D01*
X018602Y007754D02*
X018480Y007754D01*
X018508Y007993D02*
X018723Y007993D01*
X018551Y008231D02*
X018926Y008231D01*
X018798Y008470D02*
X018551Y008470D01*
X018551Y008709D02*
X018821Y008709D01*
X018988Y008947D02*
X018529Y008947D01*
X018411Y009186D02*
X018849Y009186D01*
X018654Y009424D02*
X018067Y009424D01*
X018578Y009663D02*
X015371Y009663D01*
X015371Y009424D02*
X015635Y009424D01*
X016067Y009424D02*
X016635Y009424D01*
X017067Y009424D02*
X017635Y009424D01*
X018585Y009901D02*
X015297Y009901D01*
X015067Y010140D02*
X018684Y010140D01*
X018673Y010378D02*
X014829Y010378D01*
X014590Y010617D02*
X018578Y010617D01*
X018578Y010855D02*
X005838Y010855D01*
X005838Y010617D02*
X007424Y010617D01*
X007185Y010378D02*
X006288Y010378D01*
X006957Y010140D02*
X007035Y010140D01*
X008538Y009308D02*
X012851Y009308D01*
X012851Y007184D01*
X012851Y007184D01*
X012851Y007923D01*
X012946Y007923D01*
X013123Y007850D01*
X013221Y007752D01*
X013257Y007840D01*
X013151Y008097D01*
X013151Y008895D01*
X013257Y009153D01*
X013454Y009349D01*
X013711Y009456D01*
X013990Y009456D01*
X014247Y009349D01*
X014331Y009266D01*
X014331Y009406D01*
X014073Y009663D01*
X009018Y009663D01*
X014074Y009663D01*
X014067Y009424D02*
X014312Y009424D01*
X013635Y009424D02*
X011235Y009424D01*
X011226Y009433D02*
X009018Y009433D01*
X009018Y009663D01*
X011226Y009433D02*
X011288Y009371D01*
X011288Y007871D01*
X011454Y008037D01*
X011711Y008143D01*
X011990Y008143D01*
X012247Y008037D01*
X012444Y007840D01*
X012481Y007752D01*
X012579Y007850D01*
X012755Y007923D01*
X012851Y007923D01*
X012851Y007184D01*
X012851Y007183D02*
X012851Y006444D01*
X012851Y007183D01*
X012851Y007183D01*
X012851Y007277D02*
X012851Y007277D01*
X012851Y007039D02*
X012851Y007039D01*
X012851Y006800D02*
X012851Y006800D01*
X012851Y006562D02*
X012851Y006562D01*
X013168Y006562D02*
X013243Y006562D01*
X013471Y006323D02*
X012230Y006323D01*
X012458Y006562D02*
X012534Y006562D01*
X011471Y006323D02*
X011288Y006323D01*
X011288Y005846D02*
X019663Y005846D01*
X019538Y005607D02*
X019538Y005607D01*
X019538Y005369D02*
X019538Y005369D01*
X018898Y005607D02*
X011288Y005607D01*
X011288Y005369D02*
X018798Y005369D01*
X018832Y005130D02*
X017022Y005130D01*
X016990Y005143D02*
X016711Y005143D01*
X016454Y005037D01*
X016351Y004933D01*
X016247Y005037D01*
X015990Y005143D01*
X015711Y005143D01*
X015454Y005037D01*
X015351Y004933D01*
X015247Y005037D01*
X014990Y005143D01*
X014711Y005143D01*
X014454Y005037D01*
X014351Y004933D01*
X014247Y005037D01*
X013990Y005143D01*
X013711Y005143D01*
X013454Y005037D01*
X013351Y004933D01*
X013247Y005037D01*
X012990Y005143D01*
X012711Y005143D01*
X012454Y005037D01*
X012257Y004840D01*
X012221Y004752D01*
X012123Y004850D01*
X011946Y004923D01*
X011851Y004923D01*
X011851Y004184D01*
X011851Y004184D01*
X011851Y004923D01*
X011755Y004923D01*
X011579Y004850D01*
X011444Y004715D01*
X011371Y004539D01*
X011371Y004184D01*
X011850Y004184D01*
X011850Y004183D01*
X011371Y004183D01*
X011371Y003828D01*
X011444Y003652D01*
X011579Y003517D01*
X011755Y003444D01*
X011851Y003444D01*
X011946Y003444D01*
X012123Y003517D01*
X012221Y003615D01*
X012257Y003527D01*
X012454Y003330D01*
X012711Y003224D01*
X012990Y003224D01*
X013247Y003330D01*
X013351Y003434D01*
X013454Y003330D01*
X013711Y003224D01*
X013990Y003224D01*
X014247Y003330D01*
X014351Y003434D01*
X014454Y003330D01*
X014711Y003224D01*
X014990Y003224D01*
X015247Y003330D01*
X015351Y003434D01*
X015454Y003330D01*
X015711Y003224D01*
X015990Y003224D01*
X016247Y003330D01*
X016351Y003434D01*
X016454Y003330D01*
X016711Y003224D01*
X016990Y003224D01*
X017247Y003330D01*
X017444Y003527D01*
X017481Y003615D01*
X017579Y003517D01*
X017755Y003444D01*
X017851Y003444D01*
X017946Y003444D01*
X018123Y003517D01*
X018258Y003652D01*
X018331Y003828D01*
X018331Y004183D01*
X017851Y004183D01*
X017851Y003444D01*
X017851Y004183D01*
X017851Y004183D01*
X017851Y004184D01*
X017851Y004184D01*
X017851Y004923D01*
X017946Y004923D01*
X018123Y004850D01*
X018258Y004715D01*
X018331Y004539D01*
X018331Y004184D01*
X017851Y004184D01*
X017851Y004923D01*
X017755Y004923D01*
X017579Y004850D01*
X017481Y004752D01*
X017444Y004840D01*
X017247Y005037D01*
X016990Y005143D01*
X016680Y005130D02*
X016022Y005130D01*
X015680Y005130D02*
X015022Y005130D01*
X014680Y005130D02*
X014022Y005130D01*
X013680Y005130D02*
X013022Y005130D01*
X012680Y005130D02*
X011288Y005130D01*
X011288Y004892D02*
X011679Y004892D01*
X011851Y004892D02*
X011851Y004892D01*
X012023Y004892D02*
X012309Y004892D01*
X011851Y004653D02*
X011851Y004653D01*
X011851Y004415D02*
X011851Y004415D01*
X011851Y004183D02*
X011851Y003444D01*
X011851Y004183D01*
X011851Y004183D01*
X011851Y004176D02*
X011851Y004176D01*
X011851Y003938D02*
X011851Y003938D01*
X011851Y003699D02*
X011851Y003699D01*
X011851Y003461D02*
X011851Y003461D01*
X011987Y003461D02*
X012324Y003461D01*
X011714Y003461D02*
X011288Y003461D01*
X011288Y003699D02*
X011424Y003699D01*
X011371Y003938D02*
X011288Y003938D01*
X011288Y004176D02*
X011371Y004176D01*
X011371Y004415D02*
X011288Y004415D01*
X011288Y004653D02*
X011418Y004653D01*
X011288Y003222D02*
X018578Y003222D01*
X018584Y003461D02*
X017987Y003461D01*
X017851Y003461D02*
X017851Y003461D01*
X017714Y003461D02*
X017378Y003461D01*
X017851Y003699D02*
X017851Y003699D01*
X018277Y003699D02*
X018682Y003699D01*
X018674Y003938D02*
X018331Y003938D01*
X017851Y003938D02*
X017851Y003938D01*
X017851Y004176D02*
X017851Y004176D01*
X018331Y004176D02*
X018578Y004176D01*
X018578Y004415D02*
X018331Y004415D01*
X017851Y004415D02*
X017851Y004415D01*
X017851Y004653D02*
X017851Y004653D01*
X017851Y004892D02*
X017851Y004892D01*
X018023Y004892D02*
X018872Y004892D01*
X018664Y004653D02*
X018283Y004653D01*
X017679Y004892D02*
X017392Y004892D01*
X017471Y006323D02*
X017230Y006323D01*
X016471Y006323D02*
X016230Y006323D01*
X015471Y006323D02*
X015230Y006323D01*
X014471Y006323D02*
X014230Y006323D01*
X012851Y007516D02*
X012851Y007516D01*
X012851Y007754D02*
X012851Y007754D01*
X013219Y007754D02*
X013222Y007754D01*
X013194Y007993D02*
X012291Y007993D01*
X012480Y007754D02*
X012483Y007754D01*
X013151Y008231D02*
X011288Y008231D01*
X011288Y007993D02*
X011410Y007993D01*
X011288Y008470D02*
X013151Y008470D01*
X013151Y008709D02*
X011288Y008709D01*
X011288Y008947D02*
X013172Y008947D01*
X013290Y009186D02*
X011288Y009186D01*
X005838Y011094D02*
X018665Y011094D01*
X018875Y011332D02*
X005838Y011332D01*
X005734Y011571D02*
X018831Y011571D01*
X019538Y008947D02*
X019538Y008947D01*
X019538Y008709D02*
X019538Y008709D01*
X005088Y009211D02*
X004338Y008421D01*
X004413Y008371D01*
X005078Y010951D02*
X005078Y011956D01*
X005038Y011808D01*
X004986Y011571D02*
X005171Y011571D01*
X005171Y011332D02*
X004986Y011332D01*
X004986Y011094D02*
X005171Y011094D01*
X011288Y002983D02*
X018655Y002983D01*
X013566Y002745D02*
X013225Y002745D01*
X013101Y002745D02*
X013101Y002745D01*
X012977Y002745D02*
X012636Y002745D01*
X013101Y002506D02*
X013101Y002506D01*
X013101Y002268D02*
X013101Y002268D01*
X013101Y002029D02*
X013101Y002029D01*
X013101Y001933D02*
X013101Y001113D01*
X013101Y001933D01*
X013101Y001933D01*
X013101Y001791D02*
X013101Y001791D01*
X013101Y001552D02*
X013101Y001552D01*
X013101Y001314D02*
X013101Y001314D01*
X013612Y001075D02*
X012589Y001075D01*
X011612Y001075D02*
X011288Y001075D01*
X011288Y000837D02*
X019663Y000837D01*
X019663Y001075D02*
X019589Y001075D01*
X018612Y001075D02*
X018589Y001075D01*
X017612Y001075D02*
X017589Y001075D01*
X016612Y001075D02*
X016589Y001075D01*
X015612Y001075D02*
X015589Y001075D01*
X014612Y001075D02*
X014589Y001075D01*
X011432Y001314D02*
X011288Y001314D01*
X011288Y001552D02*
X011361Y001552D01*
X011361Y001791D02*
X011288Y001791D01*
X011288Y002029D02*
X011361Y002029D01*
X011361Y002268D02*
X011288Y002268D01*
X011288Y002506D02*
X011413Y002506D01*
X011288Y002745D02*
X011566Y002745D01*
D18*
X005038Y011808D03*
D19*
X004413Y008371D03*
D20*
X007538Y009308D02*
X007538Y009308D01*
X007538Y009996D01*
X007726Y010183D01*
X014288Y010183D01*
X014851Y009621D01*
X014851Y008496D01*
M02*
