G75*
G70*
%OFA0B0*%
%FSLAX24Y24*%
%IPPOS*%
%LPD*%
%AMOC8*
5,1,8,0,0,1.08239X$1,22.5*
%
%ADD10R,0.1160X0.0930*%
%ADD11C,0.0785*%
%ADD12C,0.0680*%
%ADD13OC8,0.0640*%
%ADD14OC8,0.0600*%
%ADD15C,0.0600*%
%ADD16C,0.0600*%
%ADD17C,0.0555*%
%ADD18C,0.0476*%
D10*
X005088Y009211D03*
X005078Y010951D03*
D11*
X002464Y001283D02*
X001758Y001283D01*
X001758Y003283D02*
X002464Y003283D01*
X002453Y009246D02*
X001748Y009246D01*
X001748Y011246D02*
X002453Y011246D01*
X031514Y011301D02*
X032219Y011301D01*
X032219Y009301D02*
X031514Y009301D01*
X031514Y007301D02*
X032219Y007301D01*
X032237Y005136D02*
X031532Y005136D01*
X031532Y003136D02*
X032237Y003136D01*
X032237Y001136D02*
X031532Y001136D01*
D12*
X019101Y001633D02*
X019101Y002233D01*
X018101Y002233D02*
X018101Y001633D01*
X017101Y001633D02*
X017101Y002233D01*
X016101Y002233D02*
X016101Y001633D01*
X015101Y001633D02*
X015101Y002233D01*
X014101Y002233D02*
X014101Y001633D01*
X013101Y001633D02*
X013101Y002233D01*
X012101Y002233D02*
X012101Y001633D01*
D13*
X004038Y005621D03*
X001038Y005621D03*
X026101Y005558D03*
X029101Y005558D03*
X029163Y009496D03*
X026163Y009496D03*
X026101Y001433D03*
X029101Y001433D03*
D14*
X024288Y002396D03*
X023851Y003433D03*
X024851Y003433D03*
X025976Y003433D03*
X028038Y003433D03*
X029038Y003433D03*
X025101Y004933D03*
X024601Y006958D03*
X024476Y007558D03*
X023476Y007558D03*
X025976Y007558D03*
X028226Y007558D03*
X029226Y007558D03*
X024538Y009246D03*
X024663Y010896D03*
X024538Y011496D03*
X023538Y011496D03*
X026038Y011496D03*
X028288Y011496D03*
X029288Y011496D03*
X007976Y003683D03*
X007038Y003433D03*
X007976Y002683D03*
X004788Y002871D03*
X004788Y003871D03*
X005413Y004496D03*
X007101Y004471D03*
X022538Y000746D03*
D15*
X024288Y001596D03*
X022538Y001746D03*
X026976Y003433D03*
X024101Y004933D03*
X024601Y006158D03*
X026976Y007558D03*
X023538Y009246D03*
X024663Y010096D03*
X027038Y011496D03*
X007101Y005271D03*
X005413Y005496D03*
X006038Y003433D03*
D16*
X011851Y003924D02*
X011851Y004444D01*
X012851Y004444D02*
X012851Y003924D01*
X013851Y003924D02*
X013851Y004444D01*
X014851Y004444D02*
X014851Y003924D01*
X015851Y003924D02*
X015851Y004444D01*
X016851Y004444D02*
X016851Y003924D01*
X017851Y003924D02*
X017851Y004444D01*
X019278Y004308D02*
X019798Y004308D01*
X022278Y004308D02*
X022798Y004308D01*
X022798Y003308D02*
X022278Y003308D01*
X019798Y003308D02*
X019278Y003308D01*
X019278Y005308D02*
X019798Y005308D01*
X022278Y005308D02*
X022798Y005308D01*
X022798Y006558D02*
X022278Y006558D01*
X019798Y006558D02*
X019278Y006558D01*
X017851Y006924D02*
X017851Y007444D01*
X016851Y007444D02*
X016851Y006924D01*
X015851Y006924D02*
X015851Y007444D01*
X014851Y007444D02*
X014851Y006924D01*
X013851Y006924D02*
X013851Y007444D01*
X012851Y007444D02*
X012851Y006924D01*
X011851Y006924D02*
X011851Y007444D01*
X013851Y008236D02*
X013851Y008756D01*
X014851Y008756D02*
X014851Y008236D01*
X015851Y008236D02*
X015851Y008756D01*
X016851Y008756D02*
X016851Y008236D01*
X017851Y008236D02*
X017851Y008756D01*
X019278Y008558D02*
X019798Y008558D01*
X022278Y008558D02*
X022798Y008558D01*
X022798Y007558D02*
X022278Y007558D01*
X019798Y007558D02*
X019278Y007558D01*
X019278Y009746D02*
X019798Y009746D01*
X022278Y009746D02*
X022798Y009746D01*
X022798Y010746D02*
X022278Y010746D01*
X019798Y010746D02*
X019278Y010746D01*
X019278Y011746D02*
X019798Y011746D01*
X022278Y011746D02*
X022798Y011746D01*
X008538Y009568D02*
X008538Y009048D01*
X007538Y009048D02*
X007538Y009568D01*
X006538Y009568D02*
X006538Y009048D01*
X006538Y006568D02*
X006538Y006048D01*
X007538Y006048D02*
X007538Y006568D01*
X008538Y006568D02*
X008538Y006048D01*
D17*
X005038Y011808D03*
D18*
X004413Y008371D03*
M02*
