G75*
G70*
%OFA0B0*%
%FSLAX24Y24*%
%IPPOS*%
%LPD*%
%AMOC8*
5,1,8,0,0,1.08239X$1,22.5*
%
%ADD10C,0.0680*%
%ADD11OC8,0.0710*%
%ADD12C,0.0710*%
%ADD13R,0.0930X0.1160*%
%ADD14C,0.0848*%
%ADD15C,0.0600*%
%ADD16C,0.0785*%
%ADD17OC8,0.0600*%
%ADD18OC8,0.0555*%
D10*
X010216Y013726D02*
X010816Y013726D01*
X010816Y014726D02*
X010216Y014726D01*
X010216Y015726D02*
X010816Y015726D01*
X010816Y016726D02*
X010216Y016726D01*
X010216Y017726D02*
X010816Y017726D01*
X010816Y018726D02*
X010216Y018726D01*
X010216Y019726D02*
X010816Y019726D01*
X010816Y020726D02*
X010216Y020726D01*
X010216Y021726D02*
X010816Y021726D01*
X010716Y023101D02*
X011316Y023101D01*
X011316Y024101D02*
X010716Y024101D01*
X010716Y025101D02*
X011316Y025101D01*
D11*
X007766Y020901D03*
D12*
X007766Y022301D03*
D13*
X002676Y029901D03*
X000936Y029891D03*
D14*
X002641Y027976D03*
X002641Y024976D03*
X006641Y027976D03*
X009641Y027976D03*
X008766Y011726D03*
X007766Y011726D03*
X007766Y007726D03*
X007766Y004726D03*
X004766Y011726D03*
X003766Y011726D03*
X003766Y007726D03*
X003766Y004726D03*
X000766Y011726D03*
X011766Y011726D03*
X011766Y007726D03*
X011766Y004726D03*
D15*
X009526Y024101D02*
X009006Y024101D01*
X005526Y024101D02*
X005006Y024101D01*
X001516Y023736D02*
X001516Y023216D01*
X001516Y027216D02*
X001516Y027736D01*
D16*
X001141Y002703D02*
X001141Y001998D01*
X003141Y001998D02*
X003141Y002703D01*
X005141Y002703D02*
X005141Y001998D01*
X007391Y001998D02*
X007391Y002703D01*
X009391Y002703D02*
X009391Y001998D01*
X011391Y001998D02*
X011391Y002703D01*
X011266Y031123D02*
X011266Y031828D01*
X009266Y031828D02*
X009266Y031123D01*
X005266Y031123D02*
X005266Y031828D01*
X003266Y031828D02*
X003266Y031123D01*
X001266Y031123D02*
X001266Y031828D01*
D17*
X002141Y022601D03*
X002141Y021601D03*
X002016Y019976D03*
X002891Y018601D03*
X002891Y017601D03*
X002266Y016726D03*
X002766Y015976D03*
X002266Y014601D03*
X002766Y013851D03*
X002766Y012851D03*
X003766Y012851D03*
X004641Y013851D03*
X005141Y014601D03*
X005641Y013851D03*
X005516Y012851D03*
X006516Y012851D03*
X007516Y015101D03*
X008016Y015851D03*
X007641Y017101D03*
X007641Y018101D03*
X008641Y017601D03*
X008641Y016601D03*
X008516Y015101D03*
X008141Y013851D03*
X008641Y013101D03*
X009516Y015226D03*
X009766Y012851D03*
X010766Y012851D03*
X009516Y020226D03*
X007641Y013101D03*
X006266Y016976D03*
X006266Y017976D03*
X005641Y015976D03*
X005141Y016726D03*
X004641Y015976D03*
X004016Y016976D03*
X004016Y019976D03*
X004141Y021601D03*
X004141Y022601D03*
X004891Y022101D03*
X005266Y021351D03*
X005266Y018351D03*
X003016Y019976D03*
X002891Y022101D03*
X001766Y015976D03*
X001766Y013851D03*
D18*
X003641Y014601D03*
X003641Y015976D03*
X001141Y021601D03*
X001141Y022601D03*
X006391Y015976D03*
X006391Y014851D03*
X007016Y014351D03*
X009266Y014351D03*
M02*
