G75*
G70*
%OFA0B0*%
%FSLAX24Y24*%
%IPPOS*%
%LPD*%
%AMOC8*
5,1,8,0,0,1.08239X$1,22.5*
%
%ADD10C,0.0000*%
%ADD11C,0.0120*%
%ADD12C,0.0060*%
%ADD13C,0.0050*%
%ADD14C,0.0080*%
%ADD15C,0.0040*%
%ADD16R,0.0200X0.0800*%
%ADD17R,0.0750X0.0200*%
%ADD18C,0.0240*%
%ADD19R,0.0240X0.0340*%
%ADD20R,0.0800X0.0200*%
%ADD21R,0.0200X0.0750*%
D10*
X000137Y000101D02*
X012387Y000101D01*
X012387Y004351D01*
X012262Y004351D01*
X012262Y033726D01*
X000262Y033726D01*
X000262Y028976D01*
X001762Y028976D01*
X002262Y028476D01*
X002262Y027101D01*
X001762Y026601D01*
X000262Y026601D01*
X000262Y004351D01*
X000137Y004351D01*
X000137Y000101D01*
D11*
X009157Y032766D02*
X009157Y033687D01*
X008697Y033226D02*
X009618Y033226D01*
X010947Y033601D02*
X011868Y033601D01*
D12*
X012262Y033126D02*
X012262Y032176D01*
X011662Y032176D01*
X012262Y032176D02*
X012262Y029576D01*
X012262Y029476D01*
X006262Y029476D01*
X006262Y029576D01*
X006262Y032176D01*
X006262Y033126D01*
X012262Y033126D01*
X011062Y030106D02*
X011064Y030134D01*
X011070Y030161D01*
X011079Y030187D01*
X011092Y030212D01*
X011109Y030235D01*
X011128Y030255D01*
X011150Y030272D01*
X011174Y030286D01*
X011200Y030296D01*
X011227Y030303D01*
X011255Y030306D01*
X011283Y030305D01*
X011310Y030300D01*
X011337Y030291D01*
X011362Y030279D01*
X011385Y030264D01*
X011406Y030245D01*
X011424Y030224D01*
X011439Y030200D01*
X011450Y030174D01*
X011458Y030148D01*
X011462Y030120D01*
X011462Y030092D01*
X011458Y030064D01*
X011450Y030038D01*
X011439Y030012D01*
X011424Y029988D01*
X011406Y029967D01*
X011385Y029948D01*
X011362Y029933D01*
X011337Y029921D01*
X011310Y029912D01*
X011283Y029907D01*
X011255Y029906D01*
X011227Y029909D01*
X011200Y029916D01*
X011174Y029926D01*
X011150Y029940D01*
X011128Y029957D01*
X011109Y029977D01*
X011092Y030000D01*
X011079Y030025D01*
X011070Y030051D01*
X011064Y030078D01*
X011062Y030106D01*
X010862Y032176D02*
X009662Y032176D01*
X009062Y030106D02*
X009064Y030134D01*
X009070Y030161D01*
X009079Y030187D01*
X009092Y030212D01*
X009109Y030235D01*
X009128Y030255D01*
X009150Y030272D01*
X009174Y030286D01*
X009200Y030296D01*
X009227Y030303D01*
X009255Y030306D01*
X009283Y030305D01*
X009310Y030300D01*
X009337Y030291D01*
X009362Y030279D01*
X009385Y030264D01*
X009406Y030245D01*
X009424Y030224D01*
X009439Y030200D01*
X009450Y030174D01*
X009458Y030148D01*
X009462Y030120D01*
X009462Y030092D01*
X009458Y030064D01*
X009450Y030038D01*
X009439Y030012D01*
X009424Y029988D01*
X009406Y029967D01*
X009385Y029948D01*
X009362Y029933D01*
X009337Y029921D01*
X009310Y029912D01*
X009283Y029907D01*
X009255Y029906D01*
X009227Y029909D01*
X009200Y029916D01*
X009174Y029926D01*
X009150Y029940D01*
X009128Y029957D01*
X009109Y029977D01*
X009092Y030000D01*
X009079Y030025D01*
X009070Y030051D01*
X009064Y030078D01*
X009062Y030106D01*
X008862Y032176D02*
X007662Y032176D01*
X007814Y033006D02*
X007814Y033646D01*
X007601Y033646D02*
X008028Y033646D01*
X007383Y033646D02*
X006956Y033006D01*
X006739Y033006D02*
X006312Y033006D01*
X006312Y033646D01*
X006739Y033646D01*
X006525Y033326D02*
X006312Y033326D01*
X006094Y033326D02*
X005667Y033326D01*
X005881Y033113D02*
X005881Y033540D01*
X006262Y032176D02*
X006862Y032176D01*
X007383Y033006D02*
X006956Y033646D01*
X007062Y030106D02*
X007064Y030134D01*
X007070Y030161D01*
X007079Y030187D01*
X007092Y030212D01*
X007109Y030235D01*
X007128Y030255D01*
X007150Y030272D01*
X007174Y030286D01*
X007200Y030296D01*
X007227Y030303D01*
X007255Y030306D01*
X007283Y030305D01*
X007310Y030300D01*
X007337Y030291D01*
X007362Y030279D01*
X007385Y030264D01*
X007406Y030245D01*
X007424Y030224D01*
X007439Y030200D01*
X007450Y030174D01*
X007458Y030148D01*
X007462Y030120D01*
X007462Y030092D01*
X007458Y030064D01*
X007450Y030038D01*
X007439Y030012D01*
X007424Y029988D01*
X007406Y029967D01*
X007385Y029948D01*
X007362Y029933D01*
X007337Y029921D01*
X007310Y029912D01*
X007283Y029907D01*
X007255Y029906D01*
X007227Y029909D01*
X007200Y029916D01*
X007174Y029926D01*
X007150Y029940D01*
X007128Y029957D01*
X007109Y029977D01*
X007092Y030000D01*
X007079Y030025D01*
X007070Y030051D01*
X007064Y030078D01*
X007062Y030106D01*
X006262Y029576D02*
X012262Y029576D01*
X011312Y026376D02*
X010712Y026376D01*
X010695Y026374D01*
X010678Y026370D01*
X010662Y026363D01*
X010648Y026353D01*
X010635Y026340D01*
X010625Y026326D01*
X010618Y026310D01*
X010614Y026293D01*
X010612Y026276D01*
X010612Y024676D01*
X010614Y024659D01*
X010618Y024642D01*
X010625Y024626D01*
X010635Y024612D01*
X010648Y024599D01*
X010662Y024589D01*
X010678Y024582D01*
X010695Y024578D01*
X010712Y024576D01*
X011312Y024576D01*
X011329Y024578D01*
X011346Y024582D01*
X011362Y024589D01*
X011376Y024599D01*
X011389Y024612D01*
X011399Y024626D01*
X011406Y024642D01*
X011410Y024659D01*
X011412Y024676D01*
X011412Y026276D01*
X011410Y026293D01*
X011406Y026310D01*
X011399Y026326D01*
X011389Y026340D01*
X011376Y026353D01*
X011362Y026363D01*
X011346Y026370D01*
X011329Y026374D01*
X011312Y026376D01*
X011012Y025726D02*
X011012Y025476D01*
X010762Y025476D01*
X011012Y025476D02*
X010762Y025076D01*
X011262Y025076D01*
X011012Y025476D01*
X011262Y025476D01*
X011012Y025476D02*
X011012Y024876D01*
X009012Y019976D02*
X009014Y020020D01*
X009020Y020064D01*
X009030Y020107D01*
X009043Y020149D01*
X009060Y020190D01*
X009081Y020229D01*
X009105Y020266D01*
X009132Y020301D01*
X009162Y020333D01*
X009195Y020363D01*
X009231Y020389D01*
X009268Y020413D01*
X009308Y020432D01*
X009349Y020449D01*
X009392Y020461D01*
X009435Y020470D01*
X009479Y020475D01*
X009523Y020476D01*
X009567Y020473D01*
X009611Y020466D01*
X009654Y020455D01*
X009696Y020441D01*
X009736Y020423D01*
X009775Y020401D01*
X009811Y020377D01*
X009845Y020349D01*
X009877Y020318D01*
X009906Y020284D01*
X009932Y020248D01*
X009954Y020210D01*
X009973Y020170D01*
X009988Y020128D01*
X010000Y020086D01*
X010008Y020042D01*
X010012Y019998D01*
X010012Y019954D01*
X010008Y019910D01*
X010000Y019866D01*
X009988Y019824D01*
X009973Y019782D01*
X009954Y019742D01*
X009932Y019704D01*
X009906Y019668D01*
X009877Y019634D01*
X009845Y019603D01*
X009811Y019575D01*
X009775Y019551D01*
X009736Y019529D01*
X009696Y019511D01*
X009654Y019497D01*
X009611Y019486D01*
X009567Y019479D01*
X009523Y019476D01*
X009479Y019477D01*
X009435Y019482D01*
X009392Y019491D01*
X009349Y019503D01*
X009308Y019520D01*
X009268Y019539D01*
X009231Y019563D01*
X009195Y019589D01*
X009162Y019619D01*
X009132Y019651D01*
X009105Y019686D01*
X009081Y019723D01*
X009060Y019762D01*
X009043Y019803D01*
X009030Y019845D01*
X009020Y019888D01*
X009014Y019932D01*
X009012Y019976D01*
X008962Y019626D02*
X008962Y019476D01*
X008912Y019426D01*
X008912Y017526D01*
X008962Y017476D01*
X008962Y017326D01*
X008960Y017309D01*
X008956Y017292D01*
X008949Y017276D01*
X008939Y017262D01*
X008926Y017249D01*
X008912Y017239D01*
X008896Y017232D01*
X008879Y017228D01*
X008862Y017226D01*
X008162Y017226D02*
X008145Y017228D01*
X008128Y017232D01*
X008112Y017239D01*
X008098Y017249D01*
X008085Y017262D01*
X008075Y017276D01*
X008068Y017292D01*
X008064Y017309D01*
X008062Y017326D01*
X008062Y017476D01*
X008112Y017526D01*
X008112Y019426D01*
X008062Y019476D01*
X008062Y019626D01*
X008064Y019643D01*
X008068Y019660D01*
X008075Y019676D01*
X008085Y019690D01*
X008098Y019703D01*
X008112Y019713D01*
X008128Y019720D01*
X008145Y019724D01*
X008162Y019726D01*
X007662Y018901D02*
X007712Y018851D01*
X007712Y018701D01*
X007710Y018684D01*
X007706Y018667D01*
X007699Y018651D01*
X007689Y018637D01*
X007676Y018624D01*
X007662Y018614D01*
X007646Y018607D01*
X007629Y018603D01*
X007612Y018601D01*
X007662Y018901D02*
X007662Y020801D01*
X007712Y020851D01*
X007712Y021001D01*
X007710Y021018D01*
X007706Y021035D01*
X007699Y021051D01*
X007689Y021065D01*
X007676Y021078D01*
X007662Y021088D01*
X007646Y021095D01*
X007629Y021099D01*
X007612Y021101D01*
X006912Y021101D02*
X006895Y021099D01*
X006878Y021095D01*
X006862Y021088D01*
X006848Y021078D01*
X006835Y021065D01*
X006825Y021051D01*
X006818Y021035D01*
X006814Y021018D01*
X006812Y021001D01*
X006812Y020851D01*
X006862Y020801D01*
X006862Y018901D01*
X006812Y018851D01*
X006812Y018701D01*
X006814Y018684D01*
X006818Y018667D01*
X006825Y018651D01*
X006835Y018637D01*
X006848Y018624D01*
X006862Y018614D01*
X006878Y018607D01*
X006895Y018603D01*
X006912Y018601D01*
X005762Y017976D02*
X005764Y018020D01*
X005770Y018064D01*
X005780Y018107D01*
X005793Y018149D01*
X005810Y018190D01*
X005831Y018229D01*
X005855Y018266D01*
X005882Y018301D01*
X005912Y018333D01*
X005945Y018363D01*
X005981Y018389D01*
X006018Y018413D01*
X006058Y018432D01*
X006099Y018449D01*
X006142Y018461D01*
X006185Y018470D01*
X006229Y018475D01*
X006273Y018476D01*
X006317Y018473D01*
X006361Y018466D01*
X006404Y018455D01*
X006446Y018441D01*
X006486Y018423D01*
X006525Y018401D01*
X006561Y018377D01*
X006595Y018349D01*
X006627Y018318D01*
X006656Y018284D01*
X006682Y018248D01*
X006704Y018210D01*
X006723Y018170D01*
X006738Y018128D01*
X006750Y018086D01*
X006758Y018042D01*
X006762Y017998D01*
X006762Y017954D01*
X006758Y017910D01*
X006750Y017866D01*
X006738Y017824D01*
X006723Y017782D01*
X006704Y017742D01*
X006682Y017704D01*
X006656Y017668D01*
X006627Y017634D01*
X006595Y017603D01*
X006561Y017575D01*
X006525Y017551D01*
X006486Y017529D01*
X006446Y017511D01*
X006404Y017497D01*
X006361Y017486D01*
X006317Y017479D01*
X006273Y017476D01*
X006229Y017477D01*
X006185Y017482D01*
X006142Y017491D01*
X006099Y017503D01*
X006058Y017520D01*
X006018Y017539D01*
X005981Y017563D01*
X005945Y017589D01*
X005912Y017619D01*
X005882Y017651D01*
X005855Y017686D01*
X005831Y017723D01*
X005810Y017762D01*
X005793Y017803D01*
X005780Y017845D01*
X005770Y017888D01*
X005764Y017932D01*
X005762Y017976D01*
X004387Y018101D02*
X004389Y018145D01*
X004395Y018189D01*
X004405Y018232D01*
X004418Y018274D01*
X004435Y018315D01*
X004456Y018354D01*
X004480Y018391D01*
X004507Y018426D01*
X004537Y018458D01*
X004570Y018488D01*
X004606Y018514D01*
X004643Y018538D01*
X004683Y018557D01*
X004724Y018574D01*
X004767Y018586D01*
X004810Y018595D01*
X004854Y018600D01*
X004898Y018601D01*
X004942Y018598D01*
X004986Y018591D01*
X005029Y018580D01*
X005071Y018566D01*
X005111Y018548D01*
X005150Y018526D01*
X005186Y018502D01*
X005220Y018474D01*
X005252Y018443D01*
X005281Y018409D01*
X005307Y018373D01*
X005329Y018335D01*
X005348Y018295D01*
X005363Y018253D01*
X005375Y018211D01*
X005383Y018167D01*
X005387Y018123D01*
X005387Y018079D01*
X005383Y018035D01*
X005375Y017991D01*
X005363Y017949D01*
X005348Y017907D01*
X005329Y017867D01*
X005307Y017829D01*
X005281Y017793D01*
X005252Y017759D01*
X005220Y017728D01*
X005186Y017700D01*
X005150Y017676D01*
X005111Y017654D01*
X005071Y017636D01*
X005029Y017622D01*
X004986Y017611D01*
X004942Y017604D01*
X004898Y017601D01*
X004854Y017602D01*
X004810Y017607D01*
X004767Y017616D01*
X004724Y017628D01*
X004683Y017645D01*
X004643Y017664D01*
X004606Y017688D01*
X004570Y017714D01*
X004537Y017744D01*
X004507Y017776D01*
X004480Y017811D01*
X004456Y017848D01*
X004435Y017887D01*
X004418Y017928D01*
X004405Y017970D01*
X004395Y018013D01*
X004389Y018057D01*
X004387Y018101D01*
X003387Y017601D02*
X003389Y017645D01*
X003395Y017689D01*
X003405Y017732D01*
X003418Y017774D01*
X003435Y017815D01*
X003456Y017854D01*
X003480Y017891D01*
X003507Y017926D01*
X003537Y017958D01*
X003570Y017988D01*
X003606Y018014D01*
X003643Y018038D01*
X003683Y018057D01*
X003724Y018074D01*
X003767Y018086D01*
X003810Y018095D01*
X003854Y018100D01*
X003898Y018101D01*
X003942Y018098D01*
X003986Y018091D01*
X004029Y018080D01*
X004071Y018066D01*
X004111Y018048D01*
X004150Y018026D01*
X004186Y018002D01*
X004220Y017974D01*
X004252Y017943D01*
X004281Y017909D01*
X004307Y017873D01*
X004329Y017835D01*
X004348Y017795D01*
X004363Y017753D01*
X004375Y017711D01*
X004383Y017667D01*
X004387Y017623D01*
X004387Y017579D01*
X004383Y017535D01*
X004375Y017491D01*
X004363Y017449D01*
X004348Y017407D01*
X004329Y017367D01*
X004307Y017329D01*
X004281Y017293D01*
X004252Y017259D01*
X004220Y017228D01*
X004186Y017200D01*
X004150Y017176D01*
X004111Y017154D01*
X004071Y017136D01*
X004029Y017122D01*
X003986Y017111D01*
X003942Y017104D01*
X003898Y017101D01*
X003854Y017102D01*
X003810Y017107D01*
X003767Y017116D01*
X003724Y017128D01*
X003683Y017145D01*
X003643Y017164D01*
X003606Y017188D01*
X003570Y017214D01*
X003537Y017244D01*
X003507Y017276D01*
X003480Y017311D01*
X003456Y017348D01*
X003435Y017387D01*
X003418Y017428D01*
X003405Y017470D01*
X003395Y017513D01*
X003389Y017557D01*
X003387Y017601D01*
X003412Y016776D02*
X003412Y018676D01*
X003462Y018726D01*
X003462Y018876D01*
X003460Y018893D01*
X003456Y018910D01*
X003449Y018926D01*
X003439Y018940D01*
X003426Y018953D01*
X003412Y018963D01*
X003396Y018970D01*
X003379Y018974D01*
X003362Y018976D01*
X002662Y018976D01*
X002645Y018974D01*
X002628Y018970D01*
X002612Y018963D01*
X002598Y018953D01*
X002585Y018940D01*
X002575Y018926D01*
X002568Y018910D01*
X002564Y018893D01*
X002562Y018876D01*
X002562Y018726D01*
X002612Y018676D01*
X002612Y016776D01*
X002562Y016726D01*
X002562Y016576D01*
X002564Y016559D01*
X002568Y016542D01*
X002575Y016526D01*
X002585Y016512D01*
X002598Y016499D01*
X002612Y016489D01*
X002628Y016482D01*
X002645Y016478D01*
X002662Y016476D01*
X003362Y016476D01*
X003379Y016478D01*
X003396Y016482D01*
X003412Y016489D01*
X003426Y016499D01*
X003439Y016512D01*
X003449Y016526D01*
X003456Y016542D01*
X003460Y016559D01*
X003462Y016576D01*
X003462Y016726D01*
X003412Y016776D01*
X002512Y016976D02*
X002512Y016476D01*
X002262Y016226D01*
X002512Y015976D01*
X002512Y015476D01*
X002262Y015226D01*
X002512Y014976D01*
X002512Y014476D01*
X002262Y014226D01*
X002512Y013976D01*
X002512Y013476D01*
X002262Y013226D01*
X001762Y013226D01*
X001512Y013476D01*
X001512Y013976D01*
X001762Y014226D01*
X001512Y014476D01*
X001512Y014976D01*
X001762Y015226D01*
X001512Y015476D01*
X001512Y015976D01*
X001762Y016226D01*
X001512Y016476D01*
X001512Y016976D01*
X001762Y017226D01*
X001512Y017476D01*
X001512Y017976D01*
X001762Y018226D01*
X001512Y018476D01*
X001512Y018976D01*
X001762Y019226D01*
X001512Y019476D01*
X001512Y019976D01*
X001762Y020226D01*
X001512Y020476D01*
X001512Y020976D01*
X001762Y021226D01*
X001512Y021476D01*
X001512Y021976D01*
X001762Y022226D01*
X002262Y022226D01*
X002512Y021976D01*
X002512Y021476D01*
X002262Y021226D01*
X002512Y020976D01*
X002512Y020476D01*
X002262Y020226D01*
X001762Y020226D01*
X001762Y019226D02*
X002262Y019226D01*
X002512Y018976D01*
X002512Y018476D01*
X002262Y018226D01*
X002512Y017976D01*
X002512Y017476D01*
X002262Y017226D01*
X001762Y017226D01*
X001762Y018226D02*
X002262Y018226D01*
X002262Y019226D02*
X002512Y019476D01*
X002512Y019976D01*
X002262Y020226D01*
X002262Y021226D02*
X001762Y021226D01*
X001762Y022601D02*
X001262Y022601D01*
X001012Y022851D01*
X001012Y023351D01*
X001262Y023601D01*
X001012Y023851D01*
X001012Y024351D01*
X001262Y024601D01*
X001012Y024851D01*
X001012Y025351D01*
X001262Y025601D01*
X001762Y025601D01*
X002012Y025351D01*
X002012Y024851D01*
X001762Y024601D01*
X002012Y024351D01*
X002012Y023851D01*
X001762Y023601D01*
X002012Y023351D01*
X002012Y022851D01*
X001762Y022601D01*
X001762Y023601D02*
X001262Y023601D01*
X001262Y024601D02*
X001762Y024601D01*
X000262Y029476D02*
X000262Y029576D01*
X000262Y032176D01*
X000912Y032176D01*
X000262Y032176D02*
X000262Y033126D01*
X004262Y033126D01*
X004262Y032176D01*
X003612Y032176D01*
X002912Y032176D02*
X001612Y032176D01*
X001062Y030106D02*
X001064Y030134D01*
X001070Y030161D01*
X001079Y030187D01*
X001092Y030212D01*
X001109Y030235D01*
X001128Y030255D01*
X001150Y030272D01*
X001174Y030286D01*
X001200Y030296D01*
X001227Y030303D01*
X001255Y030306D01*
X001283Y030305D01*
X001310Y030300D01*
X001337Y030291D01*
X001362Y030279D01*
X001385Y030264D01*
X001406Y030245D01*
X001424Y030224D01*
X001439Y030200D01*
X001450Y030174D01*
X001458Y030148D01*
X001462Y030120D01*
X001462Y030092D01*
X001458Y030064D01*
X001450Y030038D01*
X001439Y030012D01*
X001424Y029988D01*
X001406Y029967D01*
X001385Y029948D01*
X001362Y029933D01*
X001337Y029921D01*
X001310Y029912D01*
X001283Y029907D01*
X001255Y029906D01*
X001227Y029909D01*
X001200Y029916D01*
X001174Y029926D01*
X001150Y029940D01*
X001128Y029957D01*
X001109Y029977D01*
X001092Y030000D01*
X001079Y030025D01*
X001070Y030051D01*
X001064Y030078D01*
X001062Y030106D01*
X000262Y029576D02*
X004262Y029576D01*
X004262Y029476D01*
X000262Y029476D01*
X003062Y030106D02*
X003064Y030134D01*
X003070Y030161D01*
X003079Y030187D01*
X003092Y030212D01*
X003109Y030235D01*
X003128Y030255D01*
X003150Y030272D01*
X003174Y030286D01*
X003200Y030296D01*
X003227Y030303D01*
X003255Y030306D01*
X003283Y030305D01*
X003310Y030300D01*
X003337Y030291D01*
X003362Y030279D01*
X003385Y030264D01*
X003406Y030245D01*
X003424Y030224D01*
X003439Y030200D01*
X003450Y030174D01*
X003458Y030148D01*
X003462Y030120D01*
X003462Y030092D01*
X003458Y030064D01*
X003450Y030038D01*
X003439Y030012D01*
X003424Y029988D01*
X003406Y029967D01*
X003385Y029948D01*
X003362Y029933D01*
X003337Y029921D01*
X003310Y029912D01*
X003283Y029907D01*
X003255Y029906D01*
X003227Y029909D01*
X003200Y029916D01*
X003174Y029926D01*
X003150Y029940D01*
X003128Y029957D01*
X003109Y029977D01*
X003092Y030000D01*
X003079Y030025D01*
X003070Y030051D01*
X003064Y030078D01*
X003062Y030106D01*
X004262Y029576D02*
X004262Y032176D01*
X004462Y024501D02*
X006062Y024501D01*
X006079Y024499D01*
X006096Y024495D01*
X006112Y024488D01*
X006126Y024478D01*
X006139Y024465D01*
X006149Y024451D01*
X006156Y024435D01*
X006160Y024418D01*
X006162Y024401D01*
X006162Y023801D01*
X006160Y023784D01*
X006156Y023767D01*
X006149Y023751D01*
X006139Y023737D01*
X006126Y023724D01*
X006112Y023714D01*
X006096Y023707D01*
X006079Y023703D01*
X006062Y023701D01*
X004462Y023701D01*
X004445Y023703D01*
X004428Y023707D01*
X004412Y023714D01*
X004398Y023724D01*
X004385Y023737D01*
X004375Y023751D01*
X004368Y023767D01*
X004364Y023784D01*
X004362Y023801D01*
X004362Y024401D01*
X004364Y024418D01*
X004368Y024435D01*
X004375Y024451D01*
X004385Y024465D01*
X004398Y024478D01*
X004412Y024488D01*
X004428Y024495D01*
X004445Y024499D01*
X004462Y024501D01*
X005012Y024101D02*
X005262Y024101D01*
X005262Y023851D01*
X005262Y024101D02*
X005262Y024351D01*
X005262Y024101D02*
X005662Y024351D01*
X005662Y023851D01*
X005262Y024101D01*
X005862Y024101D01*
X005362Y022801D02*
X005062Y022801D01*
X005212Y022951D02*
X005212Y022651D01*
X002762Y021601D02*
X002764Y021699D01*
X002772Y021797D01*
X002784Y021894D01*
X002800Y021991D01*
X002822Y022087D01*
X002848Y022182D01*
X002879Y022275D01*
X002914Y022366D01*
X002954Y022456D01*
X002998Y022544D01*
X003047Y022629D01*
X003099Y022712D01*
X003156Y022792D01*
X003216Y022870D01*
X003280Y022944D01*
X003348Y023015D01*
X003419Y023083D01*
X003493Y023147D01*
X003571Y023207D01*
X003651Y023264D01*
X003734Y023316D01*
X003819Y023365D01*
X003907Y023409D01*
X003997Y023449D01*
X004088Y023484D01*
X004181Y023515D01*
X004276Y023541D01*
X004372Y023563D01*
X004469Y023579D01*
X004566Y023591D01*
X004664Y023599D01*
X004762Y023601D01*
X004860Y023599D01*
X004958Y023591D01*
X005055Y023579D01*
X005152Y023563D01*
X005248Y023541D01*
X005343Y023515D01*
X005436Y023484D01*
X005527Y023449D01*
X005617Y023409D01*
X005705Y023365D01*
X005790Y023316D01*
X005873Y023264D01*
X005953Y023207D01*
X006031Y023147D01*
X006105Y023083D01*
X006176Y023015D01*
X006244Y022944D01*
X006308Y022870D01*
X006368Y022792D01*
X006425Y022712D01*
X006477Y022629D01*
X006526Y022544D01*
X006570Y022456D01*
X006610Y022366D01*
X006645Y022275D01*
X006676Y022182D01*
X006702Y022087D01*
X006724Y021991D01*
X006740Y021894D01*
X006752Y021797D01*
X006760Y021699D01*
X006762Y021601D01*
X006760Y021503D01*
X006752Y021405D01*
X006740Y021308D01*
X006724Y021211D01*
X006702Y021115D01*
X006676Y021020D01*
X006645Y020927D01*
X006610Y020836D01*
X006570Y020746D01*
X006526Y020658D01*
X006477Y020573D01*
X006425Y020490D01*
X006368Y020410D01*
X006308Y020332D01*
X006244Y020258D01*
X006176Y020187D01*
X006105Y020119D01*
X006031Y020055D01*
X005953Y019995D01*
X005873Y019938D01*
X005790Y019886D01*
X005705Y019837D01*
X005617Y019793D01*
X005527Y019753D01*
X005436Y019718D01*
X005343Y019687D01*
X005248Y019661D01*
X005152Y019639D01*
X005055Y019623D01*
X004958Y019611D01*
X004860Y019603D01*
X004762Y019601D01*
X004664Y019603D01*
X004566Y019611D01*
X004469Y019623D01*
X004372Y019639D01*
X004276Y019661D01*
X004181Y019687D01*
X004088Y019718D01*
X003997Y019753D01*
X003907Y019793D01*
X003819Y019837D01*
X003734Y019886D01*
X003651Y019938D01*
X003571Y019995D01*
X003493Y020055D01*
X003419Y020119D01*
X003348Y020187D01*
X003280Y020258D01*
X003216Y020332D01*
X003156Y020410D01*
X003099Y020490D01*
X003047Y020573D01*
X002998Y020658D01*
X002954Y020746D01*
X002914Y020836D01*
X002879Y020927D01*
X002848Y021020D01*
X002822Y021115D01*
X002800Y021211D01*
X002784Y021308D01*
X002772Y021405D01*
X002764Y021503D01*
X002762Y021601D01*
X002262Y017226D02*
X002512Y016976D01*
X002262Y016226D02*
X001762Y016226D01*
X001762Y015226D02*
X002262Y015226D01*
X002262Y014226D02*
X001762Y014226D01*
X002062Y013151D02*
X002062Y012851D01*
X002062Y012551D01*
X002062Y012851D02*
X002462Y012551D01*
X002462Y013151D01*
X002062Y012851D01*
X000137Y004351D02*
X006137Y004351D01*
X006137Y004251D01*
X006137Y001651D01*
X006137Y000701D01*
X000137Y000701D01*
X000137Y001651D01*
X000737Y001651D01*
X000137Y001651D02*
X000137Y004251D01*
X000137Y004351D01*
X000137Y004251D02*
X006137Y004251D01*
X006387Y004251D02*
X006387Y004351D01*
X012387Y004351D01*
X012387Y004251D01*
X012387Y001651D01*
X012387Y000701D01*
X006387Y000701D01*
X006387Y001651D01*
X006987Y001651D01*
X006387Y001651D02*
X006387Y004251D01*
X012387Y004251D01*
X011187Y003721D02*
X011189Y003749D01*
X011195Y003776D01*
X011204Y003802D01*
X011217Y003827D01*
X011234Y003850D01*
X011253Y003870D01*
X011275Y003887D01*
X011299Y003901D01*
X011325Y003911D01*
X011352Y003918D01*
X011380Y003921D01*
X011408Y003920D01*
X011435Y003915D01*
X011462Y003906D01*
X011487Y003894D01*
X011510Y003879D01*
X011531Y003860D01*
X011549Y003839D01*
X011564Y003815D01*
X011575Y003789D01*
X011583Y003763D01*
X011587Y003735D01*
X011587Y003707D01*
X011583Y003679D01*
X011575Y003653D01*
X011564Y003627D01*
X011549Y003603D01*
X011531Y003582D01*
X011510Y003563D01*
X011487Y003548D01*
X011462Y003536D01*
X011435Y003527D01*
X011408Y003522D01*
X011380Y003521D01*
X011352Y003524D01*
X011325Y003531D01*
X011299Y003541D01*
X011275Y003555D01*
X011253Y003572D01*
X011234Y003592D01*
X011217Y003615D01*
X011204Y003640D01*
X011195Y003666D01*
X011189Y003693D01*
X011187Y003721D01*
X010987Y001651D02*
X009787Y001651D01*
X009187Y003721D02*
X009189Y003749D01*
X009195Y003776D01*
X009204Y003802D01*
X009217Y003827D01*
X009234Y003850D01*
X009253Y003870D01*
X009275Y003887D01*
X009299Y003901D01*
X009325Y003911D01*
X009352Y003918D01*
X009380Y003921D01*
X009408Y003920D01*
X009435Y003915D01*
X009462Y003906D01*
X009487Y003894D01*
X009510Y003879D01*
X009531Y003860D01*
X009549Y003839D01*
X009564Y003815D01*
X009575Y003789D01*
X009583Y003763D01*
X009587Y003735D01*
X009587Y003707D01*
X009583Y003679D01*
X009575Y003653D01*
X009564Y003627D01*
X009549Y003603D01*
X009531Y003582D01*
X009510Y003563D01*
X009487Y003548D01*
X009462Y003536D01*
X009435Y003527D01*
X009408Y003522D01*
X009380Y003521D01*
X009352Y003524D01*
X009325Y003531D01*
X009299Y003541D01*
X009275Y003555D01*
X009253Y003572D01*
X009234Y003592D01*
X009217Y003615D01*
X009204Y003640D01*
X009195Y003666D01*
X009189Y003693D01*
X009187Y003721D01*
X008987Y001651D02*
X007787Y001651D01*
X007187Y003721D02*
X007189Y003749D01*
X007195Y003776D01*
X007204Y003802D01*
X007217Y003827D01*
X007234Y003850D01*
X007253Y003870D01*
X007275Y003887D01*
X007299Y003901D01*
X007325Y003911D01*
X007352Y003918D01*
X007380Y003921D01*
X007408Y003920D01*
X007435Y003915D01*
X007462Y003906D01*
X007487Y003894D01*
X007510Y003879D01*
X007531Y003860D01*
X007549Y003839D01*
X007564Y003815D01*
X007575Y003789D01*
X007583Y003763D01*
X007587Y003735D01*
X007587Y003707D01*
X007583Y003679D01*
X007575Y003653D01*
X007564Y003627D01*
X007549Y003603D01*
X007531Y003582D01*
X007510Y003563D01*
X007487Y003548D01*
X007462Y003536D01*
X007435Y003527D01*
X007408Y003522D01*
X007380Y003521D01*
X007352Y003524D01*
X007325Y003531D01*
X007299Y003541D01*
X007275Y003555D01*
X007253Y003572D01*
X007234Y003592D01*
X007217Y003615D01*
X007204Y003640D01*
X007195Y003666D01*
X007189Y003693D01*
X007187Y003721D01*
X006137Y001651D02*
X005537Y001651D01*
X004937Y003721D02*
X004939Y003749D01*
X004945Y003776D01*
X004954Y003802D01*
X004967Y003827D01*
X004984Y003850D01*
X005003Y003870D01*
X005025Y003887D01*
X005049Y003901D01*
X005075Y003911D01*
X005102Y003918D01*
X005130Y003921D01*
X005158Y003920D01*
X005185Y003915D01*
X005212Y003906D01*
X005237Y003894D01*
X005260Y003879D01*
X005281Y003860D01*
X005299Y003839D01*
X005314Y003815D01*
X005325Y003789D01*
X005333Y003763D01*
X005337Y003735D01*
X005337Y003707D01*
X005333Y003679D01*
X005325Y003653D01*
X005314Y003627D01*
X005299Y003603D01*
X005281Y003582D01*
X005260Y003563D01*
X005237Y003548D01*
X005212Y003536D01*
X005185Y003527D01*
X005158Y003522D01*
X005130Y003521D01*
X005102Y003524D01*
X005075Y003531D01*
X005049Y003541D01*
X005025Y003555D01*
X005003Y003572D01*
X004984Y003592D01*
X004967Y003615D01*
X004954Y003640D01*
X004945Y003666D01*
X004939Y003693D01*
X004937Y003721D01*
X004737Y001651D02*
X003537Y001651D01*
X002937Y003721D02*
X002939Y003749D01*
X002945Y003776D01*
X002954Y003802D01*
X002967Y003827D01*
X002984Y003850D01*
X003003Y003870D01*
X003025Y003887D01*
X003049Y003901D01*
X003075Y003911D01*
X003102Y003918D01*
X003130Y003921D01*
X003158Y003920D01*
X003185Y003915D01*
X003212Y003906D01*
X003237Y003894D01*
X003260Y003879D01*
X003281Y003860D01*
X003299Y003839D01*
X003314Y003815D01*
X003325Y003789D01*
X003333Y003763D01*
X003337Y003735D01*
X003337Y003707D01*
X003333Y003679D01*
X003325Y003653D01*
X003314Y003627D01*
X003299Y003603D01*
X003281Y003582D01*
X003260Y003563D01*
X003237Y003548D01*
X003212Y003536D01*
X003185Y003527D01*
X003158Y003522D01*
X003130Y003521D01*
X003102Y003524D01*
X003075Y003531D01*
X003049Y003541D01*
X003025Y003555D01*
X003003Y003572D01*
X002984Y003592D01*
X002967Y003615D01*
X002954Y003640D01*
X002945Y003666D01*
X002939Y003693D01*
X002937Y003721D01*
X002737Y001651D02*
X001537Y001651D01*
X000937Y003721D02*
X000939Y003749D01*
X000945Y003776D01*
X000954Y003802D01*
X000967Y003827D01*
X000984Y003850D01*
X001003Y003870D01*
X001025Y003887D01*
X001049Y003901D01*
X001075Y003911D01*
X001102Y003918D01*
X001130Y003921D01*
X001158Y003920D01*
X001185Y003915D01*
X001212Y003906D01*
X001237Y003894D01*
X001260Y003879D01*
X001281Y003860D01*
X001299Y003839D01*
X001314Y003815D01*
X001325Y003789D01*
X001333Y003763D01*
X001337Y003735D01*
X001337Y003707D01*
X001333Y003679D01*
X001325Y003653D01*
X001314Y003627D01*
X001299Y003603D01*
X001281Y003582D01*
X001260Y003563D01*
X001237Y003548D01*
X001212Y003536D01*
X001185Y003527D01*
X001158Y003522D01*
X001130Y003521D01*
X001102Y003524D01*
X001075Y003531D01*
X001049Y003541D01*
X001025Y003555D01*
X001003Y003572D01*
X000984Y003592D01*
X000967Y003615D01*
X000954Y003640D01*
X000945Y003666D01*
X000939Y003693D01*
X000937Y003721D01*
X006312Y012551D02*
X006312Y012851D01*
X006312Y013151D01*
X006312Y012851D02*
X006712Y012551D01*
X006712Y013151D01*
X006312Y012851D01*
X008962Y019626D02*
X008960Y019643D01*
X008956Y019660D01*
X008949Y019676D01*
X008939Y019690D01*
X008926Y019703D01*
X008912Y019713D01*
X008896Y019720D01*
X008879Y019724D01*
X008862Y019726D01*
X009137Y018601D02*
X009139Y018645D01*
X009145Y018689D01*
X009155Y018732D01*
X009168Y018774D01*
X009185Y018815D01*
X009206Y018854D01*
X009230Y018891D01*
X009257Y018926D01*
X009287Y018958D01*
X009320Y018988D01*
X009356Y019014D01*
X009393Y019038D01*
X009433Y019057D01*
X009474Y019074D01*
X009517Y019086D01*
X009560Y019095D01*
X009604Y019100D01*
X009648Y019101D01*
X009692Y019098D01*
X009736Y019091D01*
X009779Y019080D01*
X009821Y019066D01*
X009861Y019048D01*
X009900Y019026D01*
X009936Y019002D01*
X009970Y018974D01*
X010002Y018943D01*
X010031Y018909D01*
X010057Y018873D01*
X010079Y018835D01*
X010098Y018795D01*
X010113Y018753D01*
X010125Y018711D01*
X010133Y018667D01*
X010137Y018623D01*
X010137Y018579D01*
X010133Y018535D01*
X010125Y018491D01*
X010113Y018449D01*
X010098Y018407D01*
X010079Y018367D01*
X010057Y018329D01*
X010031Y018293D01*
X010002Y018259D01*
X009970Y018228D01*
X009936Y018200D01*
X009900Y018176D01*
X009861Y018154D01*
X009821Y018136D01*
X009779Y018122D01*
X009736Y018111D01*
X009692Y018104D01*
X009648Y018101D01*
X009604Y018102D01*
X009560Y018107D01*
X009517Y018116D01*
X009474Y018128D01*
X009433Y018145D01*
X009393Y018164D01*
X009356Y018188D01*
X009320Y018214D01*
X009287Y018244D01*
X009257Y018276D01*
X009230Y018311D01*
X009206Y018348D01*
X009185Y018387D01*
X009168Y018428D01*
X009155Y018470D01*
X009145Y018513D01*
X009139Y018557D01*
X009137Y018601D01*
X009062Y013151D02*
X009062Y012851D01*
X009062Y012551D01*
X009062Y012851D02*
X009462Y012551D01*
X009462Y013151D01*
X009062Y012851D01*
X011787Y001651D02*
X012387Y001651D01*
D13*
X010062Y009351D02*
X010062Y009651D01*
X010062Y009501D02*
X009612Y009501D01*
X009762Y009351D01*
X009612Y009811D02*
X010062Y010111D01*
X009612Y010111D01*
X009612Y009811D02*
X010062Y009811D01*
X009837Y010271D02*
X009837Y010572D01*
X009762Y010732D02*
X009612Y010882D01*
X010062Y010882D01*
X010062Y010732D02*
X010062Y011032D01*
X010062Y011417D02*
X009612Y011417D01*
X009837Y011192D01*
X009837Y011492D01*
X009912Y011653D02*
X009837Y011728D01*
X009837Y011878D01*
X009912Y011953D01*
X009987Y011953D01*
X010062Y011878D01*
X010062Y011728D01*
X009987Y011653D01*
X009912Y011653D01*
X009837Y011728D02*
X009762Y011653D01*
X009687Y011653D01*
X009612Y011728D01*
X009612Y011878D01*
X009687Y011953D01*
X009762Y011953D01*
X009837Y011878D01*
X009912Y012113D02*
X010062Y012263D01*
X009912Y012413D01*
X009612Y012413D01*
X009612Y012113D02*
X009912Y012113D01*
X010137Y012576D02*
X010362Y012576D01*
X010437Y012651D01*
X010437Y012951D01*
X010362Y013026D01*
X010137Y013026D01*
X010137Y012576D01*
X010597Y012801D02*
X010898Y012801D01*
X010823Y012576D02*
X010823Y013026D01*
X010597Y012801D01*
X010375Y013751D02*
X010149Y013751D01*
X011087Y013201D02*
X011124Y013252D01*
X011159Y013305D01*
X011191Y013361D01*
X011219Y013418D01*
X011243Y013477D01*
X011264Y013537D01*
X011281Y013598D01*
X011295Y013660D01*
X011304Y013723D01*
X011310Y013786D01*
X011312Y013850D01*
X011310Y013914D01*
X011304Y013977D01*
X011295Y014040D01*
X011282Y014102D01*
X011264Y014163D01*
X011244Y014223D01*
X011219Y014282D01*
X011192Y014339D01*
X011160Y014395D01*
X011126Y014448D01*
X011088Y014499D01*
X011047Y014548D01*
X011003Y014594D01*
X010957Y014638D01*
X010908Y014679D01*
X010857Y014716D01*
X010803Y014751D01*
X010748Y014782D01*
X010691Y014810D01*
X010632Y014834D01*
X010572Y014854D01*
X010375Y015876D02*
X010149Y015876D01*
X011087Y015326D02*
X011124Y015377D01*
X011159Y015430D01*
X011191Y015486D01*
X011219Y015543D01*
X011243Y015602D01*
X011264Y015662D01*
X011281Y015723D01*
X011295Y015785D01*
X011304Y015848D01*
X011310Y015911D01*
X011312Y015975D01*
X011310Y016039D01*
X011304Y016102D01*
X011295Y016165D01*
X011282Y016227D01*
X011264Y016288D01*
X011244Y016348D01*
X011219Y016407D01*
X011192Y016464D01*
X011160Y016520D01*
X011126Y016573D01*
X011088Y016624D01*
X011047Y016673D01*
X011003Y016719D01*
X010957Y016763D01*
X010908Y016804D01*
X010857Y016841D01*
X010803Y016876D01*
X010748Y016907D01*
X010691Y016935D01*
X010632Y016959D01*
X010572Y016979D01*
X010432Y016966D02*
X010282Y017116D01*
X010732Y017116D01*
X010732Y016966D02*
X010732Y017267D01*
X010657Y017427D02*
X010357Y017727D01*
X010657Y017727D01*
X010732Y017652D01*
X010732Y017502D01*
X010657Y017427D01*
X010357Y017427D01*
X010282Y017502D01*
X010282Y017652D01*
X010357Y017727D01*
X010282Y017887D02*
X010732Y017887D01*
X010582Y017887D02*
X010732Y018112D01*
X010762Y018350D02*
X010312Y018350D01*
X010312Y018575D01*
X010387Y018650D01*
X010537Y018650D01*
X010612Y018575D01*
X010612Y018350D01*
X010612Y018500D02*
X010762Y018650D01*
X010537Y018810D02*
X010537Y019111D01*
X010762Y019036D02*
X010312Y019036D01*
X010537Y018810D01*
X010432Y018112D02*
X010582Y017887D01*
X010892Y019746D02*
X011192Y019746D01*
X011042Y019746D02*
X011042Y020196D01*
X010892Y020046D01*
X010703Y020401D02*
X010552Y020401D01*
X010477Y020476D01*
X010477Y020551D01*
X010552Y020626D01*
X010703Y020626D01*
X010778Y020551D01*
X010778Y020476D01*
X010703Y020401D01*
X010703Y020626D02*
X010778Y020701D01*
X010778Y020776D01*
X010703Y020851D01*
X010552Y020851D01*
X010477Y020776D01*
X010477Y020701D01*
X010552Y020626D01*
X010487Y021056D02*
X010487Y021214D01*
X010242Y020851D02*
X010317Y020776D01*
X010317Y020626D01*
X010242Y020551D01*
X010017Y020551D01*
X010017Y020401D02*
X010017Y020851D01*
X010242Y020851D01*
X010167Y020551D02*
X010317Y020401D01*
X010487Y021988D02*
X010487Y022214D01*
X011037Y021276D02*
X010989Y021241D01*
X010939Y021208D01*
X010887Y021177D01*
X010833Y021150D01*
X010778Y021126D01*
X010721Y021106D01*
X010664Y021088D01*
X010606Y021074D01*
X010547Y021063D01*
X010487Y021056D01*
X009384Y022411D02*
X009404Y022471D01*
X009428Y022530D01*
X009456Y022587D01*
X009487Y022642D01*
X009522Y022696D01*
X009559Y022747D01*
X009600Y022796D01*
X009644Y022842D01*
X009690Y022886D01*
X009739Y022927D01*
X009790Y022965D01*
X009843Y022999D01*
X009899Y023031D01*
X009956Y023058D01*
X010015Y023083D01*
X010075Y023103D01*
X010136Y023121D01*
X010198Y023134D01*
X010261Y023143D01*
X010324Y023149D01*
X010388Y023151D01*
X010452Y023149D01*
X010515Y023143D01*
X010578Y023134D01*
X010640Y023120D01*
X010701Y023103D01*
X010761Y023082D01*
X010820Y023058D01*
X010877Y023030D01*
X010933Y022998D01*
X010986Y022963D01*
X011037Y022926D01*
X011037Y022925D02*
X011037Y021276D01*
X011427Y020196D02*
X011352Y020121D01*
X011352Y019821D01*
X011653Y020121D01*
X011653Y019821D01*
X011578Y019746D01*
X011427Y019746D01*
X011352Y019821D01*
X011427Y020196D02*
X011578Y020196D01*
X011653Y020121D01*
X011813Y020196D02*
X011813Y019746D01*
X011813Y019896D02*
X012038Y020046D01*
X011813Y019896D02*
X012038Y019746D01*
X012062Y023463D02*
X012062Y023764D01*
X012062Y023614D02*
X011612Y023614D01*
X011762Y023463D01*
X011612Y023924D02*
X012062Y024224D01*
X011612Y024224D01*
X011837Y024384D02*
X011612Y024609D01*
X012062Y024609D01*
X012062Y024845D02*
X012062Y025145D01*
X012062Y024995D02*
X011612Y024995D01*
X011762Y024845D01*
X011837Y024684D02*
X011837Y024384D01*
X012062Y023924D02*
X011612Y023924D01*
X011837Y025305D02*
X011837Y025605D01*
X011912Y025765D02*
X011837Y025840D01*
X011837Y025990D01*
X011912Y026065D01*
X011987Y026065D01*
X012062Y025990D01*
X012062Y025840D01*
X011987Y025765D01*
X011912Y025765D01*
X011837Y025840D02*
X011762Y025765D01*
X011687Y025765D01*
X011612Y025840D01*
X011612Y025990D01*
X011687Y026065D01*
X011762Y026065D01*
X011837Y025990D01*
X012062Y025530D02*
X011612Y025530D01*
X011837Y025305D01*
X011662Y026930D02*
X011662Y027155D01*
X011737Y027230D01*
X012037Y027230D01*
X012112Y027155D01*
X012112Y026930D01*
X011662Y026930D01*
X011812Y027390D02*
X011662Y027541D01*
X012112Y027541D01*
X012112Y027691D02*
X012112Y027390D01*
X011777Y028326D02*
X011852Y028401D01*
X011852Y028476D01*
X011777Y028551D01*
X011552Y028551D01*
X011552Y028401D01*
X011627Y028326D01*
X011777Y028326D01*
X011552Y028551D02*
X011702Y028701D01*
X011852Y028776D01*
X011852Y028911D02*
X011852Y029211D01*
X011702Y029361D01*
X011551Y029211D01*
X011551Y028911D01*
X011551Y029136D02*
X011852Y029136D01*
X011391Y028986D02*
X011316Y028911D01*
X011166Y028911D01*
X011091Y028986D01*
X011091Y029286D01*
X011166Y029361D01*
X011316Y029361D01*
X011391Y029286D01*
X011316Y028776D02*
X011091Y028776D01*
X011091Y028326D01*
X011316Y028326D01*
X011392Y028401D01*
X011392Y028701D01*
X011316Y028776D01*
X010931Y028986D02*
X010856Y028911D01*
X010706Y028911D01*
X010631Y028986D01*
X010471Y029136D02*
X010170Y029136D01*
X010396Y029361D01*
X010396Y028911D01*
X010631Y029286D02*
X010706Y029361D01*
X010856Y029361D01*
X010931Y029286D01*
X010931Y029211D01*
X010856Y029136D01*
X010931Y029061D01*
X010931Y028986D01*
X010856Y029136D02*
X010781Y029136D01*
X010010Y029361D02*
X009860Y029361D01*
X009935Y029361D02*
X009935Y028986D01*
X009860Y028911D01*
X009785Y028911D01*
X009710Y028986D01*
X009550Y028911D02*
X009550Y029211D01*
X009400Y029361D01*
X009250Y029211D01*
X009250Y028911D01*
X009090Y028911D02*
X009090Y029361D01*
X008939Y029211D01*
X008789Y029361D01*
X008789Y028911D01*
X008629Y028986D02*
X008554Y028911D01*
X008404Y028911D01*
X008329Y028986D01*
X008404Y029136D02*
X008329Y029211D01*
X008329Y029286D01*
X008404Y029361D01*
X008554Y029361D01*
X008629Y029286D01*
X008554Y029136D02*
X008629Y029061D01*
X008629Y028986D01*
X008554Y029136D02*
X008404Y029136D01*
X009250Y029136D02*
X009550Y029136D01*
X009542Y032451D02*
X009241Y032901D01*
X009542Y032901D02*
X009241Y032451D01*
X009702Y032451D02*
X010002Y032751D01*
X010002Y032826D01*
X009927Y032901D01*
X009777Y032901D01*
X009702Y032826D01*
X009702Y032451D02*
X010002Y032451D01*
X010112Y024136D02*
X010112Y023836D01*
X010112Y023986D02*
X009662Y023986D01*
X009812Y023836D01*
X009662Y023676D02*
X009662Y023376D01*
X009662Y023526D02*
X010112Y023526D01*
X010487Y023146D02*
X010487Y022988D01*
X009384Y021791D02*
X009404Y021732D01*
X009427Y021675D01*
X009454Y021618D01*
X009485Y021564D01*
X009518Y021511D01*
X009555Y021461D01*
X009594Y021412D01*
X009637Y021367D01*
X009682Y021323D01*
X009729Y021283D01*
X009779Y021245D01*
X009831Y021210D01*
X009885Y021179D01*
X009940Y021151D01*
X009997Y021126D01*
X010056Y021105D01*
X010116Y021087D01*
X010177Y021072D01*
X010238Y021062D01*
X010300Y021055D01*
X010362Y021051D01*
X010425Y021052D01*
X010487Y021056D01*
X009037Y021276D02*
X009037Y022925D01*
X008487Y022988D02*
X008487Y023146D01*
X008487Y022214D02*
X008487Y021988D01*
X009037Y021276D02*
X008989Y021241D01*
X008939Y021208D01*
X008887Y021177D01*
X008833Y021150D01*
X008778Y021126D01*
X008721Y021106D01*
X008664Y021088D01*
X008606Y021074D01*
X008547Y021063D01*
X008487Y021056D01*
X008487Y021214D01*
X007384Y022411D02*
X007404Y022471D01*
X007428Y022530D01*
X007456Y022587D01*
X007487Y022642D01*
X007522Y022696D01*
X007559Y022747D01*
X007600Y022796D01*
X007644Y022842D01*
X007690Y022886D01*
X007739Y022927D01*
X007790Y022965D01*
X007843Y022999D01*
X007899Y023031D01*
X007956Y023058D01*
X008015Y023083D01*
X008075Y023103D01*
X008136Y023121D01*
X008198Y023134D01*
X008261Y023143D01*
X008324Y023149D01*
X008388Y023151D01*
X008452Y023149D01*
X008515Y023143D01*
X008578Y023134D01*
X008640Y023120D01*
X008701Y023103D01*
X008761Y023082D01*
X008820Y023058D01*
X008877Y023030D01*
X008933Y022998D01*
X008986Y022963D01*
X009037Y022926D01*
X008487Y021056D02*
X008425Y021052D01*
X008362Y021051D01*
X008300Y021055D01*
X008238Y021062D01*
X008177Y021072D01*
X008116Y021087D01*
X008056Y021105D01*
X007997Y021126D01*
X007940Y021151D01*
X007885Y021179D01*
X007831Y021210D01*
X007779Y021245D01*
X007729Y021283D01*
X007682Y021323D01*
X007637Y021367D01*
X007594Y021412D01*
X007555Y021461D01*
X007518Y021511D01*
X007485Y021564D01*
X007454Y021618D01*
X007427Y021675D01*
X007404Y021732D01*
X007384Y021791D01*
X007437Y020936D02*
X007287Y020936D01*
X007212Y020861D01*
X007212Y020786D01*
X007287Y020636D01*
X007062Y020636D01*
X007062Y020936D01*
X007137Y020476D02*
X007287Y020476D01*
X007362Y020401D01*
X007362Y020176D01*
X007487Y020132D02*
X007337Y019906D01*
X007187Y020132D01*
X007062Y020176D02*
X007062Y020401D01*
X007137Y020476D01*
X007062Y020176D02*
X007512Y020176D01*
X007362Y020326D02*
X007512Y020476D01*
X007437Y020636D02*
X007512Y020711D01*
X007512Y020861D01*
X007437Y020936D01*
X007487Y019906D02*
X007037Y019906D01*
X007112Y019746D02*
X007412Y019446D01*
X007487Y019521D01*
X007487Y019671D01*
X007412Y019746D01*
X007112Y019746D01*
X007037Y019671D01*
X007037Y019521D01*
X007112Y019446D01*
X007412Y019446D01*
X007487Y019286D02*
X007487Y018986D01*
X007487Y019136D02*
X007037Y019136D01*
X007187Y018986D01*
X007267Y017867D02*
X007117Y017642D01*
X006967Y017867D01*
X006817Y017642D02*
X007267Y017642D01*
X007192Y017482D02*
X007267Y017407D01*
X007267Y017257D01*
X007192Y017182D01*
X006892Y017482D01*
X007192Y017482D01*
X007192Y017182D02*
X006892Y017182D01*
X006817Y017257D01*
X006817Y017407D01*
X006892Y017482D01*
X006817Y016871D02*
X007267Y016871D01*
X007267Y016721D02*
X007267Y017022D01*
X006967Y016721D02*
X006817Y016871D01*
X006500Y015876D02*
X006342Y015876D01*
X006562Y015326D02*
X008212Y015326D01*
X008412Y015451D02*
X008712Y015451D01*
X008562Y015451D02*
X008562Y015001D01*
X008872Y015001D02*
X008872Y015076D01*
X009173Y015376D01*
X009173Y015451D01*
X008872Y015451D01*
X009217Y015876D02*
X009375Y015876D01*
X009437Y015326D02*
X011087Y015326D01*
X011149Y015876D02*
X011307Y015876D01*
X011412Y015951D02*
X011712Y015951D01*
X011562Y015951D02*
X011562Y015501D01*
X011872Y015576D02*
X011872Y015651D01*
X011947Y015726D01*
X012098Y015726D01*
X012173Y015651D01*
X012173Y015576D01*
X012098Y015501D01*
X011947Y015501D01*
X011872Y015576D01*
X011947Y015726D02*
X011872Y015801D01*
X011872Y015876D01*
X011947Y015951D01*
X012098Y015951D01*
X012173Y015876D01*
X012173Y015801D01*
X012098Y015726D01*
X012098Y014076D02*
X011872Y013851D01*
X012173Y013851D01*
X012098Y013626D02*
X012098Y014076D01*
X011712Y014076D02*
X011412Y014076D01*
X011562Y014076D02*
X011562Y013626D01*
X011307Y013751D02*
X011149Y013751D01*
X011087Y013201D02*
X009437Y013201D01*
X009098Y013626D02*
X009173Y013701D01*
X009173Y013776D01*
X009098Y013851D01*
X009023Y013851D01*
X009098Y013851D02*
X009173Y013926D01*
X009173Y014001D01*
X009098Y014076D01*
X008947Y014076D01*
X008872Y014001D01*
X008712Y014076D02*
X008412Y014076D01*
X008562Y014076D02*
X008562Y013626D01*
X008432Y013751D02*
X008274Y013751D01*
X008212Y013201D02*
X006562Y013201D01*
X006500Y013751D02*
X006342Y013751D01*
X006173Y013751D02*
X006098Y013826D01*
X005947Y013826D01*
X005872Y013751D01*
X005712Y013826D02*
X005412Y013826D01*
X005562Y013826D02*
X005562Y013376D01*
X005432Y013001D02*
X005274Y013001D01*
X005212Y012451D02*
X003562Y012451D01*
X003500Y013001D02*
X003342Y013001D01*
X003687Y014451D02*
X005337Y014451D01*
X005399Y015001D02*
X005557Y015001D01*
X005537Y014576D02*
X005837Y014576D01*
X005687Y014576D02*
X005687Y014126D01*
X005997Y014201D02*
X006072Y014126D01*
X006223Y014126D01*
X006298Y014201D01*
X006298Y014276D01*
X006223Y014351D01*
X005997Y014351D01*
X005997Y014201D01*
X005997Y014351D02*
X006148Y014501D01*
X006298Y014576D01*
X006173Y013751D02*
X006173Y013676D01*
X005872Y013376D01*
X006173Y013376D01*
X006237Y012413D02*
X006537Y012413D01*
X006687Y012263D01*
X006537Y012113D01*
X006237Y012113D01*
X006312Y011953D02*
X006237Y011878D01*
X006237Y011728D01*
X006312Y011653D01*
X006387Y011653D01*
X006462Y011728D01*
X006462Y011878D01*
X006537Y011953D01*
X006612Y011953D01*
X006687Y011878D01*
X006687Y011728D01*
X006612Y011653D01*
X006537Y011653D01*
X006462Y011728D01*
X006462Y011878D02*
X006387Y011953D01*
X006312Y011953D01*
X006462Y011492D02*
X006462Y011192D01*
X006237Y011417D01*
X006687Y011417D01*
X006687Y011032D02*
X006687Y010732D01*
X006687Y010882D02*
X006237Y010882D01*
X006387Y010732D01*
X006462Y010572D02*
X006462Y010271D01*
X006237Y010497D01*
X006687Y010497D01*
X006687Y010111D02*
X006237Y010111D01*
X006237Y009811D02*
X006687Y010111D01*
X006687Y009811D02*
X006237Y009811D01*
X006237Y009501D02*
X006687Y009501D01*
X006687Y009351D02*
X006687Y009651D01*
X006387Y009351D02*
X006237Y009501D01*
X007262Y012576D02*
X007487Y012576D01*
X007562Y012651D01*
X007562Y012951D01*
X007487Y013026D01*
X007262Y013026D01*
X007262Y012576D01*
X007722Y012651D02*
X007797Y012576D01*
X007948Y012576D01*
X008023Y012651D01*
X008023Y012726D01*
X007948Y012801D01*
X007873Y012801D01*
X007948Y012801D02*
X008023Y012876D01*
X008023Y012951D01*
X007948Y013026D01*
X007797Y013026D01*
X007722Y012951D01*
X007500Y013751D02*
X007274Y013751D01*
X008212Y013201D02*
X008249Y013252D01*
X008284Y013305D01*
X008316Y013361D01*
X008344Y013418D01*
X008368Y013477D01*
X008389Y013537D01*
X008406Y013598D01*
X008420Y013660D01*
X008429Y013723D01*
X008435Y013786D01*
X008437Y013850D01*
X008435Y013914D01*
X008429Y013977D01*
X008420Y014040D01*
X008407Y014102D01*
X008389Y014163D01*
X008369Y014223D01*
X008344Y014282D01*
X008317Y014339D01*
X008285Y014395D01*
X008251Y014448D01*
X008213Y014499D01*
X008172Y014548D01*
X008128Y014594D01*
X008082Y014638D01*
X008033Y014679D01*
X007982Y014716D01*
X007928Y014751D01*
X007873Y014782D01*
X007816Y014810D01*
X007757Y014834D01*
X007697Y014854D01*
X007500Y015876D02*
X007274Y015876D01*
X008212Y015326D02*
X008249Y015377D01*
X008284Y015430D01*
X008316Y015486D01*
X008344Y015543D01*
X008368Y015602D01*
X008389Y015662D01*
X008406Y015723D01*
X008420Y015785D01*
X008429Y015848D01*
X008435Y015911D01*
X008437Y015975D01*
X008435Y016039D01*
X008429Y016102D01*
X008420Y016165D01*
X008407Y016227D01*
X008389Y016288D01*
X008369Y016348D01*
X008344Y016407D01*
X008317Y016464D01*
X008285Y016520D01*
X008251Y016573D01*
X008213Y016624D01*
X008172Y016673D01*
X008128Y016719D01*
X008082Y016763D01*
X008033Y016804D01*
X007982Y016841D01*
X007928Y016876D01*
X007873Y016907D01*
X007816Y016935D01*
X007757Y016959D01*
X007697Y016979D01*
X007077Y016979D02*
X007018Y016959D01*
X006961Y016936D01*
X006904Y016909D01*
X006850Y016878D01*
X006797Y016845D01*
X006747Y016808D01*
X006698Y016769D01*
X006653Y016726D01*
X006609Y016681D01*
X006569Y016634D01*
X006531Y016584D01*
X006496Y016532D01*
X006465Y016478D01*
X006437Y016423D01*
X006412Y016366D01*
X006391Y016307D01*
X006373Y016247D01*
X006358Y016186D01*
X006348Y016125D01*
X006341Y016063D01*
X006337Y016001D01*
X006338Y015938D01*
X006342Y015876D01*
X005387Y015975D02*
X004937Y015975D01*
X004937Y016200D01*
X005012Y016275D01*
X005162Y016275D01*
X005237Y016200D01*
X005237Y015975D01*
X005237Y016125D02*
X005387Y016275D01*
X005312Y016435D02*
X005387Y016510D01*
X005387Y016661D01*
X005312Y016736D01*
X005237Y016736D01*
X005162Y016661D01*
X005162Y016586D01*
X005162Y016661D02*
X005087Y016736D01*
X005012Y016736D01*
X004937Y016661D01*
X004937Y016510D01*
X005012Y016435D01*
X004822Y016104D02*
X004882Y016084D01*
X004941Y016060D01*
X004998Y016032D01*
X005053Y016001D01*
X005107Y015966D01*
X005158Y015929D01*
X005207Y015888D01*
X005253Y015844D01*
X005297Y015798D01*
X005338Y015749D01*
X005376Y015698D01*
X005410Y015645D01*
X005442Y015589D01*
X005469Y015532D01*
X005494Y015473D01*
X005514Y015413D01*
X005532Y015352D01*
X005545Y015290D01*
X005554Y015227D01*
X005560Y015164D01*
X005562Y015100D01*
X005560Y015036D01*
X005554Y014973D01*
X005545Y014910D01*
X005531Y014848D01*
X005514Y014787D01*
X005493Y014727D01*
X005469Y014668D01*
X005441Y014611D01*
X005409Y014555D01*
X005374Y014502D01*
X005337Y014451D01*
X004625Y015001D02*
X004399Y015001D01*
X003467Y015001D02*
X003463Y015063D01*
X003462Y015126D01*
X003466Y015188D01*
X003473Y015250D01*
X003483Y015311D01*
X003498Y015372D01*
X003516Y015432D01*
X003537Y015491D01*
X003562Y015548D01*
X003590Y015603D01*
X003621Y015657D01*
X003656Y015709D01*
X003694Y015759D01*
X003734Y015806D01*
X003778Y015851D01*
X003823Y015894D01*
X003872Y015933D01*
X003922Y015970D01*
X003975Y016003D01*
X004029Y016034D01*
X004086Y016061D01*
X004143Y016084D01*
X004202Y016104D01*
X003762Y016236D02*
X003762Y015935D01*
X003462Y016236D01*
X003387Y016236D01*
X003312Y016161D01*
X003312Y016010D01*
X003387Y015935D01*
X003387Y015775D02*
X003537Y015775D01*
X003612Y015700D01*
X003612Y015475D01*
X003612Y015625D02*
X003762Y015775D01*
X003762Y015475D02*
X003312Y015475D01*
X003312Y015700D01*
X003387Y015775D01*
X003467Y015001D02*
X003625Y015001D01*
X003257Y016851D02*
X003257Y017151D01*
X003257Y017001D02*
X002807Y017001D01*
X002957Y016851D01*
X002882Y017311D02*
X002807Y017386D01*
X002807Y017536D01*
X002882Y017611D01*
X003182Y017311D01*
X003257Y017386D01*
X003257Y017536D01*
X003182Y017611D01*
X002882Y017611D01*
X002807Y017771D02*
X003257Y017771D01*
X003107Y017771D02*
X003257Y017997D01*
X003187Y018126D02*
X002737Y018126D01*
X002737Y018351D01*
X002812Y018426D01*
X002962Y018426D01*
X003037Y018351D01*
X003037Y018126D01*
X003037Y018276D02*
X003187Y018426D01*
X003187Y018586D02*
X003187Y018886D01*
X003187Y018736D02*
X002737Y018736D01*
X002887Y018586D01*
X002957Y017997D02*
X003107Y017771D01*
X003182Y017311D02*
X002882Y017311D01*
X003657Y018116D02*
X004107Y018116D01*
X004107Y017966D02*
X004107Y018267D01*
X004032Y018427D02*
X003732Y018727D01*
X004032Y018727D01*
X004107Y018652D01*
X004107Y018502D01*
X004032Y018427D01*
X003732Y018427D01*
X003657Y018502D01*
X003657Y018652D01*
X003732Y018727D01*
X003657Y018887D02*
X004107Y018887D01*
X003957Y018887D02*
X004107Y019112D01*
X003957Y018887D02*
X003807Y019112D01*
X003657Y018116D02*
X003807Y017966D01*
X004657Y018616D02*
X005107Y018616D01*
X005107Y018466D02*
X005107Y018767D01*
X005032Y018927D02*
X004732Y019227D01*
X005032Y019227D01*
X005107Y019152D01*
X005107Y019002D01*
X005032Y018927D01*
X004732Y018927D01*
X004657Y019002D01*
X004657Y019152D01*
X004732Y019227D01*
X004657Y019387D02*
X005107Y019387D01*
X004957Y019387D02*
X005107Y019612D01*
X004957Y019387D02*
X004807Y019612D01*
X004657Y018616D02*
X004807Y018466D01*
X004262Y020280D02*
X004337Y020355D01*
X004337Y020505D01*
X004262Y020580D01*
X004337Y020740D02*
X004337Y021041D01*
X004337Y020891D02*
X003887Y020891D01*
X004037Y020740D01*
X003962Y020580D02*
X003887Y020505D01*
X003887Y020355D01*
X003962Y020280D01*
X004262Y020280D01*
X003748Y023251D02*
X003597Y023251D01*
X003522Y023326D01*
X003522Y023476D02*
X003673Y023551D01*
X003748Y023551D01*
X003823Y023476D01*
X003823Y023326D01*
X003748Y023251D01*
X003522Y023476D02*
X003522Y023701D01*
X003823Y023701D01*
X004187Y024701D02*
X004487Y024701D01*
X004337Y024701D02*
X004337Y025151D01*
X004187Y025001D01*
X004647Y025151D02*
X004647Y024701D01*
X004948Y024701D02*
X004647Y025151D01*
X004948Y025151D02*
X004948Y024701D01*
X005108Y024926D02*
X005408Y024926D01*
X005568Y025001D02*
X005718Y025151D01*
X005718Y024701D01*
X005568Y024701D02*
X005868Y024701D01*
X006028Y024926D02*
X006329Y024926D01*
X006489Y024851D02*
X006489Y024776D01*
X006564Y024701D01*
X006714Y024701D01*
X006789Y024776D01*
X006789Y024851D01*
X006714Y024926D01*
X006564Y024926D01*
X006489Y025001D01*
X006489Y025076D01*
X006564Y025151D01*
X006714Y025151D01*
X006789Y025076D01*
X006789Y025001D01*
X006714Y024926D01*
X006564Y024926D02*
X006489Y024851D01*
X006254Y024701D02*
X006254Y025151D01*
X006028Y024926D01*
X005333Y024701D02*
X005333Y025151D01*
X005108Y024926D01*
X005687Y021866D02*
X005837Y021866D01*
X005912Y021791D01*
X005912Y021715D01*
X005837Y021640D01*
X005987Y021640D01*
X006062Y021565D01*
X005837Y021405D02*
X005912Y021330D01*
X005912Y021180D01*
X005837Y021105D01*
X005537Y021405D01*
X005837Y021405D01*
X005837Y021640D02*
X005687Y021640D01*
X005537Y021405D02*
X005462Y021330D01*
X005462Y021180D01*
X005537Y021105D01*
X005837Y021105D01*
X005912Y020945D02*
X005912Y020645D01*
X005912Y020795D02*
X005462Y020795D01*
X005612Y020645D01*
X006212Y019341D02*
X006287Y019191D01*
X006437Y019040D01*
X006437Y019266D01*
X006512Y019341D01*
X006587Y019341D01*
X006662Y019266D01*
X006662Y019115D01*
X006587Y019040D01*
X006437Y019040D01*
X006437Y018880D02*
X006512Y018805D01*
X006512Y018580D01*
X006512Y018730D02*
X006662Y018880D01*
X006662Y018580D02*
X006212Y018580D01*
X006212Y018805D01*
X006287Y018880D01*
X006437Y018880D01*
X006342Y015876D02*
X006349Y015816D01*
X006360Y015757D01*
X006374Y015699D01*
X006392Y015642D01*
X006412Y015585D01*
X006436Y015530D01*
X006463Y015476D01*
X006494Y015424D01*
X006527Y015374D01*
X006562Y015326D01*
X007077Y014854D02*
X007018Y014834D01*
X006961Y014811D01*
X006904Y014784D01*
X006850Y014753D01*
X006797Y014720D01*
X006747Y014683D01*
X006698Y014644D01*
X006653Y014601D01*
X006609Y014556D01*
X006569Y014509D01*
X006531Y014459D01*
X006496Y014407D01*
X006465Y014353D01*
X006437Y014298D01*
X006412Y014241D01*
X006391Y014182D01*
X006373Y014122D01*
X006358Y014061D01*
X006348Y014000D01*
X006341Y013938D01*
X006337Y013876D01*
X006338Y013813D01*
X006342Y013751D01*
X006349Y013691D01*
X006360Y013632D01*
X006374Y013574D01*
X006392Y013517D01*
X006412Y013460D01*
X006436Y013405D01*
X006463Y013351D01*
X006494Y013299D01*
X006527Y013249D01*
X006562Y013201D01*
X008274Y015876D02*
X008432Y015876D01*
X008467Y017096D02*
X008317Y017246D01*
X008767Y017246D01*
X008767Y017096D02*
X008767Y017397D01*
X008692Y017557D02*
X008392Y017857D01*
X008692Y017857D01*
X008767Y017782D01*
X008767Y017632D01*
X008692Y017557D01*
X008392Y017557D01*
X008317Y017632D01*
X008317Y017782D01*
X008392Y017857D01*
X008317Y018017D02*
X008767Y018017D01*
X008617Y018017D02*
X008767Y018242D01*
X008617Y018017D02*
X008467Y018242D01*
X008337Y018705D02*
X008337Y018930D01*
X008412Y019005D01*
X008562Y019005D01*
X008637Y018930D01*
X008637Y018705D01*
X008637Y018855D02*
X008787Y019005D01*
X008787Y019165D02*
X008712Y019165D01*
X008412Y019466D01*
X008337Y019466D01*
X008337Y019165D01*
X008337Y018705D02*
X008787Y018705D01*
X009952Y016979D02*
X009893Y016959D01*
X009836Y016936D01*
X009779Y016909D01*
X009725Y016878D01*
X009672Y016845D01*
X009622Y016808D01*
X009573Y016769D01*
X009528Y016726D01*
X009484Y016681D01*
X009444Y016634D01*
X009406Y016584D01*
X009371Y016532D01*
X009340Y016478D01*
X009312Y016423D01*
X009287Y016366D01*
X009266Y016307D01*
X009248Y016247D01*
X009233Y016186D01*
X009223Y016125D01*
X009216Y016063D01*
X009212Y016001D01*
X009213Y015938D01*
X009217Y015876D01*
X009217Y013751D02*
X009375Y013751D01*
X009098Y013626D02*
X008947Y013626D01*
X008872Y013701D01*
X009612Y010497D02*
X009837Y010271D01*
X010062Y010497D02*
X009612Y010497D01*
X009437Y013201D02*
X009402Y013249D01*
X009369Y013299D01*
X009338Y013351D01*
X009311Y013405D01*
X009287Y013460D01*
X009267Y013517D01*
X009249Y013574D01*
X009235Y013632D01*
X009224Y013691D01*
X009217Y013751D01*
X009213Y013813D01*
X009212Y013876D01*
X009216Y013938D01*
X009223Y014000D01*
X009233Y014061D01*
X009248Y014122D01*
X009266Y014182D01*
X009287Y014241D01*
X009312Y014298D01*
X009340Y014353D01*
X009371Y014407D01*
X009406Y014459D01*
X009444Y014509D01*
X009484Y014556D01*
X009528Y014601D01*
X009573Y014644D01*
X009622Y014683D01*
X009672Y014720D01*
X009725Y014753D01*
X009779Y014784D01*
X009836Y014811D01*
X009893Y014834D01*
X009952Y014854D01*
X009437Y015326D02*
X009402Y015374D01*
X009369Y015424D01*
X009338Y015476D01*
X009311Y015530D01*
X009287Y015585D01*
X009267Y015642D01*
X009249Y015699D01*
X009235Y015757D01*
X009224Y015816D01*
X009217Y015876D01*
X007037Y022876D02*
X007037Y023176D01*
X007037Y023026D02*
X007487Y023026D01*
X007412Y023336D02*
X007487Y023411D01*
X007487Y023561D01*
X007412Y023636D01*
X007262Y023636D01*
X007187Y023561D01*
X007187Y023486D01*
X007262Y023336D01*
X007037Y023336D01*
X007037Y023636D01*
X003467Y015001D02*
X003474Y014941D01*
X003485Y014882D01*
X003499Y014824D01*
X003517Y014767D01*
X003537Y014710D01*
X003561Y014655D01*
X003588Y014601D01*
X003619Y014549D01*
X003652Y014499D01*
X003687Y014451D01*
X004274Y013001D02*
X004500Y013001D01*
X003562Y012451D02*
X003527Y012499D01*
X003494Y012549D01*
X003463Y012601D01*
X003436Y012655D01*
X003412Y012710D01*
X003392Y012767D01*
X003374Y012824D01*
X003360Y012882D01*
X003349Y012941D01*
X003342Y013001D01*
X002437Y012138D02*
X002287Y012288D01*
X001987Y012288D01*
X001987Y011988D02*
X002287Y011988D01*
X002437Y012138D01*
X002362Y011828D02*
X002437Y011753D01*
X002437Y011603D01*
X002362Y011528D01*
X002287Y011528D01*
X002212Y011603D01*
X002212Y011753D01*
X002287Y011828D01*
X002362Y011828D01*
X002212Y011753D02*
X002137Y011828D01*
X002062Y011828D01*
X001987Y011753D01*
X001987Y011603D01*
X002062Y011528D01*
X002137Y011528D01*
X002212Y011603D01*
X002212Y011367D02*
X002212Y011067D01*
X001987Y011292D01*
X002437Y011292D01*
X002437Y010907D02*
X002437Y010607D01*
X002437Y010757D02*
X001987Y010757D01*
X002137Y010607D01*
X002212Y010447D02*
X002212Y010146D01*
X001987Y010372D01*
X002437Y010372D01*
X002437Y009986D02*
X001987Y009986D01*
X001987Y009686D02*
X002437Y009986D01*
X002437Y009686D02*
X001987Y009686D01*
X001987Y009376D02*
X002437Y009376D01*
X002437Y009226D02*
X002437Y009526D01*
X002137Y009226D02*
X001987Y009376D01*
X001398Y012576D02*
X001097Y012576D01*
X001398Y012876D01*
X001398Y012951D01*
X001323Y013026D01*
X001172Y013026D01*
X001097Y012951D01*
X000937Y012951D02*
X000937Y012651D01*
X000862Y012576D01*
X000637Y012576D01*
X000637Y013026D01*
X000862Y013026D01*
X000937Y012951D01*
X000757Y013425D02*
X000757Y013575D01*
X000757Y013500D02*
X001132Y013500D01*
X001207Y013425D01*
X001207Y013350D01*
X001132Y013275D01*
X001057Y013735D02*
X001057Y013960D01*
X000982Y014035D01*
X000832Y014035D01*
X000757Y013960D01*
X000757Y013735D01*
X001207Y013735D01*
X001207Y014195D02*
X001207Y014496D01*
X001207Y014345D02*
X000757Y014345D01*
X000907Y014195D01*
X003062Y023251D02*
X003287Y023251D01*
X003362Y023326D01*
X003362Y023626D01*
X003287Y023701D01*
X003062Y023701D01*
X003062Y023251D01*
X002382Y025275D02*
X002457Y025350D01*
X002457Y025425D01*
X002382Y025500D01*
X002007Y025500D01*
X002007Y025425D02*
X002007Y025575D01*
X002007Y025735D02*
X002007Y025960D01*
X002082Y026035D01*
X002232Y026035D01*
X002307Y025960D01*
X002307Y025735D01*
X002457Y025735D02*
X002007Y025735D01*
X002082Y026195D02*
X002007Y026270D01*
X002007Y026421D01*
X002082Y026496D01*
X002157Y026496D01*
X002457Y026195D01*
X002457Y026496D01*
X002866Y032451D02*
X003167Y032901D01*
X003327Y032751D02*
X003477Y032901D01*
X003477Y032451D01*
X003327Y032451D02*
X003627Y032451D01*
X003167Y032451D02*
X002866Y032901D01*
X004697Y014104D02*
X004757Y014084D01*
X004816Y014060D01*
X004873Y014032D01*
X004928Y014001D01*
X004982Y013966D01*
X005033Y013929D01*
X005082Y013888D01*
X005128Y013844D01*
X005172Y013798D01*
X005213Y013749D01*
X005251Y013698D01*
X005285Y013645D01*
X005317Y013589D01*
X005344Y013532D01*
X005369Y013473D01*
X005389Y013413D01*
X005407Y013352D01*
X005420Y013290D01*
X005429Y013227D01*
X005435Y013164D01*
X005437Y013100D01*
X005435Y013036D01*
X005429Y012973D01*
X005420Y012910D01*
X005406Y012848D01*
X005389Y012787D01*
X005368Y012727D01*
X005344Y012668D01*
X005316Y012611D01*
X005284Y012555D01*
X005249Y012502D01*
X005212Y012451D01*
X003342Y013001D02*
X003338Y013063D01*
X003337Y013126D01*
X003341Y013188D01*
X003348Y013250D01*
X003358Y013311D01*
X003373Y013372D01*
X003391Y013432D01*
X003412Y013491D01*
X003437Y013548D01*
X003465Y013603D01*
X003496Y013657D01*
X003531Y013709D01*
X003569Y013759D01*
X003609Y013806D01*
X003653Y013851D01*
X003698Y013894D01*
X003747Y013933D01*
X003797Y013970D01*
X003850Y014003D01*
X003904Y014034D01*
X003961Y014061D01*
X004018Y014084D01*
X004077Y014104D01*
X001348Y001376D02*
X001122Y001151D01*
X001423Y001151D01*
X001348Y000926D02*
X001348Y001376D01*
X000962Y001376D02*
X000662Y000926D01*
X000962Y000926D02*
X000662Y001376D01*
X006912Y001376D02*
X007212Y000926D01*
X007372Y001001D02*
X007447Y000926D01*
X007598Y000926D01*
X007673Y001001D01*
X007673Y001076D01*
X007598Y001151D01*
X007523Y001151D01*
X007598Y001151D02*
X007673Y001226D01*
X007673Y001301D01*
X007598Y001376D01*
X007447Y001376D01*
X007372Y001301D01*
X007212Y001376D02*
X006912Y000926D01*
D14*
X008191Y004545D02*
X008191Y010860D01*
X008333Y011360D02*
X008333Y009045D01*
X008333Y006860D02*
X008333Y005545D01*
X008333Y004545D02*
X012191Y004545D01*
X012191Y010860D01*
X012191Y012360D02*
X008333Y012360D01*
X008191Y012360D02*
X004333Y012360D01*
X004191Y012360D02*
X000333Y012360D01*
X000333Y011360D02*
X000333Y009045D01*
X000333Y006860D02*
X000333Y005545D01*
X000333Y004545D02*
X004191Y004545D01*
X004191Y010860D01*
X004333Y011360D02*
X004333Y009045D01*
X004333Y006860D02*
X004333Y005545D01*
X004333Y004545D02*
X008191Y004545D01*
X009021Y024547D02*
X002706Y024547D01*
X002706Y028405D01*
X003706Y028405D02*
X005021Y028405D01*
X007206Y028405D02*
X009521Y028405D01*
X010521Y028405D02*
X010521Y024547D01*
D15*
X010632Y022959D02*
X010692Y022959D01*
X010932Y022719D01*
X010992Y022719D01*
X010992Y022531D02*
X010632Y022531D01*
X010812Y022351D01*
X010812Y022591D01*
X010812Y022223D02*
X010752Y022163D01*
X010752Y022102D01*
X010812Y021982D01*
X010632Y021982D01*
X010632Y022223D01*
X010692Y021854D02*
X010632Y021794D01*
X010632Y021674D01*
X010692Y021614D01*
X010932Y021614D01*
X010992Y021674D01*
X010992Y021794D01*
X010932Y021854D01*
X010932Y021982D02*
X010992Y022042D01*
X010992Y022163D01*
X010932Y022223D01*
X010812Y022223D01*
X010632Y022719D02*
X010632Y022959D01*
X010692Y021486D02*
X010632Y021426D01*
X010632Y021246D01*
X010992Y021246D01*
X010992Y021426D01*
X010932Y021486D01*
X010872Y021486D01*
X010812Y021426D01*
X010812Y021246D01*
X010812Y021426D02*
X010752Y021486D01*
X010692Y021486D01*
X008992Y021551D02*
X008992Y021371D01*
X008632Y021371D01*
X008632Y021551D01*
X008692Y021611D01*
X008752Y021611D01*
X008812Y021551D01*
X008812Y021371D01*
X008812Y021551D02*
X008872Y021611D01*
X008932Y021611D01*
X008992Y021551D01*
X008932Y021739D02*
X008992Y021799D01*
X008992Y021919D01*
X008932Y021979D01*
X008932Y022107D02*
X008992Y022167D01*
X008992Y022288D01*
X008932Y022348D01*
X008812Y022348D01*
X008752Y022288D01*
X008752Y022227D01*
X008812Y022107D01*
X008632Y022107D01*
X008632Y022348D01*
X008812Y022476D02*
X008632Y022656D01*
X008992Y022656D01*
X008992Y022844D02*
X008932Y022844D01*
X008692Y023084D01*
X008632Y023084D01*
X008632Y022844D01*
X008812Y022716D02*
X008812Y022476D01*
X008692Y021979D02*
X008632Y021919D01*
X008632Y021799D01*
X008692Y021739D01*
X008932Y021739D01*
X006927Y026871D02*
X006927Y027331D01*
X006696Y027101D01*
X007003Y027101D01*
X006543Y027178D02*
X006543Y027254D01*
X006466Y027331D01*
X006313Y027331D01*
X006236Y027254D01*
X006083Y027254D02*
X005776Y026947D01*
X005852Y026871D01*
X006006Y026871D01*
X006083Y026947D01*
X006083Y027254D01*
X006006Y027331D01*
X005852Y027331D01*
X005776Y027254D01*
X005776Y026947D01*
X005622Y026947D02*
X005546Y026871D01*
X005392Y026871D01*
X005315Y026947D01*
X005622Y027254D01*
X005622Y026947D01*
X005622Y027254D02*
X005546Y027331D01*
X005392Y027331D01*
X005315Y027254D01*
X005315Y026947D01*
X005162Y026947D02*
X005085Y026871D01*
X004932Y026871D01*
X004855Y026947D01*
X004702Y026947D02*
X004625Y026871D01*
X004471Y026871D01*
X004395Y026947D01*
X004702Y027254D01*
X004702Y026947D01*
X004702Y027254D02*
X004625Y027331D01*
X004471Y027331D01*
X004395Y027254D01*
X004395Y026947D01*
X004241Y026871D02*
X003934Y026871D01*
X003934Y027331D01*
X004241Y027331D01*
X004088Y027101D02*
X003934Y027101D01*
X003781Y027101D02*
X003704Y027024D01*
X003474Y027024D01*
X003474Y026871D02*
X003474Y027331D01*
X003704Y027331D01*
X003781Y027254D01*
X003781Y027101D01*
X003627Y027024D02*
X003781Y026871D01*
X004236Y028621D02*
X004236Y029081D01*
X004313Y028851D02*
X004543Y028621D01*
X004697Y028621D02*
X005004Y028621D01*
X004850Y028621D02*
X004850Y029081D01*
X004697Y028928D01*
X004543Y029081D02*
X004236Y028774D01*
X004932Y027331D02*
X004855Y027254D01*
X004932Y027331D02*
X005085Y027331D01*
X005162Y027254D01*
X005162Y027178D01*
X005085Y027101D01*
X005162Y027024D01*
X005162Y026947D01*
X005085Y027101D02*
X005008Y027101D01*
X006236Y026871D02*
X006543Y027178D01*
X006543Y026871D02*
X006236Y026871D01*
X006657Y015731D02*
X006837Y015731D01*
X006897Y015671D01*
X006897Y015611D01*
X006837Y015551D01*
X006657Y015551D01*
X006657Y015371D02*
X006657Y015731D01*
X006837Y015551D02*
X006897Y015491D01*
X006897Y015431D01*
X006837Y015371D01*
X006657Y015371D01*
X007025Y015431D02*
X007085Y015371D01*
X007205Y015371D01*
X007266Y015431D01*
X007394Y015431D02*
X007454Y015371D01*
X007574Y015371D01*
X007634Y015431D01*
X007634Y015551D01*
X007574Y015611D01*
X007514Y015611D01*
X007394Y015551D01*
X007394Y015731D01*
X007634Y015731D01*
X007762Y015551D02*
X008002Y015551D01*
X008130Y015431D02*
X008130Y015371D01*
X008130Y015431D02*
X008370Y015671D01*
X008370Y015731D01*
X008130Y015731D01*
X007942Y015731D02*
X007762Y015551D01*
X007942Y015371D02*
X007942Y015731D01*
X007266Y015671D02*
X007205Y015731D01*
X007085Y015731D01*
X007025Y015671D01*
X007025Y015431D01*
X007085Y013606D02*
X007025Y013546D01*
X007025Y013306D01*
X007085Y013246D01*
X007205Y013246D01*
X007266Y013306D01*
X007394Y013306D02*
X007454Y013246D01*
X007574Y013246D01*
X007634Y013306D01*
X007634Y013426D01*
X007574Y013486D01*
X007514Y013486D01*
X007394Y013426D01*
X007394Y013606D01*
X007634Y013606D01*
X007762Y013426D02*
X008002Y013426D01*
X008130Y013306D02*
X008130Y013246D01*
X008130Y013306D02*
X008370Y013546D01*
X008370Y013606D01*
X008130Y013606D01*
X007942Y013606D02*
X007942Y013246D01*
X007762Y013426D02*
X007942Y013606D01*
X007266Y013546D02*
X007205Y013606D01*
X007085Y013606D01*
X006897Y013546D02*
X006897Y013486D01*
X006837Y013426D01*
X006657Y013426D01*
X006657Y013606D02*
X006837Y013606D01*
X006897Y013546D01*
X006837Y013426D02*
X006897Y013366D01*
X006897Y013306D01*
X006837Y013246D01*
X006657Y013246D01*
X006657Y013606D01*
X005370Y014796D02*
X005130Y014556D01*
X005130Y014496D01*
X004942Y014496D02*
X004942Y014856D01*
X004762Y014676D01*
X005002Y014676D01*
X005130Y014856D02*
X005370Y014856D01*
X005370Y014796D01*
X004634Y014856D02*
X004394Y014856D01*
X004394Y014676D01*
X004514Y014736D01*
X004574Y014736D01*
X004634Y014676D01*
X004634Y014556D01*
X004574Y014496D01*
X004454Y014496D01*
X004394Y014556D01*
X004266Y014556D02*
X004205Y014496D01*
X004085Y014496D01*
X004025Y014556D01*
X004025Y014796D01*
X004085Y014856D01*
X004205Y014856D01*
X004266Y014796D01*
X003897Y014796D02*
X003897Y014736D01*
X003837Y014676D01*
X003657Y014676D01*
X003657Y014496D02*
X003657Y014856D01*
X003837Y014856D01*
X003897Y014796D01*
X003837Y014676D02*
X003897Y014616D01*
X003897Y014556D01*
X003837Y014496D01*
X003657Y014496D01*
X003712Y012856D02*
X003532Y012856D01*
X003532Y012496D01*
X003712Y012496D01*
X003772Y012556D01*
X003772Y012616D01*
X003712Y012676D01*
X003532Y012676D01*
X003712Y012676D02*
X003772Y012736D01*
X003772Y012796D01*
X003712Y012856D01*
X003900Y012796D02*
X003900Y012556D01*
X003960Y012496D01*
X004080Y012496D01*
X004141Y012556D01*
X004269Y012556D02*
X004329Y012496D01*
X004449Y012496D01*
X004509Y012556D01*
X004509Y012676D01*
X004449Y012736D01*
X004389Y012736D01*
X004269Y012676D01*
X004269Y012856D01*
X004509Y012856D01*
X004637Y012676D02*
X004877Y012676D01*
X005005Y012556D02*
X005005Y012496D01*
X005005Y012556D02*
X005245Y012796D01*
X005245Y012856D01*
X005005Y012856D01*
X004817Y012856D02*
X004817Y012496D01*
X004637Y012676D02*
X004817Y012856D01*
X004141Y012796D02*
X004080Y012856D01*
X003960Y012856D01*
X003900Y012796D01*
X005782Y007890D02*
X006012Y007660D01*
X006012Y007967D01*
X006242Y007890D02*
X005782Y007890D01*
X005858Y007507D02*
X005782Y007430D01*
X005782Y007276D01*
X005858Y007200D01*
X005858Y007046D02*
X006165Y006739D01*
X006242Y006816D01*
X006242Y006970D01*
X006165Y007046D01*
X005858Y007046D01*
X005782Y006970D01*
X005782Y006816D01*
X005858Y006739D01*
X006165Y006739D01*
X006165Y006586D02*
X006242Y006509D01*
X006242Y006356D01*
X006165Y006279D01*
X005858Y006586D01*
X006165Y006586D01*
X006165Y006279D02*
X005858Y006279D01*
X005782Y006356D01*
X005782Y006509D01*
X005858Y006586D01*
X005858Y006126D02*
X005935Y006126D01*
X006012Y006049D01*
X006089Y006126D01*
X006165Y006126D01*
X006242Y006049D01*
X006242Y005895D01*
X006165Y005819D01*
X006165Y005665D02*
X006242Y005589D01*
X006242Y005435D01*
X006165Y005358D01*
X005858Y005665D01*
X006165Y005665D01*
X006165Y005358D02*
X005858Y005358D01*
X005782Y005435D01*
X005782Y005589D01*
X005858Y005665D01*
X005858Y005819D02*
X005782Y005895D01*
X005782Y006049D01*
X005858Y006126D01*
X006012Y006049D02*
X006012Y005972D01*
X006242Y005205D02*
X006242Y004898D01*
X005782Y004898D01*
X005782Y005205D01*
X006012Y005051D02*
X006012Y004898D01*
X006012Y004745D02*
X005858Y004745D01*
X005782Y004668D01*
X005782Y004438D01*
X006242Y004438D01*
X006089Y004438D02*
X006089Y004668D01*
X006012Y004745D01*
X006089Y004591D02*
X006242Y004745D01*
X006657Y004825D02*
X007117Y004825D01*
X006964Y004825D02*
X006657Y005132D01*
X006733Y005285D02*
X006657Y005362D01*
X006657Y005516D01*
X006733Y005592D01*
X006810Y005592D01*
X006887Y005516D01*
X006964Y005592D01*
X007040Y005592D01*
X007117Y005516D01*
X007117Y005362D01*
X007040Y005285D01*
X007117Y005132D02*
X006887Y004902D01*
X006887Y005439D02*
X006887Y005516D01*
X006242Y007200D02*
X005935Y007507D01*
X005858Y007507D01*
X006242Y007507D02*
X006242Y007200D01*
X002867Y005592D02*
X002867Y005285D01*
X002560Y005592D01*
X002483Y005592D01*
X002407Y005516D01*
X002407Y005362D01*
X002483Y005285D01*
X002407Y005132D02*
X002714Y004825D01*
X002637Y004902D02*
X002867Y005132D01*
X002867Y004825D02*
X002407Y004825D01*
X001867Y004898D02*
X001867Y005205D01*
X001790Y005358D02*
X001483Y005665D01*
X001790Y005665D01*
X001867Y005589D01*
X001867Y005435D01*
X001790Y005358D01*
X001483Y005358D01*
X001407Y005435D01*
X001407Y005589D01*
X001483Y005665D01*
X001483Y005819D02*
X001407Y005895D01*
X001407Y006049D01*
X001483Y006126D01*
X001560Y006126D01*
X001637Y006049D01*
X001714Y006126D01*
X001790Y006126D01*
X001867Y006049D01*
X001867Y005895D01*
X001790Y005819D01*
X001637Y005972D02*
X001637Y006049D01*
X001790Y006279D02*
X001867Y006356D01*
X001867Y006509D01*
X001790Y006586D01*
X001483Y006586D01*
X001790Y006279D01*
X001483Y006279D01*
X001407Y006356D01*
X001407Y006509D01*
X001483Y006586D01*
X001483Y006739D02*
X001407Y006816D01*
X001407Y006970D01*
X001483Y007046D01*
X001790Y006739D01*
X001867Y006816D01*
X001867Y006970D01*
X001790Y007046D01*
X001483Y007046D01*
X001483Y007200D02*
X001407Y007276D01*
X001407Y007430D01*
X001483Y007507D01*
X001560Y007507D01*
X001867Y007200D01*
X001867Y007507D01*
X001637Y007660D02*
X001637Y007967D01*
X001867Y007890D02*
X001407Y007890D01*
X001637Y007660D01*
X001790Y006739D02*
X001483Y006739D01*
X001407Y005205D02*
X001407Y004898D01*
X001867Y004898D01*
X001867Y004745D02*
X001714Y004591D01*
X001714Y004668D02*
X001714Y004438D01*
X001867Y004438D02*
X001407Y004438D01*
X001407Y004668D01*
X001483Y004745D01*
X001637Y004745D01*
X001714Y004668D01*
X001637Y004898D02*
X001637Y005051D01*
X009532Y013246D02*
X009712Y013246D01*
X009772Y013306D01*
X009772Y013366D01*
X009712Y013426D01*
X009532Y013426D01*
X009532Y013606D02*
X009712Y013606D01*
X009772Y013546D01*
X009772Y013486D01*
X009712Y013426D01*
X009532Y013246D02*
X009532Y013606D01*
X009900Y013546D02*
X009900Y013306D01*
X009960Y013246D01*
X010080Y013246D01*
X010141Y013306D01*
X010269Y013306D02*
X010329Y013246D01*
X010449Y013246D01*
X010509Y013306D01*
X010509Y013426D01*
X010449Y013486D01*
X010389Y013486D01*
X010269Y013426D01*
X010269Y013606D01*
X010509Y013606D01*
X010637Y013426D02*
X010877Y013426D01*
X011005Y013306D02*
X011005Y013246D01*
X011005Y013306D02*
X011245Y013546D01*
X011245Y013606D01*
X011005Y013606D01*
X010817Y013606D02*
X010817Y013246D01*
X010637Y013426D02*
X010817Y013606D01*
X010817Y015371D02*
X010817Y015731D01*
X010637Y015551D01*
X010877Y015551D01*
X011005Y015431D02*
X011005Y015371D01*
X011005Y015431D02*
X011245Y015671D01*
X011245Y015731D01*
X011005Y015731D01*
X010509Y015731D02*
X010269Y015731D01*
X010269Y015551D01*
X010389Y015611D01*
X010449Y015611D01*
X010509Y015551D01*
X010509Y015431D01*
X010449Y015371D01*
X010329Y015371D01*
X010269Y015431D01*
X010141Y015431D02*
X010080Y015371D01*
X009960Y015371D01*
X009900Y015431D01*
X009900Y015671D01*
X009960Y015731D01*
X010080Y015731D01*
X010141Y015671D01*
X009772Y015671D02*
X009772Y015611D01*
X009712Y015551D01*
X009532Y015551D01*
X009532Y015371D02*
X009532Y015731D01*
X009712Y015731D01*
X009772Y015671D01*
X009712Y015551D02*
X009772Y015491D01*
X009772Y015431D01*
X009712Y015371D01*
X009532Y015371D01*
X009960Y013606D02*
X009900Y013546D01*
X009960Y013606D02*
X010080Y013606D01*
X010141Y013546D01*
X009887Y007967D02*
X009887Y007660D01*
X009657Y007890D01*
X010117Y007890D01*
X010117Y007507D02*
X010117Y007200D01*
X009810Y007507D01*
X009733Y007507D01*
X009657Y007430D01*
X009657Y007276D01*
X009733Y007200D01*
X009733Y007046D02*
X010040Y006739D01*
X010117Y006816D01*
X010117Y006970D01*
X010040Y007046D01*
X009733Y007046D01*
X009657Y006970D01*
X009657Y006816D01*
X009733Y006739D01*
X010040Y006739D01*
X010040Y006586D02*
X010117Y006509D01*
X010117Y006356D01*
X010040Y006279D01*
X009733Y006586D01*
X010040Y006586D01*
X010040Y006279D02*
X009733Y006279D01*
X009657Y006356D01*
X009657Y006509D01*
X009733Y006586D01*
X009733Y006126D02*
X009810Y006126D01*
X009887Y006049D01*
X009964Y006126D01*
X010040Y006126D01*
X010117Y006049D01*
X010117Y005895D01*
X010040Y005819D01*
X010040Y005665D02*
X010117Y005589D01*
X010117Y005435D01*
X010040Y005358D01*
X009733Y005665D01*
X010040Y005665D01*
X010040Y005358D02*
X009733Y005358D01*
X009657Y005435D01*
X009657Y005589D01*
X009733Y005665D01*
X009733Y005819D02*
X009657Y005895D01*
X009657Y006049D01*
X009733Y006126D01*
X009887Y006049D02*
X009887Y005972D01*
X010117Y005205D02*
X010117Y004898D01*
X009657Y004898D01*
X009657Y005205D01*
X009887Y005051D02*
X009887Y004898D01*
X009887Y004745D02*
X009733Y004745D01*
X009657Y004668D01*
X009657Y004438D01*
X010117Y004438D01*
X009964Y004438D02*
X009964Y004668D01*
X009887Y004745D01*
X009964Y004591D02*
X010117Y004745D01*
X010407Y004825D02*
X010867Y004825D01*
X010714Y004825D02*
X010407Y005132D01*
X010637Y005285D02*
X010407Y005516D01*
X010867Y005516D01*
X010867Y005132D02*
X010637Y004902D01*
X010637Y005285D02*
X010637Y005592D01*
D16*
X004612Y024101D03*
D17*
X003987Y024101D03*
X006537Y024101D03*
D18*
X006262Y017576D02*
X006262Y017376D01*
X004887Y017501D02*
X004887Y017701D01*
X003887Y017201D02*
X003887Y017001D01*
X003012Y016126D02*
X003012Y015976D01*
X003012Y019326D02*
X003012Y019476D01*
X009637Y018201D02*
X009637Y018001D01*
X009912Y019976D02*
X010112Y019976D01*
D19*
X003012Y019646D03*
X003012Y019146D03*
X003012Y016306D03*
X003012Y015806D03*
D20*
X011012Y026126D03*
D21*
X011012Y026751D03*
X011012Y024201D03*
M02*
