%
M48
M72
T01C0.0315
T02C0.0320
T03C0.0400
T04C0.0470
T05C0.0512
%
T01
X3262Y14351
X5512Y14351
X6137Y14851
X6137Y15976
X8887Y15976
X8887Y14601
X11387Y21601
X11387Y22601
T02
X11012Y23476
X10387Y22601
X10387Y21601
X10512Y19976
X9637Y18601
X9637Y17601
X10262Y16726
X9762Y15976
X10262Y14601
X9762Y13851
X9762Y12851
X8762Y12851
X7887Y13851
X7387Y14601
X6887Y13851
X7012Y12851
X6012Y12851
X5012Y15101
X4512Y15851
X4887Y17101
X4887Y18101
X3887Y17601
X3887Y16601
X4012Y15101
X4387Y13851
X3887Y13101
X3012Y15226
X2762Y12851
X1762Y12851
X3012Y20226
X3262Y24101
X4762Y22301
X4762Y20901
X6262Y17976
X6262Y16976
X6887Y15976
X7387Y16726
X7887Y15976
X8512Y16976
X8512Y19976
X8387Y21601
X8387Y22601
X7637Y22101
X7262Y21351
X7262Y24101
X7262Y18351
X9512Y19976
X9637Y22101
X11012Y27476
X10762Y15976
X10762Y13851
X4887Y13101
T03
X2012Y13726
X2012Y14726
X2012Y15726
X2012Y16726
X2012Y17726
X2012Y18726
X2012Y19726
X2012Y20726
X2012Y21726
X1512Y23101
X1512Y24101
X1512Y25101
T04
X1137Y2351
X3137Y2351
X5137Y2351
X7387Y2351
X9387Y2351
X11387Y2351
X11262Y31476
X9262Y31476
X7262Y31476
X3262Y31476
X1262Y31476
T05
X2887Y27976
X5887Y27976
X9887Y27976
X9887Y24976
X8762Y11726
X7762Y11726
X8762Y7726
X8762Y4726
X11762Y11726
X4762Y11726
X3762Y11726
X4762Y7726
X4762Y4726
X762Y4726
X762Y7726
X762Y11726
M30
