G75*
G70*
%OFA0B0*%
%FSLAX24Y24*%
%IPPOS*%
%LPD*%
%AMOC8*
5,1,8,0,0,1.08239X$1,22.5*
%
%ADD10C,0.0600*%
%ADD11OC8,0.0630*%
%ADD12C,0.0630*%
%ADD13R,0.0850X0.1080*%
%ADD14C,0.0768*%
%ADD15C,0.0520*%
%ADD16C,0.0705*%
%ADD17OC8,0.0520*%
%ADD18C,0.0160*%
%ADD19OC8,0.0475*%
%ADD20C,0.1000*%
D10*
X010216Y013726D02*
X010816Y013726D01*
X010816Y014726D02*
X010216Y014726D01*
X010216Y015726D02*
X010816Y015726D01*
X010816Y016726D02*
X010216Y016726D01*
X010216Y017726D02*
X010816Y017726D01*
X010816Y018726D02*
X010216Y018726D01*
X010216Y019726D02*
X010816Y019726D01*
X010816Y020726D02*
X010216Y020726D01*
X010216Y021726D02*
X010816Y021726D01*
X010716Y023101D02*
X011316Y023101D01*
X011316Y024101D02*
X010716Y024101D01*
X010716Y025101D02*
X011316Y025101D01*
D11*
X007766Y020901D03*
D12*
X007766Y022301D03*
D13*
X002676Y029901D03*
X000936Y029891D03*
D14*
X002641Y027976D03*
X002641Y024976D03*
X006641Y027976D03*
X009641Y027976D03*
X008766Y011726D03*
X007766Y011726D03*
X007766Y007726D03*
X007766Y004726D03*
X004766Y011726D03*
X003766Y011726D03*
X003766Y007726D03*
X003766Y004726D03*
X000766Y011726D03*
X011766Y011726D03*
X011766Y007726D03*
X011766Y004726D03*
D15*
X009526Y024101D02*
X009006Y024101D01*
X005526Y024101D02*
X005006Y024101D01*
X001516Y023736D02*
X001516Y023216D01*
X001516Y027216D02*
X001516Y027736D01*
D16*
X001141Y002703D02*
X001141Y001998D01*
X003141Y001998D02*
X003141Y002703D01*
X005141Y002703D02*
X005141Y001998D01*
X007391Y001998D02*
X007391Y002703D01*
X009391Y002703D02*
X009391Y001998D01*
X011391Y001998D02*
X011391Y002703D01*
X011266Y031123D02*
X011266Y031828D01*
X009266Y031828D02*
X009266Y031123D01*
X005266Y031123D02*
X005266Y031828D01*
X003266Y031828D02*
X003266Y031123D01*
X001266Y031123D02*
X001266Y031828D01*
D17*
X002141Y022601D03*
X002141Y021601D03*
X002016Y019976D03*
X002891Y018601D03*
X002891Y017601D03*
X002266Y016726D03*
X002766Y015976D03*
X002266Y014601D03*
X002766Y013851D03*
X002766Y012851D03*
X003766Y012851D03*
X004641Y013851D03*
X005141Y014601D03*
X005641Y013851D03*
X005516Y012851D03*
X006516Y012851D03*
X007516Y015101D03*
X008016Y015851D03*
X007641Y017101D03*
X007641Y018101D03*
X008641Y017601D03*
X008641Y016601D03*
X008516Y015101D03*
X008141Y013851D03*
X008641Y013101D03*
X009516Y015226D03*
X009766Y012851D03*
X010766Y012851D03*
X009516Y020226D03*
X007641Y013101D03*
X006266Y016976D03*
X006266Y017976D03*
X005641Y015976D03*
X005141Y016726D03*
X004641Y015976D03*
X004016Y016976D03*
X004016Y019976D03*
X004141Y021601D03*
X004141Y022601D03*
X004891Y022101D03*
X005266Y021351D03*
X005266Y018351D03*
X003016Y019976D03*
X002891Y022101D03*
X001766Y015976D03*
X001766Y013851D03*
D18*
X001766Y015226D01*
X003891Y015226D01*
X004516Y014601D01*
X004516Y014101D01*
X004641Y013976D01*
X004641Y013851D01*
X005141Y014601D02*
X005391Y014851D01*
X006391Y014851D01*
X006391Y015976D02*
X005641Y015976D01*
X005266Y015351D02*
X004641Y015976D01*
X003891Y015226D01*
X003641Y014601D02*
X002266Y014601D01*
X001766Y015226D02*
X001766Y015976D01*
X000891Y016851D01*
X000891Y020726D01*
X000516Y021101D01*
X000516Y022101D01*
X001641Y022101D01*
X002141Y022601D01*
X002391Y022851D01*
X003391Y022851D01*
X003641Y022601D01*
X004141Y022601D01*
X003516Y022101D02*
X004016Y021601D01*
X004141Y021601D01*
X004141Y020851D01*
X004391Y020601D01*
X005391Y020601D01*
X005766Y020226D01*
X009516Y020226D01*
X009266Y019351D02*
X007266Y019351D01*
X006266Y018351D01*
X006266Y017976D01*
X005641Y017976D01*
X005266Y018351D01*
X005266Y019601D01*
X004891Y019976D01*
X004016Y019976D01*
X003016Y019976D01*
X003016Y020101D01*
X002891Y018601D02*
X004141Y018601D01*
X005266Y017476D01*
X006641Y017476D01*
X006891Y017726D01*
X006891Y018351D01*
X007266Y018726D01*
X009016Y018726D01*
X010016Y017726D01*
X010516Y017726D01*
X010516Y018726D02*
X009891Y018726D01*
X009266Y019351D01*
X008766Y018226D02*
X007891Y018226D01*
X007766Y018101D01*
X007641Y018101D01*
X007891Y017601D02*
X008141Y017351D01*
X008141Y015976D01*
X008016Y015851D01*
X007641Y016351D02*
X007641Y017101D01*
X007891Y017601D02*
X007391Y017601D01*
X006766Y016976D01*
X006266Y016976D01*
X006391Y015976D02*
X007266Y015976D01*
X007641Y016351D01*
X007516Y015101D02*
X007016Y015101D01*
X007016Y015226D01*
X006891Y015351D01*
X005266Y015351D01*
X005141Y016726D02*
X004266Y016726D01*
X004016Y016976D01*
X003641Y015976D02*
X002766Y015976D01*
X002766Y016351D01*
X002891Y016476D01*
X002891Y017601D01*
X002266Y016726D02*
X002016Y016976D01*
X002016Y019976D01*
X002141Y021601D02*
X001141Y021601D01*
X001141Y022601D02*
X001141Y023226D01*
X001391Y023476D01*
X001516Y023476D01*
X001516Y024601D01*
X001891Y024976D01*
X002641Y024976D01*
X003266Y025351D02*
X002891Y025726D01*
X001641Y025726D01*
X000891Y026476D01*
X000891Y028101D01*
X001391Y028601D01*
X002016Y028601D01*
X002641Y029226D01*
X002641Y029976D01*
X002676Y029941D01*
X002676Y029901D01*
X002676Y029816D01*
X002766Y029851D01*
X002766Y030726D01*
X003266Y031351D01*
X003266Y031476D01*
X003516Y029851D02*
X003516Y026226D01*
X005266Y024476D01*
X005266Y024101D01*
X004766Y023351D02*
X003641Y024476D01*
X003641Y025476D01*
X002641Y026476D01*
X002641Y027976D01*
X001891Y027976D01*
X001516Y027476D01*
X000516Y029601D02*
X000936Y029771D01*
X000936Y029891D01*
X001016Y029851D02*
X000936Y029771D01*
X001016Y029851D02*
X001266Y029976D01*
X001266Y031476D01*
X000516Y029601D02*
X000516Y022101D01*
X002891Y022101D02*
X003516Y022101D01*
X004766Y022851D02*
X003266Y024351D01*
X003266Y025351D01*
X004766Y023351D02*
X006266Y023351D01*
X007266Y022351D01*
X007891Y022351D01*
X008641Y023101D01*
X009766Y023101D01*
X010766Y024101D01*
X011016Y024101D01*
X011641Y024101D01*
X012141Y023601D01*
X012141Y013351D01*
X011641Y012851D01*
X010766Y012851D01*
X010766Y012601D01*
X009016Y010851D01*
X008391Y010851D01*
X007766Y011476D01*
X007766Y011726D01*
X006891Y010851D01*
X006516Y010851D01*
X006516Y012851D01*
X007016Y014351D02*
X007016Y015101D01*
X007516Y015101D02*
X007516Y013351D01*
X007641Y013101D01*
X008141Y013851D02*
X008141Y014726D01*
X008516Y015101D01*
X008516Y016476D01*
X008641Y016601D01*
X009266Y016976D02*
X008641Y017601D01*
X008766Y018226D02*
X010266Y016726D01*
X010516Y016726D01*
X010516Y015726D02*
X010016Y015726D01*
X009266Y016476D01*
X009266Y016976D01*
X009516Y015226D02*
X009891Y014851D01*
X010016Y014726D01*
X010516Y014726D01*
X010516Y013726D02*
X011641Y013726D01*
X011766Y013851D01*
X011766Y022976D01*
X011016Y022976D01*
X011016Y023101D01*
X010516Y021726D02*
X010391Y021726D01*
X010266Y021851D01*
X009016Y021851D01*
X008766Y021601D01*
X007141Y021601D01*
X005891Y022851D01*
X004766Y022851D01*
X004891Y022101D02*
X005266Y021351D01*
X007766Y020901D02*
X007891Y020851D01*
X010141Y020851D01*
X010266Y020726D01*
X010516Y020726D01*
X011016Y020726D01*
X011391Y020351D01*
X011391Y014476D01*
X011141Y014226D01*
X009391Y014226D01*
X009266Y014351D01*
X008641Y013101D02*
X009016Y012851D01*
X008766Y012601D01*
X008766Y011726D01*
X009016Y012851D02*
X009766Y012851D01*
X010766Y012601D02*
X011641Y011726D01*
X011766Y011726D01*
X007766Y022301D02*
X007891Y022351D01*
X009266Y024101D02*
X009391Y024101D01*
X010391Y025101D01*
X011016Y025101D01*
X006516Y010851D02*
X004516Y010851D01*
X003766Y011601D01*
X003766Y011726D01*
X003766Y012851D01*
X002766Y012851D02*
X002766Y013851D01*
X002766Y012851D02*
X001641Y011726D01*
X000766Y011726D01*
X004766Y011726D02*
X004766Y012476D01*
X005141Y012851D01*
X005516Y012851D01*
X005516Y013851D01*
X005641Y013851D01*
X003516Y029851D02*
X005141Y031476D01*
X005266Y031476D01*
D19*
X001141Y022601D03*
X001141Y021601D03*
X003641Y015976D03*
X003641Y014601D03*
X006391Y014851D03*
X006391Y015976D03*
X007016Y014351D03*
X009266Y014351D03*
D20*
X007766Y007726D02*
X005516Y005476D01*
X005516Y003601D01*
X005141Y003226D01*
X005141Y002351D01*
X003141Y004101D02*
X003766Y004726D01*
X003141Y004101D02*
X003141Y002351D01*
X001141Y002351D02*
X001141Y005101D01*
X003766Y007726D01*
X007391Y004226D02*
X007391Y002351D01*
X007391Y004226D02*
X007891Y004726D01*
X007766Y004726D01*
X009391Y003351D02*
X009391Y002351D01*
X009391Y003351D02*
X009766Y003726D01*
X009766Y005726D01*
X011766Y007726D01*
X011766Y004726D02*
X011391Y004351D01*
X011391Y002351D01*
X009641Y027976D02*
X009641Y028601D01*
X011266Y030226D01*
X011266Y031476D01*
X009266Y031476D02*
X009266Y030601D01*
X006641Y027976D01*
M02*
