G75*
G70*
%OFA0B0*%
%FSLAX24Y24*%
%IPPOS*%
%LPD*%
%AMOC8*
5,1,8,0,0,1.08239X$1,22.5*
%
%ADD10C,0.0680*%
%ADD11OC8,0.0710*%
%ADD12C,0.0710*%
%ADD13C,0.0848*%
%ADD14C,0.0600*%
%ADD15C,0.0785*%
%ADD16OC8,0.0600*%
%ADD17OC8,0.0555*%
D10*
X001712Y013726D02*
X002312Y013726D01*
X002312Y014726D02*
X001712Y014726D01*
X001712Y015726D02*
X002312Y015726D01*
X002312Y016726D02*
X001712Y016726D01*
X001712Y017726D02*
X002312Y017726D01*
X002312Y018726D02*
X001712Y018726D01*
X001712Y019726D02*
X002312Y019726D01*
X002312Y020726D02*
X001712Y020726D01*
X001712Y021726D02*
X002312Y021726D01*
X001812Y023101D02*
X001212Y023101D01*
X001212Y024101D02*
X001812Y024101D01*
X001812Y025101D02*
X001212Y025101D01*
D11*
X004762Y020901D03*
D12*
X004762Y022301D03*
D13*
X005887Y027976D03*
X002887Y027976D03*
X003762Y011726D03*
X004762Y011726D03*
X004762Y007726D03*
X004762Y004726D03*
X007762Y011726D03*
X008762Y011726D03*
X008762Y007726D03*
X008762Y004726D03*
X011762Y011726D03*
X009887Y024976D03*
X009887Y027976D03*
X000762Y011726D03*
X000762Y007726D03*
X000762Y004726D03*
D14*
X003002Y024101D02*
X003522Y024101D01*
X007002Y024101D02*
X007522Y024101D01*
X011012Y023736D02*
X011012Y023216D01*
X011012Y027216D02*
X011012Y027736D01*
D15*
X001137Y002703D02*
X001137Y001998D01*
X003137Y001998D02*
X003137Y002703D01*
X005137Y002703D02*
X005137Y001998D01*
X007387Y001998D02*
X007387Y002703D01*
X009387Y002703D02*
X009387Y001998D01*
X011387Y001998D02*
X011387Y002703D01*
X011262Y031123D02*
X011262Y031828D01*
X009262Y031828D02*
X009262Y031123D01*
X007262Y031123D02*
X007262Y031828D01*
X003262Y031828D02*
X003262Y031123D01*
X001262Y031123D02*
X001262Y031828D01*
D16*
X003012Y020226D03*
X003887Y017601D03*
X003887Y016601D03*
X004012Y015101D03*
X004512Y015851D03*
X004887Y017101D03*
X004887Y018101D03*
X005012Y015101D03*
X004387Y013851D03*
X003887Y013101D03*
X003012Y015226D03*
X002762Y012851D03*
X001762Y012851D03*
X004887Y013101D03*
X006012Y012851D03*
X006887Y013851D03*
X007012Y012851D03*
X007387Y014601D03*
X007887Y013851D03*
X007887Y015976D03*
X007387Y016726D03*
X006887Y015976D03*
X006262Y016976D03*
X006262Y017976D03*
X007262Y018351D03*
X007262Y021351D03*
X007637Y022101D03*
X008387Y022601D03*
X008387Y021601D03*
X008512Y019976D03*
X009512Y019976D03*
X009637Y018601D03*
X009637Y017601D03*
X010262Y016726D03*
X009762Y015976D03*
X010262Y014601D03*
X009762Y013851D03*
X009762Y012851D03*
X008762Y012851D03*
X008512Y016976D03*
X010387Y021601D03*
X010387Y022601D03*
X009637Y022101D03*
X010512Y019976D03*
X010762Y015976D03*
X010762Y013851D03*
D17*
X008887Y014601D03*
X008887Y015976D03*
X011387Y021601D03*
X011387Y022601D03*
X006137Y015976D03*
X006137Y014851D03*
X005512Y014351D03*
X003262Y014351D03*
M02*
